<?xml version="1.0" encoding="UTF-8"?><svg xmlns="http://www.w3.org/2000/svg" xmlns:xlink="http://www.w3.org/1999/xlink" fill-opacity="1" color-rendering="auto" color-interpolation="auto" text-rendering="auto" stroke="black" stroke-linecap="square" width="771" stroke-miterlimit="10" shape-rendering="auto" stroke-opacity="1" fill="black" stroke-dasharray="none" font-weight="normal" stroke-width="1" height="979" font-family="'Dialog'" font-style="normal" stroke-linejoin="miter" font-size="12px" stroke-dashoffset="0" image-rendering="auto">
  <!--Generated by ySVG 2.6-->
  <defs id="genericDefs"/>
  <g>
    <defs id="defs1">
      <clipPath clipPathUnits="userSpaceOnUse" id="clipPath1">
        <path d="M0 0 L771 0 L771 979 L0 979 L0 0 Z"/>
      </clipPath>
      <clipPath clipPathUnits="userSpaceOnUse" id="clipPath2">
        <path d="M371 430 L1142 430 L1142 1409 L371 1409 L371 430 Z"/>
      </clipPath>
    </defs>
    <g fill="white" text-rendering="geometricPrecision" shape-rendering="geometricPrecision" transform="translate(-371,-430)" stroke="white">
      <rect x="371" width="771" height="979" y="430" clip-path="url(#clipPath2)" stroke="none"/>
    </g>
    <g text-rendering="geometricPrecision" stroke-miterlimit="1.45" shape-rendering="geometricPrecision" transform="matrix(1,0,0,1,-371,-430)" stroke-linecap="butt">
      <rect x="386.7805" y="472.438" clip-path="url(#clipPath2)" fill="none" width="365.5417" rx="40.7" ry="40.7" height="81.4"/>
      <text x="537.087" font-size="17px" y="519.0233" clip-path="url(#clipPath2)" font-family="sans-serif" stroke="none" xml:space="preserve">Начало</text>
    </g>
    <g text-rendering="geometricPrecision" stroke-miterlimit="1.45" shape-rendering="geometricPrecision" transform="matrix(1,0,0,1,-371,-430)" stroke-linecap="butt">
      <path fill="none" d="M839.5332 445.938 L798.5222 445.938 L798.5222 580.338 L839.5332 580.338" clip-path="url(#clipPath2)"/>
      <text x="805.536" font-size="17px" y="469.5506" clip-path="url(#clipPath2)" font-family="sans-serif" stroke="none" xml:space="preserve">(global_trace) Входные данные:</text>
      <text x="805.536" font-size="17px" y="489.3397" clip-path="url(#clipPath2)" font-family="sans-serif" stroke="none" xml:space="preserve">camera - камера,</text>
      <text x="805.536" font-size="17px" y="509.1288" clip-path="url(#clipPath2)" font-family="sans-serif" stroke="none" xml:space="preserve">w, h - ширина, высота экрана,</text>
      <text x="805.536" font-size="17px" y="528.9178" clip-path="url(#clipPath2)" font-family="sans-serif" stroke="none" xml:space="preserve">tree - kD-дерево объектов сцены,</text>
      <text x="805.536" font-size="17px" y="548.7068" clip-path="url(#clipPath2)" font-family="sans-serif" stroke="none" xml:space="preserve">light - источник света,</text>
      <text x="805.536" font-size="17px" y="568.4959" clip-path="url(#clipPath2)" font-family="sans-serif" stroke="none" xml:space="preserve">d - глубина рекурсии трассировки,</text>
    </g>
    <g text-rendering="geometricPrecision" stroke-miterlimit="1.45" shape-rendering="geometricPrecision" transform="matrix(1,0,0,1,-371,-430)" stroke-linecap="butt">
      <path fill="none" d="M396.7805 572.5325 L742.3222 572.5325 L752.3222 582.5325 L752.3222 653.9325 L386.7805 653.9325 L386.7805 582.5325 Z" clip-path="url(#clipPath2)"/>
      <text x="436.6891" font-size="17px" y="619.1177" clip-path="url(#clipPath2)" font-family="sans-serif" stroke="none" xml:space="preserve">Цикл по i от 0 до w с шагом 1</text>
    </g>
    <g text-rendering="geometricPrecision" stroke-miterlimit="1.45" shape-rendering="geometricPrecision" transform="matrix(1,0,0,1,-371,-430)" stroke-linecap="butt">
      <path fill="none" d="M386.7805 1206.705 L752.3222 1206.705 L752.3222 1278.105 L742.3222 1288.105 L396.7805 1288.105 L386.7805 1278.105 Z" clip-path="url(#clipPath2)"/>
      <text x="493.4332" font-size="17px" y="1253.2903" clip-path="url(#clipPath2)" font-family="sans-serif" stroke="none" xml:space="preserve">Конец цикла по i</text>
    </g>
    <g text-rendering="geometricPrecision" stroke-miterlimit="1.45" shape-rendering="geometricPrecision" transform="matrix(1,0,0,1,-371,-430)" stroke-linecap="butt">
      <path fill="none" d="M396.7805 678.9325 L742.3222 678.9325 L752.3222 688.9325 L752.3222 760.3325 L386.7805 760.3325 L386.7805 688.9325 Z" clip-path="url(#clipPath2)"/>
      <text x="438.2538" font-size="17px" y="725.5178" clip-path="url(#clipPath2)" font-family="sans-serif" stroke="none" xml:space="preserve">Цикл по j от 0 до h с шагом 1</text>
    </g>
    <g text-rendering="geometricPrecision" stroke-miterlimit="1.45" shape-rendering="geometricPrecision" transform="matrix(1,0,0,1,-371,-430)" stroke-linecap="butt">
      <path fill="none" d="M386.7805 1101.1505 L752.3222 1101.1505 L752.3222 1172.5505 L742.3222 1182.5505 L396.7805 1182.5505 L386.7805 1172.5505 Z" clip-path="url(#clipPath2)"/>
      <text x="493.4332" font-size="17px" y="1147.7357" clip-path="url(#clipPath2)" font-family="sans-serif" stroke="none" xml:space="preserve">Конец цикла по j</text>
    </g>
    <g text-rendering="geometricPrecision" stroke-miterlimit="1.45" shape-rendering="geometricPrecision" transform="matrix(1,0,0,1,-371,-430)" stroke-linecap="butt">
      <rect fill="none" x="386.7805" width="365.5417" height="81.4" y="784.487" clip-path="url(#clipPath2)"/>
      <path fill="none" d="M396.7805 784.487 L396.7805 865.887 M742.3222 784.487 L742.3222 865.887 M396.7805 784.487 Z" clip-path="url(#clipPath2)"/>
      <text x="433.9456" font-size="17px" y="831.0723" clip-path="url(#clipPath2)" font-family="sans-serif" stroke="none" xml:space="preserve">ray = get_ray(camera, i, j, w, h)</text>
    </g>
    <g text-rendering="geometricPrecision" stroke-miterlimit="1.45" shape-rendering="geometricPrecision" transform="matrix(1,0,0,1,-371,-430)" stroke-linecap="butt">
      <path fill="none" d="M832.4222 784.487 L798.5222 784.487 L798.5222 865.887 L832.4222 865.887" clip-path="url(#clipPath2)"/>
      <text x="808.0997" font-size="17px" y="821.1777" clip-path="url(#clipPath2)" font-family="sans-serif" stroke="none" xml:space="preserve">Функция, вычисляющая луч</text>
      <text x="808.0997" font-size="17px" y="840.9668" clip-path="url(#clipPath2)" font-family="sans-serif" stroke="none" xml:space="preserve">по формуле 2.8 (ray: O, D)</text>
    </g>
    <g text-rendering="geometricPrecision" stroke-miterlimit="1.45" shape-rendering="geometricPrecision" transform="matrix(1,0,0,1,-371,-430)" stroke-linecap="butt">
      <rect fill="none" x="386.7805" width="365.5417" height="81.4" y="890.0415" clip-path="url(#clipPath2)"/>
      <path fill="none" d="M396.7805 890.0415 L396.7805 971.4415 M742.3222 890.0415 L742.3222 971.4415 M396.7805 890.0415 Z" clip-path="url(#clipPath2)"/>
      <text x="443.8443" font-size="17px" y="926.7322" clip-path="url(#clipPath2)" font-family="sans-serif" stroke="none" xml:space="preserve">cur_int = trace(camera, light,</text>
      <text x="481.2352" font-size="17px" y="946.5213" clip-path="url(#clipPath2)" font-family="sans-serif" stroke="none" xml:space="preserve">ray.O, ray.D, tree, d)</text>
    </g>
    <g text-rendering="geometricPrecision" stroke-miterlimit="1.45" shape-rendering="geometricPrecision" transform="matrix(1,0,0,1,-371,-430)" stroke-linecap="butt">
      <rect fill="none" x="386.7805" width="365.5417" height="81.4" y="995.596" clip-path="url(#clipPath2)"/>
      <path fill="none" d="M396.7805 995.596 L396.7805 1076.996 M742.3222 995.596 L742.3222 1076.996 M396.7805 995.596 Z" clip-path="url(#clipPath2)"/>
      <text x="430.2352" font-size="17px" y="1032.2867" clip-path="url(#clipPath2)" font-family="sans-serif" stroke="none" xml:space="preserve">Отобразить на экране пиксель</text>
      <text x="436.5521" font-size="17px" y="1052.0758" clip-path="url(#clipPath2)" font-family="sans-serif" stroke="none" xml:space="preserve">(i, j) с интенсивностью cur_int</text>
    </g>
    <g text-rendering="geometricPrecision" stroke-miterlimit="1.45" shape-rendering="geometricPrecision" transform="matrix(1,0,0,1,-371,-430)" stroke-linecap="butt">
      <rect x="386.7805" y="1312.2595" clip-path="url(#clipPath2)" fill="none" width="365.5417" rx="40.7" ry="40.7" height="81.4"/>
      <text x="541.7437" font-size="17px" y="1358.8447" clip-path="url(#clipPath2)" font-family="sans-serif" stroke="none" xml:space="preserve">Конец</text>
    </g>
    <g text-rendering="geometricPrecision" stroke-miterlimit="1.45" shape-rendering="geometricPrecision" transform="matrix(1,0,0,1,-371,-430)" stroke-linecap="butt">
      <path fill="none" d="M822.9222 890.0415 L798.5222 890.0415 L798.5222 971.4415 L822.9222 971.4415" clip-path="url(#clipPath2)"/>
      <text x="806.8597" font-size="17px" y="926.7322" clip-path="url(#clipPath2)" font-family="sans-serif" stroke="none" xml:space="preserve">Функция обработки</text>
      <text x="806.8597" font-size="17px" y="946.5213" clip-path="url(#clipPath2)" font-family="sans-serif" stroke="none" xml:space="preserve">отдельного луча</text>
    </g>
    <g stroke-linecap="butt" transform="matrix(1,0,0,1,-371,-430)" text-rendering="geometricPrecision" shape-rendering="geometricPrecision" stroke-dasharray="12,4" stroke-width="2" stroke-miterlimit="1.45">
      <path fill="none" d="M752.2934 513.138 L798.4982 513.138" clip-path="url(#clipPath2)"/>
    </g>
    <g text-rendering="geometricPrecision" stroke-miterlimit="1.45" shape-rendering="geometricPrecision" transform="matrix(1,0,0,1,-371,-430)" stroke-linecap="butt">
      <path fill="none" d="M569.5513 553.8503 L569.5513 564.5522" clip-path="url(#clipPath2)"/>
      <path d="M569.5513 572.5522 L574.5513 560.5522 L569.5513 563.5522 L564.5513 560.5522 Z" clip-path="url(#clipPath2)" stroke="none"/>
      <path fill="none" d="M569.5513 653.9377 L569.5513 670.9261" clip-path="url(#clipPath2)"/>
      <path d="M569.5513 678.9261 L574.5513 666.9261 L569.5513 669.9261 L564.5513 666.9261 Z" clip-path="url(#clipPath2)" stroke="none"/>
      <path fill="none" d="M569.5513 1182.5415 L569.5513 1198.707" clip-path="url(#clipPath2)"/>
      <path d="M569.5513 1206.707 L574.5513 1194.707 L569.5513 1197.707 L564.5513 1194.707 Z" clip-path="url(#clipPath2)" stroke="none"/>
      <path fill="none" d="M569.5513 760.3235 L569.5513 776.489" clip-path="url(#clipPath2)"/>
      <path d="M569.5513 784.489 L574.5513 772.489 L569.5513 775.489 L564.5513 772.489 Z" clip-path="url(#clipPath2)" stroke="none"/>
      <path fill="none" stroke-dasharray="12,4" d="M752.3263 825.187 L798.5298 825.187" stroke-width="2" clip-path="url(#clipPath2)"/>
      <path fill="none" d="M569.5513 865.8781 L569.5513 882.0435" clip-path="url(#clipPath2)"/>
      <path d="M569.5513 890.0435 L574.5513 878.0435 L569.5513 881.0435 L564.5513 878.0435 Z" clip-path="url(#clipPath2)" stroke="none"/>
      <path fill="none" d="M569.5513 971.4326 L569.5513 987.598" clip-path="url(#clipPath2)"/>
      <path d="M569.5513 995.598 L574.5513 983.598 L569.5513 986.598 L564.5513 983.598 Z" clip-path="url(#clipPath2)" stroke="none"/>
      <path fill="none" d="M569.5513 1076.9871 L569.5513 1093.1525" clip-path="url(#clipPath2)"/>
      <path d="M569.5513 1101.1525 L574.5513 1089.1525 L569.5513 1092.1525 L564.5513 1089.1525 Z" clip-path="url(#clipPath2)" stroke="none"/>
      <path fill="none" d="M569.5513 1288.0961 L569.5513 1304.2615" clip-path="url(#clipPath2)"/>
      <path d="M569.5513 1312.2615 L574.5513 1300.2615 L569.5513 1303.2615 L564.5513 1300.2615 Z" clip-path="url(#clipPath2)" stroke="none"/>
      <path fill="none" stroke-dasharray="12,4" d="M752.3306 930.7415 L798.4941 930.7415" stroke-width="2" clip-path="url(#clipPath2)"/>
    </g>
  </g>
</svg>
