<?xml version="1.0" encoding="UTF-8"?><svg xmlns="http://www.w3.org/2000/svg" xmlns:xlink="http://www.w3.org/1999/xlink" fill-opacity="1" color-rendering="auto" color-interpolation="auto" text-rendering="auto" stroke="black" stroke-linecap="square" width="837" stroke-miterlimit="10" shape-rendering="auto" stroke-opacity="1" fill="black" stroke-dasharray="none" font-weight="normal" stroke-width="1" height="1225" font-family="'Dialog'" font-style="normal" stroke-linejoin="miter" font-size="12px" stroke-dashoffset="0" image-rendering="auto">
  <!--Generated by ySVG 2.6-->
  <defs id="genericDefs"/>
  <g>
    <defs id="defs1">
      <clipPath clipPathUnits="userSpaceOnUse" id="clipPath1">
        <path d="M0 0 L837 0 L837 1225 L0 1225 L0 0 Z"/>
      </clipPath>
      <clipPath clipPathUnits="userSpaceOnUse" id="clipPath2">
        <path d="M319 -93 L1156 -93 L1156 1132 L319 1132 L319 -93 Z"/>
      </clipPath>
    </defs>
    <g fill="white" text-rendering="geometricPrecision" shape-rendering="geometricPrecision" transform="translate(-319,93)" stroke="white">
      <rect x="319" width="837" height="1225" y="-93" clip-path="url(#clipPath2)" stroke="none"/>
    </g>
    <g text-rendering="geometricPrecision" stroke-miterlimit="1.45" shape-rendering="geometricPrecision" transform="matrix(1,0,0,1,-319,93)" stroke-linecap="butt">
      <rect x="437.2288" y="-24.3908" clip-path="url(#clipPath2)" fill="none" width="286.7712" rx="40.7" ry="40.7" height="81.4"/>
      <text x="548.1501" font-size="17px" y="22.1945" clip-path="url(#clipPath2)" font-family="sans-serif" stroke="none" xml:space="preserve">Начало</text>
    </g>
    <g text-rendering="geometricPrecision" stroke-miterlimit="1.45" shape-rendering="geometricPrecision" transform="matrix(1,0,0,1,-319,93)" stroke-linecap="butt">
      <path fill="none" d="M818.0788 -77.3908 L772 -77.3908 L772 110.0092 L818.0788 110.0092" clip-path="url(#clipPath2)"/>
      <text x="795.0558" font-size="17px" y="-56.9618" clip-path="url(#clipPath2)" font-family="sans-serif" stroke="none" xml:space="preserve">hit_cyl</text>
      <text x="795.0558" font-size="17px" y="-37.1727" clip-path="url(#clipPath2)" font-family="sans-serif" stroke="none" xml:space="preserve">Входные данные:</text>
      <text x="795.0558" font-size="17px" y="-17.3837" clip-path="url(#clipPath2)" font-family="sans-serif" stroke="none" xml:space="preserve">O, D - начало, направление луча,</text>
      <text x="795.0558" font-size="17px" y="2.4054" clip-path="url(#clipPath2)" font-family="sans-serif" stroke="none" xml:space="preserve">tmin, tmax - мин., макс. значения t,</text>
      <text x="795.0558" font-size="17px" y="22.1945" clip-path="url(#clipPath2)" font-family="sans-serif" stroke="none" xml:space="preserve">h, r - высота, радиус основания ци-</text>
      <text x="795.0558" font-size="17px" y="41.9835" clip-path="url(#clipPath2)" font-family="sans-serif" stroke="none" xml:space="preserve">линдра/конуса</text>
      <text x="795.0558" font-size="17px" y="61.7726" clip-path="url(#clipPath2)" font-family="sans-serif" stroke="none" xml:space="preserve">s - флаг (1 - цилиндр, 0 - конус)</text>
      <text x="795.0558" font-size="17px" y="81.5617" clip-path="url(#clipPath2)" font-family="sans-serif" stroke="none" xml:space="preserve">Выходные данные:</text>
      <text x="795.0558" font-size="17px" y="101.3507" clip-path="url(#clipPath2)" font-family="sans-serif" stroke="none" xml:space="preserve">hitinfo - информация о пересечении</text>
    </g>
    <g text-rendering="geometricPrecision" stroke-miterlimit="1.45" shape-rendering="geometricPrecision" transform="matrix(1,0,0,1,-319,93)" stroke-linecap="butt">
      <path fill="none" d="M437.2289 178.9908 L724 178.9908 L724 260.3908 L437.2289 260.3908 Z" clip-path="url(#clipPath2)"/>
      <text x="511.6889" font-size="17px" y="215.6815" clip-path="url(#clipPath2)" font-family="sans-serif" stroke="none" xml:space="preserve">d = (s - 1) * D.z,</text>
      <text x="498.7148" font-size="17px" y="235.4706" clip-path="url(#clipPath2)" font-family="sans-serif" stroke="none" xml:space="preserve">f = 1 + (s - 1) * O.z</text>
    </g>
    <g text-rendering="geometricPrecision" stroke-miterlimit="1.45" shape-rendering="geometricPrecision" transform="matrix(1,0,0,1,-319,93)" stroke-linecap="butt">
      <path fill="none" d="M437.2289 280.6816 L724 280.6816 L724 362.0816 L437.2289 362.0816 Z" clip-path="url(#clipPath2)"/>
      <text x="440.9662" font-size="17px" y="307.4778" clip-path="url(#clipPath2)" font-family="sans-serif" stroke="none" xml:space="preserve">a = D.x * D.x + D.y * D.y +d * d,</text>
      <text x="444.245" font-size="17px" y="327.2668" clip-path="url(#clipPath2)" font-family="sans-serif" stroke="none" xml:space="preserve">b = O.x * D.x + O.y * D.y - f * d,</text>
      <text x="449.7816" font-size="17px" y="347.0559" clip-path="url(#clipPath2)" font-family="sans-serif" stroke="none" xml:space="preserve">c = O.x * O.x + O.y * O.y - f * f</text>
    </g>
    <g text-rendering="geometricPrecision" stroke-miterlimit="1.45" shape-rendering="geometricPrecision" transform="matrix(1,0,0,1,-319,93)" stroke-linecap="butt">
      <path fill="none" d="M437.2289 382.3724 L724 382.3724 L724 463.7724 L437.2289 463.7724 Z" clip-path="url(#clipPath2)"/>
      <text x="484.2216" font-size="17px" y="428.9576" clip-path="url(#clipPath2)" font-family="sans-serif" stroke="none" xml:space="preserve">discr = b * b - 4 * a * c</text>
    </g>
    <g text-rendering="geometricPrecision" stroke-miterlimit="1.45" shape-rendering="geometricPrecision" transform="matrix(1,0,0,1,-319,93)" stroke-linecap="butt">
      <path fill="none" d="M580.6144 499.5117 L726.7144 540.2117 L580.6144 580.9117 L434.5144 540.2117 Z" clip-path="url(#clipPath2)"/>
      <text x="537.8156" font-size="17px" y="546.097" clip-path="url(#clipPath2)" font-family="sans-serif" stroke="none" xml:space="preserve">discr &gt; 0?</text>
    </g>
    <g text-rendering="geometricPrecision" stroke-miterlimit="1.45" shape-rendering="geometricPrecision" transform="matrix(1,0,0,1,-319,93)" stroke-linecap="butt">
      <path fill="none" d="M663.7023 580.9117 L950.4734 580.9117 L950.4734 662.3118 L663.7023 662.3118 Z" clip-path="url(#clipPath2)"/>
      <text x="693.9565" font-size="17px" y="627.497" clip-path="url(#clipPath2)" font-family="sans-serif" stroke="none" xml:space="preserve">ts[0] = - a / b + sqrt(discr)</text>
    </g>
    <g text-rendering="geometricPrecision" stroke-miterlimit="1.45" shape-rendering="geometricPrecision" transform="matrix(1,0,0,1,-319,93)" stroke-linecap="butt">
      <path fill="none" d="M807.0878 692.3118 L950.4734 745.265 L807.0878 798.2181 L663.7023 745.265 Z" clip-path="url(#clipPath2)"/>
      <text x="750.2026" font-size="17px" y="731.3611" clip-path="url(#clipPath2)" font-family="sans-serif" stroke="none" xml:space="preserve">t_side &lt; tmin</text>
      <text x="798.3928" font-size="17px" y="751.1502" clip-path="url(#clipPath2)" font-family="sans-serif" stroke="none" xml:space="preserve">or</text>
      <text x="743.2009" font-size="17px" y="770.9393" clip-path="url(#clipPath2)" font-family="sans-serif" stroke="none" xml:space="preserve">t_side &gt; tmax?</text>
    </g>
    <g text-rendering="geometricPrecision" stroke-miterlimit="1.45" shape-rendering="geometricPrecision" transform="matrix(1,0,0,1,-319,93)" stroke-linecap="butt">
      <path fill="none" d="M835.9764 813.74 L1122.7476 813.74 L1122.7476 895.14 L835.9764 895.14 Z" clip-path="url(#clipPath2)"/>
      <text x="870.2855" font-size="17px" y="860.3253" clip-path="url(#clipPath2)" font-family="sans-serif" stroke="none" xml:space="preserve">ts[0] = - a / b - sqrt(discr)</text>
    </g>
    <g text-rendering="geometricPrecision" stroke-miterlimit="1.45" shape-rendering="geometricPrecision" transform="matrix(1,0,0,1,-319,93)" stroke-linecap="butt">
      <path fill="none" d="M437.2289 968.11 L724 968.11 L724 1049.51 L437.2289 1049.51 Z" clip-path="url(#clipPath2)"/>
      <text x="503.9857" font-size="17px" y="1004.8007" clip-path="url(#clipPath2)" font-family="sans-serif" stroke="none" xml:space="preserve">ts[1] = - O.z / D.z,</text>
      <text x="478.8427" font-size="17px" y="1024.5897" clip-path="url(#clipPath2)" font-family="sans-serif" stroke="none" xml:space="preserve">ts[2] = (s * s - O.z) / D.z</text>
    </g>
    <g text-rendering="geometricPrecision" stroke-miterlimit="1.45" shape-rendering="geometricPrecision" transform="matrix(1,0,0,1,-319,93)" stroke-linecap="butt">
      <path fill="none" d="M437.2289 77.3 L724 77.3 L724 158.7 L437.2289 158.7 Z" clip-path="url(#clipPath2)"/>
      <text x="483.5741" font-size="17px" y="113.9907" clip-path="url(#clipPath2)" font-family="sans-serif" stroke="none" xml:space="preserve">ts = array of float 0..2,</text>
      <text x="480.3534" font-size="17px" y="133.7798" clip-path="url(#clipPath2)" font-family="sans-serif" stroke="none" xml:space="preserve">for i in 0, 2: ts[i] = -100</text>
    </g>
    <g text-rendering="geometricPrecision" stroke-miterlimit="1.45" shape-rendering="geometricPrecision" transform="matrix(1,0,0,1,-319,93)" stroke-linecap="butt">
      <circle fill="none" r="20" clip-path="url(#clipPath2)" cx="580.6144" cy="1096.4073"/>
      <text x="574.7997" font-size="17px" y="1102.2926" clip-path="url(#clipPath2)" font-family="sans-serif" stroke="none" xml:space="preserve">A</text>
    </g>
    <g text-rendering="geometricPrecision" stroke-miterlimit="1.45" shape-rendering="geometricPrecision" transform="matrix(1,0,0,1,-319,93)" stroke-linecap="butt">
      <path fill="none" d="M724.0246 16.3092 L763.9742 16.3092" clip-path="url(#clipPath2)"/>
    </g>
    <g text-rendering="geometricPrecision" stroke-miterlimit="1.45" shape-rendering="geometricPrecision" transform="matrix(1,0,0,1,-319,93)" stroke-linecap="butt">
      <path d="M771.9742 16.3092 L759.9742 11.3092 L762.9742 16.3092 L759.9742 21.3092 Z" stroke="none" clip-path="url(#clipPath2)"/>
      <path fill="none" d="M580.6144 260.3572 L580.6144 272.7086" clip-path="url(#clipPath2)"/>
      <path d="M580.6144 280.7086 L585.6144 268.7086 L580.6144 271.7086 L575.6144 268.7086 Z" clip-path="url(#clipPath2)" stroke="none"/>
      <path fill="none" d="M580.6144 362.048 L580.6144 374.3994" clip-path="url(#clipPath2)"/>
      <path d="M580.6144 382.3994 L585.6144 370.3994 L580.6144 373.3994 L575.6144 370.3994 Z" clip-path="url(#clipPath2)" stroke="none"/>
      <path fill="none" d="M580.6144 463.7798 L580.6144 491.5237" clip-path="url(#clipPath2)"/>
      <path d="M580.6144 499.5237 L585.6144 487.5237 L580.6144 490.5237 L575.6144 487.5237 Z" clip-path="url(#clipPath2)" stroke="none"/>
      <path fill="none" d="M726.7219 540.2117 L807.0878 540.2117 L807.0878 572.9515" clip-path="url(#clipPath2)"/>
      <path d="M807.0878 580.9515 L812.0878 568.9515 L807.0878 571.9515 L802.0878 568.9515 Z" clip-path="url(#clipPath2)" stroke="none"/>
      <text x="761.1412" font-size="17px" y="527.8441" clip-path="url(#clipPath2)" font-family="sans-serif" stroke="none" xml:space="preserve">Да</text>
      <path fill="none" d="M807.0878 662.2955 L807.0878 684.3162" clip-path="url(#clipPath2)"/>
      <path d="M807.0878 692.3162 L812.0878 680.3162 L807.0878 683.3162 L802.0878 680.3162 Z" clip-path="url(#clipPath2)" stroke="none"/>
      <path fill="none" d="M950.4673 745.265 L979.3619 745.265 L979.3619 805.7393" clip-path="url(#clipPath2)"/>
      <path d="M979.3619 813.7393 L984.3619 801.7393 L979.3619 804.7393 L974.3619 801.7393 Z" clip-path="url(#clipPath2)" stroke="none"/>
      <text x="958.6465" font-size="17px" y="735.2226" clip-path="url(#clipPath2)" font-family="sans-serif" stroke="none" xml:space="preserve">Да</text>
      <path fill="none" d="M434.4946 540.2117 L334.9725 540.2117 L334.9725 940.2743 L580.6144 940.2743 L580.6144 960.0834" clip-path="url(#clipPath2)"/>
      <path d="M580.6144 968.0834 L585.6144 956.0834 L580.6144 959.0834 L575.6144 956.0834 Z" clip-path="url(#clipPath2)" stroke="none"/>
      <path fill="none" d="M979.3619 895.1685 L979.3619 920.2743 L807.0878 920.2743 L807.0878 940.2743 L580.6144 940.2743 L580.6144 960.117" clip-path="url(#clipPath2)"/>
      <path d="M580.6144 968.117 L585.6144 956.117 L580.6144 959.117 L575.6144 956.117 Z" clip-path="url(#clipPath2)" stroke="none"/>
      <path fill="none" d="M663.7289 745.265 L629.633 745.265 L629.633 920.2743 L807.0878 920.2743 L807.0878 940.2743 L580.6144 940.2743 L580.6144 960.1246" clip-path="url(#clipPath2)"/>
      <path d="M580.6144 968.1246 L585.6144 956.1246 L580.6144 959.1246 L575.6144 956.1246 Z" clip-path="url(#clipPath2)" stroke="none"/>
      <path fill="none" d="M580.6144 56.9756 L580.6144 69.327" clip-path="url(#clipPath2)"/>
      <path d="M580.6144 77.327 L585.6144 65.327 L580.6144 68.327 L575.6144 65.327 Z" clip-path="url(#clipPath2)" stroke="none"/>
      <path fill="none" d="M580.6144 158.6664 L580.6144 171.0178" clip-path="url(#clipPath2)"/>
      <path d="M580.6144 179.0178 L585.6144 167.0178 L580.6144 170.0178 L575.6144 167.0178 Z" clip-path="url(#clipPath2)" stroke="none"/>
      <path fill="none" d="M580.6144 1049.4863 L580.6144 1068.3834" clip-path="url(#clipPath2)"/>
      <path d="M580.6144 1076.3834 L585.6144 1064.3834 L580.6144 1067.3834 L575.6144 1064.3834 Z" clip-path="url(#clipPath2)" stroke="none"/>
    </g>
  </g>
</svg>
