<?xml version="1.0" encoding="UTF-8"?><svg xmlns="http://www.w3.org/2000/svg" xmlns:xlink="http://www.w3.org/1999/xlink" fill-opacity="1" color-rendering="auto" color-interpolation="auto" text-rendering="auto" stroke="black" stroke-linecap="square" width="1035" stroke-miterlimit="10" shape-rendering="auto" stroke-opacity="1" fill="black" stroke-dasharray="none" font-weight="normal" stroke-width="1" height="364" font-family="'Dialog'" font-style="normal" stroke-linejoin="miter" font-size="12px" stroke-dashoffset="0" image-rendering="auto">
  <!--Generated by ySVG 2.6-->
  <defs id="genericDefs"/>
  <g>
    <defs id="defs1">
      <clipPath clipPathUnits="userSpaceOnUse" id="clipPath1">
        <path d="M0 0 L1035 0 L1035 364 L0 364 L0 0 Z"/>
      </clipPath>
      <clipPath clipPathUnits="userSpaceOnUse" id="clipPath2">
        <path d="M-255 73 L780 73 L780 437 L-255 437 L-255 73 Z"/>
      </clipPath>
      <clipPath clipPathUnits="userSpaceOnUse" id="clipPath3">
        <path d="M-35 359 L-35 421 L151 421 L151 359 Z"/>
      </clipPath>
      <clipPath clipPathUnits="userSpaceOnUse" id="clipPath4">
        <path d="M161 212 L161 273 L347 273 L347 212 Z"/>
      </clipPath>
      <clipPath clipPathUnits="userSpaceOnUse" id="clipPath5">
        <path d="M-239 359 L-239 421 L-53 421 L-53 359 Z"/>
      </clipPath>
      <clipPath clipPathUnits="userSpaceOnUse" id="clipPath6">
        <path d="M161 88 L161 165 L347 165 L347 88 Z"/>
      </clipPath>
      <clipPath clipPathUnits="userSpaceOnUse" id="clipPath7">
        <path d="M168 359 L168 421 L354 421 L354 359 Z"/>
      </clipPath>
      <clipPath clipPathUnits="userSpaceOnUse" id="clipPath8">
        <path d="M373 359 L373 421 L559 421 L559 359 Z"/>
      </clipPath>
      <clipPath clipPathUnits="userSpaceOnUse" id="clipPath9">
        <path d="M577 361 L577 418 L763 418 L763 361 Z"/>
      </clipPath>
    </defs>
    <g fill="white" text-rendering="geometricPrecision" shape-rendering="geometricPrecision" transform="translate(255,-73)" stroke="white">
      <rect x="-255" width="1035" height="364" y="73" clip-path="url(#clipPath2)" stroke="none"/>
    </g>
    <g fill="rgb(244,244,244)" text-rendering="geometricPrecision" shape-rendering="geometricPrecision" transform="matrix(1,0,0,1,255,-73)" stroke="rgb(244,244,244)">
      <rect x="-34" width="184" height="60" y="360" clip-path="url(#clipPath2)" stroke="none"/>
      <rect x="-35" y="359" clip-path="url(#clipPath2)" fill="white" width="1" height="62" stroke="none"/>
      <rect x="-34" y="359" clip-path="url(#clipPath2)" fill="white" width="184" height="1" stroke="none"/>
      <rect x="-34" y="420" clip-path="url(#clipPath2)" fill="rgb(170,170,170)" width="185" height="1" stroke="none"/>
      <rect x="150" y="359" clip-path="url(#clipPath2)" fill="rgb(170,170,170)" width="1" height="61" stroke="none"/>
    </g>
    <g font-size="13px" stroke-linecap="butt" transform="matrix(1,0,0,1,255,-73)" text-rendering="geometricPrecision" font-family="sans-serif" shape-rendering="geometricPrecision" font-weight="bold" stroke-miterlimit="1.45">
      <text x="24.5812" xml:space="preserve" y="376.1877" clip-path="url(#clipPath3)" stroke="none">EditLight</text>
    </g>
    <g text-rendering="geometricPrecision" shape-rendering="geometricPrecision" transform="matrix(1,0,0,1,255,-73)">
      <line y2="384" fill="none" x1="-34" clip-path="url(#clipPath3)" x2="150" y1="384"/>
      <line y2="394" fill="none" x1="-34" clip-path="url(#clipPath3)" x2="150" y1="394"/>
      <text stroke-linecap="butt" x="-30.5328" y="410.3923" clip-path="url(#clipPath3)" font-family="sans-serif" stroke="none" stroke-miterlimit="1.45" xml:space="preserve">+ execute()</text>
      <rect x="162" y="213" clip-path="url(#clipPath2)" fill="rgb(244,244,244)" width="184" height="59" stroke="none"/>
      <rect x="161" y="212" clip-path="url(#clipPath2)" fill="white" width="1" height="61" stroke="none"/>
      <rect x="162" y="212" clip-path="url(#clipPath2)" fill="white" width="184" height="1" stroke="none"/>
      <rect x="162" y="272" clip-path="url(#clipPath2)" fill="rgb(170,170,170)" width="185" height="1" stroke="none"/>
      <rect x="346" y="212" clip-path="url(#clipPath2)" fill="rgb(170,170,170)" width="1" height="60" stroke="none"/>
    </g>
    <g font-size="13px" stroke-linecap="butt" transform="matrix(1,0,0,1,255,-73)" text-rendering="geometricPrecision" font-family="sans-serif" shape-rendering="geometricPrecision" font-weight="bold" stroke-miterlimit="1.45">
      <text x="195.9179" xml:space="preserve" y="229.6132" clip-path="url(#clipPath4)" stroke="none">SceneCommand</text>
    </g>
    <g text-rendering="geometricPrecision" shape-rendering="geometricPrecision" transform="matrix(1,0,0,1,255,-73)">
      <line y2="237" fill="none" x1="162" clip-path="url(#clipPath4)" x2="346" y1="237"/>
      <line y2="247" fill="none" x1="162" clip-path="url(#clipPath4)" x2="346" y1="247"/>
      <text stroke-linecap="butt" x="166.0454" y="263.8177" clip-path="url(#clipPath4)" font-family="sans-serif" stroke="none" stroke-miterlimit="1.45" xml:space="preserve">+ execute()</text>
      <rect x="-238" y="360" clip-path="url(#clipPath2)" fill="rgb(244,244,244)" width="184" height="60" stroke="none"/>
      <rect x="-239" y="359" clip-path="url(#clipPath2)" fill="white" width="1" height="62" stroke="none"/>
      <rect x="-238" y="359" clip-path="url(#clipPath2)" fill="white" width="184" height="1" stroke="none"/>
      <rect x="-238" y="420" clip-path="url(#clipPath2)" fill="rgb(170,170,170)" width="185" height="1" stroke="none"/>
      <rect x="-54" y="359" clip-path="url(#clipPath2)" fill="rgb(170,170,170)" width="1" height="61" stroke="none"/>
    </g>
    <g font-size="13px" stroke-linecap="butt" transform="matrix(1,0,0,1,255,-73)" text-rendering="geometricPrecision" font-family="sans-serif" shape-rendering="geometricPrecision" font-weight="bold" stroke-miterlimit="1.45">
      <text x="-187.5948" xml:space="preserve" y="376.1877" clip-path="url(#clipPath5)" stroke="none">DrawScene</text>
    </g>
    <g text-rendering="geometricPrecision" shape-rendering="geometricPrecision" transform="matrix(1,0,0,1,255,-73)">
      <line y2="384" fill="none" x1="-238" clip-path="url(#clipPath5)" x2="-54" y1="384"/>
      <line y2="394" fill="none" x1="-238" clip-path="url(#clipPath5)" x2="-54" y1="394"/>
      <text stroke-linecap="butt" x="-234.9234" y="410.3923" clip-path="url(#clipPath5)" font-family="sans-serif" stroke="none" stroke-miterlimit="1.45" xml:space="preserve">+ execute()</text>
      <rect x="162" y="89" clip-path="url(#clipPath2)" fill="rgb(244,244,244)" width="184" height="75" stroke="none"/>
      <rect x="161" y="88" clip-path="url(#clipPath2)" fill="white" width="1" height="77" stroke="none"/>
      <rect x="162" y="88" clip-path="url(#clipPath2)" fill="white" width="184" height="1" stroke="none"/>
      <rect x="162" y="164" clip-path="url(#clipPath2)" fill="rgb(170,170,170)" width="185" height="1" stroke="none"/>
      <rect x="346" y="88" clip-path="url(#clipPath2)" fill="rgb(170,170,170)" width="1" height="76" stroke="none"/>
    </g>
    <g font-size="13px" stroke-linecap="butt" transform="matrix(1,0,0,1,255,-73)" text-rendering="geometricPrecision" font-family="sans-serif" shape-rendering="geometricPrecision" font-weight="bold" stroke-miterlimit="1.45">
      <text x="200.2788" xml:space="preserve" y="105.6132" clip-path="url(#clipPath6)" stroke="none">BaseCommand</text>
    </g>
    <g text-rendering="geometricPrecision" shape-rendering="geometricPrecision" transform="matrix(1,0,0,1,255,-73)">
      <line y2="113" fill="none" x1="162" clip-path="url(#clipPath6)" x2="346" y1="113"/>
      <line y2="123" fill="none" x1="162" clip-path="url(#clipPath6)" x2="346" y1="123"/>
      <text stroke-linecap="butt" x="166.0454" y="139.8177" clip-path="url(#clipPath6)" font-family="sans-serif" stroke="none" stroke-miterlimit="1.45" xml:space="preserve">+ execute()</text>
      <text stroke-linecap="butt" x="166.0454" y="153.7865" clip-path="url(#clipPath6)" font-family="sans-serif" stroke="none" stroke-miterlimit="1.45" xml:space="preserve">+ set_handler()</text>
      <rect x="169" y="360" clip-path="url(#clipPath2)" fill="rgb(244,244,244)" width="184" height="60" stroke="none"/>
      <rect x="168" y="359" clip-path="url(#clipPath2)" fill="white" width="1" height="62" stroke="none"/>
      <rect x="169" y="359" clip-path="url(#clipPath2)" fill="white" width="184" height="1" stroke="none"/>
      <rect x="169" y="420" clip-path="url(#clipPath2)" fill="rgb(170,170,170)" width="185" height="1" stroke="none"/>
      <rect x="353" y="359" clip-path="url(#clipPath2)" fill="rgb(170,170,170)" width="1" height="61" stroke="none"/>
    </g>
    <g font-size="13px" stroke-linecap="butt" transform="matrix(1,0,0,1,255,-73)" text-rendering="geometricPrecision" font-family="sans-serif" shape-rendering="geometricPrecision" font-weight="bold" stroke-miterlimit="1.45">
      <text x="223.9541" xml:space="preserve" y="376.1877" clip-path="url(#clipPath7)" stroke="none">EditObject</text>
    </g>
    <g text-rendering="geometricPrecision" shape-rendering="geometricPrecision" transform="matrix(1,0,0,1,255,-73)">
      <line y2="384" fill="none" x1="169" clip-path="url(#clipPath7)" x2="354" y1="384"/>
      <line y2="394" fill="none" x1="169" clip-path="url(#clipPath7)" x2="354" y1="394"/>
      <text stroke-linecap="butt" x="173.8579" y="410.3923" clip-path="url(#clipPath7)" font-family="sans-serif" stroke="none" stroke-miterlimit="1.45" xml:space="preserve">+ execute()</text>
      <rect x="374" y="360" clip-path="url(#clipPath2)" fill="rgb(244,244,244)" width="184" height="60" stroke="none"/>
      <rect x="373" y="359" clip-path="url(#clipPath2)" fill="white" width="1" height="62" stroke="none"/>
      <rect x="374" y="359" clip-path="url(#clipPath2)" fill="white" width="184" height="1" stroke="none"/>
      <rect x="374" y="420" clip-path="url(#clipPath2)" fill="rgb(170,170,170)" width="185" height="1" stroke="none"/>
      <rect x="558" y="359" clip-path="url(#clipPath2)" fill="rgb(170,170,170)" width="1" height="61" stroke="none"/>
    </g>
    <g font-size="13px" stroke-linecap="butt" transform="matrix(1,0,0,1,255,-73)" text-rendering="geometricPrecision" font-family="sans-serif" shape-rendering="geometricPrecision" font-weight="bold" stroke-miterlimit="1.45">
      <text x="429.3412" xml:space="preserve" y="376.1877" clip-path="url(#clipPath8)" stroke="none">EditMirror</text>
    </g>
    <g text-rendering="geometricPrecision" shape-rendering="geometricPrecision" transform="matrix(1,0,0,1,255,-73)">
      <line y2="384" fill="none" x1="374" clip-path="url(#clipPath8)" x2="558" y1="384"/>
      <line y2="394" fill="none" x1="374" clip-path="url(#clipPath8)" x2="558" y1="394"/>
      <text stroke-linecap="butt" x="378.2485" y="410.3923" clip-path="url(#clipPath8)" font-family="sans-serif" stroke="none" stroke-miterlimit="1.45" xml:space="preserve">+ execute()</text>
      <rect x="578" y="362" clip-path="url(#clipPath2)" fill="rgb(244,244,244)" width="184" height="55" stroke="none"/>
      <rect x="577" y="361" clip-path="url(#clipPath2)" fill="white" width="1" height="57" stroke="none"/>
      <rect x="578" y="361" clip-path="url(#clipPath2)" fill="white" width="184" height="1" stroke="none"/>
      <rect x="578" y="417" clip-path="url(#clipPath2)" fill="rgb(170,170,170)" width="185" height="1" stroke="none"/>
      <rect x="762" y="361" clip-path="url(#clipPath2)" fill="rgb(170,170,170)" width="1" height="56" stroke="none"/>
    </g>
    <g font-size="13px" stroke-linecap="butt" transform="matrix(1,0,0,1,255,-73)" text-rendering="geometricPrecision" font-family="sans-serif" shape-rendering="geometricPrecision" font-weight="bold" stroke-miterlimit="1.45">
      <text x="584.6391" xml:space="preserve" y="378.6877" clip-path="url(#clipPath9)" stroke="none">MoveAndRotateCamera</text>
    </g>
    <g text-rendering="geometricPrecision" shape-rendering="geometricPrecision" transform="matrix(1,0,0,1,255,-73)">
      <line y2="386" fill="none" x1="578" clip-path="url(#clipPath9)" x2="763" y1="386"/>
      <line y2="396" fill="none" x1="578" clip-path="url(#clipPath9)" x2="763" y1="396"/>
      <text stroke-linecap="butt" x="582.6391" y="412.8923" clip-path="url(#clipPath9)" font-family="sans-serif" stroke="none" stroke-miterlimit="1.45" xml:space="preserve">+ execute()</text>
      <path fill="none" stroke-miterlimit="1.45" d="M57.7668 359.0972 L57.7668 320.8336 L262.1574 320.8336 L262.1219 289.5291" clip-path="url(#clipPath2)" stroke-linecap="butt"/>
    </g>
    <g stroke-linecap="butt" transform="matrix(1,0,0,1,255,-73)" fill="white" text-rendering="geometricPrecision" shape-rendering="geometricPrecision" stroke="white" stroke-miterlimit="1.45">
      <path d="M262.1049 274.5291 L256.1231 290.5359 L268.1231 290.5223 Z" stroke="none" clip-path="url(#clipPath2)"/>
      <path fill="none" d="M262.1049 274.5291 L256.1231 290.5359 L268.1231 290.5223 Z" clip-path="url(#clipPath2)" stroke="black"/>
      <path fill="none" d="M-146.6238 359.0972 L-146.6238 320.8336 L262.0698 320.8336 L262.0698 289.5291" clip-path="url(#clipPath2)" stroke="black"/>
      <path d="M262.0698 274.5291 L256.0698 290.5291 L268.0698 290.5291 Z" clip-path="url(#clipPath2)" stroke="none"/>
      <path fill="none" d="M262.0698 274.5291 L256.0698 290.5291 L268.0698 290.5291 Z" clip-path="url(#clipPath2)" stroke="black"/>
      <path fill="none" d="M260.6732 212.5355 L260.6732 181.5135" clip-path="url(#clipPath2)" stroke="black"/>
      <path d="M260.6732 166.5135 L254.6732 182.5135 L266.6732 182.5135 Z" clip-path="url(#clipPath2)" stroke="none"/>
      <path fill="none" d="M260.6732 166.5135 L254.6732 182.5135 L266.6732 182.5135 Z" clip-path="url(#clipPath2)" stroke="black"/>
      <path fill="none" d="M262.1389 359.0954 L262.0973 289.5493" clip-path="url(#clipPath2)" stroke="black"/>
      <path d="M262.0883 274.5493 L256.0979 290.5529 L268.0979 290.5457 Z" clip-path="url(#clipPath2)" stroke="none"/>
      <path fill="none" d="M262.0883 274.5493 L256.0979 290.5529 L268.0979 290.5457 Z" clip-path="url(#clipPath2)" stroke="black"/>
      <path fill="none" d="M466.548 359.0972 L466.548 320.8336 L262.0802 320.8336 L262.0486 289.5529" clip-path="url(#clipPath2)" stroke="black"/>
      <path d="M262.0334 274.5529 L256.0496 290.5589 L268.0496 290.5468 Z" clip-path="url(#clipPath2)" stroke="none"/>
      <path fill="none" d="M262.0334 274.5529 L256.0496 290.5589 L268.0496 290.5468 Z" clip-path="url(#clipPath2)" stroke="black"/>
      <path fill="none" d="M670.9387 361.6007 L670.9387 320.8336 L262.1574 320.8336 L262.108 289.5345" clip-path="url(#clipPath2)" stroke="black"/>
      <path d="M262.0843 274.5345 L256.1096 290.5439 L268.1096 290.525 Z" clip-path="url(#clipPath2)" stroke="none"/>
      <path fill="none" d="M262.0843 274.5345 L256.1096 290.5439 L268.1096 290.525 Z" clip-path="url(#clipPath2)" stroke="black"/>
    </g>
  </g>
</svg>
