<?xml version="1.0" encoding="UTF-8"?><svg xmlns="http://www.w3.org/2000/svg" xmlns:xlink="http://www.w3.org/1999/xlink" fill-opacity="1" color-rendering="auto" color-interpolation="auto" text-rendering="auto" stroke="black" stroke-linecap="square" width="1334" stroke-miterlimit="10" shape-rendering="auto" stroke-opacity="1" fill="black" stroke-dasharray="none" font-weight="normal" stroke-width="1" height="1810" font-family="'Dialog'" font-style="normal" stroke-linejoin="miter" font-size="12px" stroke-dashoffset="0" image-rendering="auto">
  <!--Generated by ySVG 2.6-->
  <defs id="genericDefs"/>
  <g>
    <defs id="defs1">
      <clipPath clipPathUnits="userSpaceOnUse" id="clipPath1">
        <path d="M0 0 L1334 0 L1334 1810 L0 1810 L0 0 Z"/>
      </clipPath>
      <clipPath clipPathUnits="userSpaceOnUse" id="clipPath2">
        <path d="M368 186 L1702 186 L1702 1996 L368 1996 L368 186 Z"/>
      </clipPath>
    </defs>
    <g fill="white" text-rendering="geometricPrecision" shape-rendering="geometricPrecision" transform="translate(-368,-186)" stroke="white">
      <rect x="368" width="1334" height="1810" y="186" clip-path="url(#clipPath2)" stroke="none"/>
    </g>
    <g text-rendering="geometricPrecision" stroke-miterlimit="1.45" shape-rendering="geometricPrecision" transform="matrix(1,0,0,1,-368,-186)" stroke-linecap="butt">
      <rect x="527.2" y="275.3209" clip-path="url(#clipPath2)" fill="none" width="292.2" rx="40.7" ry="40.7" height="81.4"/>
      <text x="640.8356" font-size="17px" y="321.9061" clip-path="url(#clipPath2)" font-family="sans-serif" stroke="none" xml:space="preserve">Начало</text>
    </g>
    <g text-rendering="geometricPrecision" stroke-miterlimit="1.45" shape-rendering="geometricPrecision" transform="matrix(1,0,0,1,-368,-186)" stroke-linecap="butt">
      <path fill="none" d="M914.6383 201.4537 L865.6 201.4537 L865.6 430.588 L914.6383 430.588" clip-path="url(#clipPath2)"/>
      <text x="882.6887" font-size="17px" y="232.8553" clip-path="url(#clipPath2)" font-family="sans-serif" stroke="none" xml:space="preserve">(hit_kdtree) Входные данные:</text>
      <text x="882.6887" font-size="17px" y="252.6444" clip-path="url(#clipPath2)" font-family="sans-serif" stroke="none" xml:space="preserve">O - начало луча, D - направление луча,</text>
      <text x="882.6887" font-size="17px" y="272.4334" clip-path="url(#clipPath2)" font-family="sans-serif" stroke="none" xml:space="preserve">CurNode - текущий узел</text>
      <text x="882.6887" font-size="17px" y="292.2225" clip-path="url(#clipPath2)" font-family="sans-serif" stroke="none" xml:space="preserve">tmin, tmax - минимальный,</text>
      <text x="882.6887" font-size="17px" y="312.0116" clip-path="url(#clipPath2)" font-family="sans-serif" stroke="none" xml:space="preserve">максимальный параметры поиска</text>
      <text x="882.6887" font-size="17px" y="331.8006" clip-path="url(#clipPath2)" font-family="sans-serif" stroke="none" xml:space="preserve">box - текущий ограничивающий</text>
      <text x="882.6887" font-size="17px" y="351.5897" clip-path="url(#clipPath2)" font-family="sans-serif" stroke="none" xml:space="preserve">параллелепипед (MIN, MAX - точки)</text>
      <text x="882.6887" font-size="17px" y="371.3788" clip-path="url(#clipPath2)" font-family="sans-serif" stroke="none" xml:space="preserve">left, right - дочерние узлы CurNode</text>
      <text x="882.6887" font-size="17px" y="391.1678" clip-path="url(#clipPath2)" font-family="sans-serif" stroke="none" xml:space="preserve">Выходные данные:</text>
      <text x="882.6887" font-size="17px" y="410.9569" clip-path="url(#clipPath2)" font-family="sans-serif" stroke="none" xml:space="preserve">cur_hitinfo - информация о пересечении</text>
    </g>
    <g text-rendering="geometricPrecision" stroke-miterlimit="1.45" shape-rendering="geometricPrecision" transform="matrix(1,0,0,1,-368,-186)" stroke-linecap="butt">
      <rect fill="none" x="527.2" width="292.2" height="81.4" y="408.0044" clip-path="url(#clipPath2)"/>
      <path fill="none" d="M537.2 408.0044 L537.2 489.4044 M809.4 408.0044 L809.4 489.4044 M537.2 408.0044 Z" clip-path="url(#clipPath2)"/>
      <text x="547.8129" font-size="17px" y="444.6951" clip-path="url(#clipPath2)" font-family="sans-serif" stroke="none" xml:space="preserve">intersect_box = hit_box(O, D,</text>
      <text x="592.7534" font-size="17px" y="464.4842" clip-path="url(#clipPath2)" font-family="sans-serif" stroke="none" xml:space="preserve">box.MIN, box.MAX)</text>
    </g>
    <g text-rendering="geometricPrecision" stroke-miterlimit="1.45" shape-rendering="geometricPrecision" transform="matrix(1,0,0,1,-368,-186)" stroke-linecap="butt">
      <path fill="none" d="M673.3 646.8699 L819.4 687.5699 L673.3 728.2699 L527.2 687.5699 Z" clip-path="url(#clipPath2)"/>
      <text x="581.4726" font-size="17px" y="693.4552" clip-path="url(#clipPath2)" font-family="sans-serif" stroke="none" xml:space="preserve">intersect_box = true?</text>
    </g>
    <g text-rendering="geometricPrecision" stroke-miterlimit="1.45" shape-rendering="geometricPrecision" transform="matrix(1,0,0,1,-368,-186)" stroke-linecap="butt">
      <path fill="none" d="M705.6667 754.1019 L997.8666 754.1019 L997.8666 835.502 L705.6667 835.502 Z" clip-path="url(#clipPath2)"/>
      <text x="807.9385" font-size="17px" y="790.7927" clip-path="url(#clipPath2)" font-family="sans-serif" stroke="none" xml:space="preserve">hit = false</text>
      <text x="784.3311" font-size="17px" y="810.5817" clip-path="url(#clipPath2)" font-family="sans-serif" stroke="none" xml:space="preserve">hitinfo.t = tmax</text>
    </g>
    <g text-rendering="geometricPrecision" stroke-miterlimit="1.45" shape-rendering="geometricPrecision" transform="matrix(1,0,0,1,-368,-186)" stroke-linecap="butt">
      <path fill="none" d="M1217.9062 614.2981 L1364.0062 654.9981 L1217.9062 695.6981 L1071.8063 654.9981 Z" clip-path="url(#clipPath2)"/>
      <text x="1168.0476" font-size="17px" y="660.8834" clip-path="url(#clipPath2)" font-family="sans-serif" stroke="none" xml:space="preserve">left != null?</text>
    </g>
    <g text-rendering="geometricPrecision" stroke-miterlimit="1.45" shape-rendering="geometricPrecision" transform="matrix(1,0,0,1,-368,-186)" stroke-linecap="butt">
      <rect fill="none" x="1237.9062" width="292.2" height="81.4" y="712.788" clip-path="url(#clipPath2)"/>
      <path fill="none" d="M1247.9062 712.788 L1247.9062 794.188 M1520.1062 712.788 L1520.1062 794.188 M1247.9062 712.788 Z" clip-path="url(#clipPath2)"/>
      <text x="1290.913" font-size="17px" y="749.4787" clip-path="url(#clipPath2)" font-family="sans-serif" stroke="none" xml:space="preserve">cur_hitinfo = hit(O, D,</text>
      <text x="1314.7528" font-size="17px" y="769.2678" clip-path="url(#clipPath2)" font-family="sans-serif" stroke="none" xml:space="preserve">left, tmin, tmax)</text>
    </g>
    <g text-rendering="geometricPrecision" stroke-miterlimit="1.45" shape-rendering="geometricPrecision" transform="matrix(1,0,0,1,-368,-186)" stroke-linecap="butt">
      <path fill="none" d="M1384.0062 816.8981 L1530.1062 857.5981 L1384.0062 898.2981 L1237.9062 857.5981 Z" clip-path="url(#clipPath2)"/>
      <text x="1310.6979" font-size="17px" y="863.4833" clip-path="url(#clipPath2)" font-family="sans-serif" stroke="none" xml:space="preserve">cur_hitinfo.t &gt; 0?</text>
    </g>
    <g text-rendering="geometricPrecision" stroke-miterlimit="1.45" shape-rendering="geometricPrecision" transform="matrix(1,0,0,1,-368,-186)" stroke-linecap="butt">
      <path fill="none" d="M1394.6312 908.7668 L1686.8313 908.7668 L1686.8313 990.1669 L1394.6312 990.1669 Z" clip-path="url(#clipPath2)"/>
      <text x="1453.6519" font-size="17px" y="945.4576" clip-path="url(#clipPath2)" font-family="sans-serif" stroke="none" xml:space="preserve">hitinfo = cur_hitinfo,</text>
      <text x="1499.6797" font-size="17px" y="965.2466" clip-path="url(#clipPath2)" font-family="sans-serif" stroke="none" xml:space="preserve">hit = true</text>
    </g>
    <g text-rendering="geometricPrecision" stroke-miterlimit="1.45" shape-rendering="geometricPrecision" transform="matrix(1,0,0,1,-368,-186)" stroke-linecap="butt">
      <path fill="none" d="M1217.9062 1062.1101 L1364.0062 1102.8101 L1217.9062 1143.51 L1071.8063 1102.8101 Z" clip-path="url(#clipPath2)"/>
      <text x="1161.9922" font-size="17px" y="1108.6953" clip-path="url(#clipPath2)" font-family="sans-serif" stroke="none" xml:space="preserve">right != null?</text>
    </g>
    <g text-rendering="geometricPrecision" stroke-miterlimit="1.45" shape-rendering="geometricPrecision" transform="matrix(1,0,0,1,-368,-186)" stroke-linecap="butt">
      <rect fill="none" x="1237.9062" width="292.2" height="81.4" y="1156.7132" clip-path="url(#clipPath2)"/>
      <path fill="none" d="M1247.9062 1156.7131 L1247.9062 1238.1132 M1520.1062 1156.7131 L1520.1062 1238.1132 M1247.9062 1156.7131 Z" clip-path="url(#clipPath2)"/>
      <text x="1290.913" font-size="17px" y="1193.4039" clip-path="url(#clipPath2)" font-family="sans-serif" stroke="none" xml:space="preserve">cur_hitinfo = hit(O, D,</text>
      <text x="1308.6974" font-size="17px" y="1213.193" clip-path="url(#clipPath2)" font-family="sans-serif" stroke="none" xml:space="preserve">right, tmin, tmax)</text>
    </g>
    <g text-rendering="geometricPrecision" stroke-miterlimit="1.45" shape-rendering="geometricPrecision" transform="matrix(1,0,0,1,-368,-186)" stroke-linecap="butt">
      <path fill="none" d="M1384.0062 1260.8234 L1530.1062 1301.5233 L1384.0062 1342.2234 L1237.9062 1301.5233 Z" clip-path="url(#clipPath2)"/>
      <text x="1310.6979" font-size="17px" y="1307.4086" clip-path="url(#clipPath2)" font-family="sans-serif" stroke="none" xml:space="preserve">cur_hitinfo.t &gt; 0?</text>
    </g>
    <g text-rendering="geometricPrecision" stroke-miterlimit="1.45" shape-rendering="geometricPrecision" transform="matrix(1,0,0,1,-368,-186)" stroke-linecap="butt">
      <path fill="none" d="M1394.6312 1354.6461 L1686.8313 1354.6461 L1686.8313 1436.0461 L1394.6312 1436.0461 Z" clip-path="url(#clipPath2)"/>
      <text x="1453.6519" font-size="17px" y="1391.3369" clip-path="url(#clipPath2)" font-family="sans-serif" stroke="none" xml:space="preserve">hitinfo = cur_hitinfo,</text>
      <text x="1499.6797" font-size="17px" y="1411.126" clip-path="url(#clipPath2)" font-family="sans-serif" stroke="none" xml:space="preserve">hit = true</text>
    </g>
    <g text-rendering="geometricPrecision" stroke-miterlimit="1.45" shape-rendering="geometricPrecision" transform="matrix(1,0,0,1,-368,-186)" stroke-linecap="butt">
      <circle fill="none" r="20" clip-path="url(#clipPath2)" cx="851.7667" cy="881.334"/>
      <text x="845.952" font-size="17px" y="887.2192" clip-path="url(#clipPath2)" font-family="sans-serif" stroke="none" xml:space="preserve">A</text>
    </g>
    <g text-rendering="geometricPrecision" stroke-miterlimit="1.45" shape-rendering="geometricPrecision" transform="matrix(1,0,0,1,-368,-186)" stroke-linecap="butt">
      <circle fill="none" r="20" clip-path="url(#clipPath2)" cx="851.7667" cy="938.0158"/>
      <text x="845.9354" font-size="17px" y="943.901" clip-path="url(#clipPath2)" font-family="sans-serif" stroke="none" xml:space="preserve">Б</text>
    </g>
    <g text-rendering="geometricPrecision" stroke-miterlimit="1.45" shape-rendering="geometricPrecision" transform="matrix(1,0,0,1,-368,-186)" stroke-linecap="butt">
      <circle fill="none" r="20" clip-path="url(#clipPath2)" cx="1217.9062" cy="559.4153"/>
      <text x="1212.0916" font-size="17px" y="565.3005" clip-path="url(#clipPath2)" font-family="sans-serif" stroke="none" xml:space="preserve">A</text>
    </g>
    <g text-rendering="geometricPrecision" stroke-miterlimit="1.45" shape-rendering="geometricPrecision" transform="matrix(1,0,0,1,-368,-186)" stroke-linecap="butt">
      <circle fill="none" r="20" clip-path="url(#clipPath2)" cx="1217.9062" cy="1549.734"/>
      <text x="1212.075" font-size="17px" y="1555.6193" clip-path="url(#clipPath2)" font-family="sans-serif" stroke="none" xml:space="preserve">Б</text>
    </g>
    <g text-rendering="geometricPrecision" stroke-miterlimit="1.45" shape-rendering="geometricPrecision" transform="matrix(1,0,0,1,-368,-186)" stroke-linecap="butt">
      <path fill="none" d="M851.7667 982.1564 L997.8666 1022.8564 L851.7667 1063.5564 L705.6667 1022.8564 Z" clip-path="url(#clipPath2)"/>
      <text x="806.2037" font-size="17px" y="1028.7417" clip-path="url(#clipPath2)" font-family="sans-serif" stroke="none" xml:space="preserve">hit = true?</text>
    </g>
    <g text-rendering="geometricPrecision" stroke-miterlimit="1.45" shape-rendering="geometricPrecision" transform="matrix(1,0,0,1,-368,-186)" stroke-linecap="butt">
      <path fill="none" d="M527.2 540.688 L819.4 540.688 L819.4 622.088 L527.2 622.088 Z" clip-path="url(#clipPath2)"/>
      <text x="590.6201" font-size="17px" y="587.2732" clip-path="url(#clipPath2)" font-family="sans-serif" stroke="none" xml:space="preserve">cur_hitinfo.t = -100</text>
    </g>
    <g text-rendering="geometricPrecision" stroke-miterlimit="1.45" shape-rendering="geometricPrecision" transform="matrix(1,0,0,1,-368,-186)" stroke-linecap="butt">
      <path fill="none" d="M537.2 1109.0159 L809.4 1109.0159 L819.4 1119.0159 L819.4 1190.4159 L527.2 1190.4159 L527.2 1119.0159 Z" clip-path="url(#clipPath2)"/>
      <text x="530.9084" font-size="17px" y="1155.6011" clip-path="url(#clipPath2)" font-family="sans-serif" stroke="none" xml:space="preserve">Цикл по i от 1 до size с шагом 1</text>
    </g>
    <g text-rendering="geometricPrecision" stroke-miterlimit="1.45" shape-rendering="geometricPrecision" transform="matrix(1,0,0,1,-368,-186)" stroke-linecap="butt">
      <path fill="none" d="M527.2 1597.7345 L819.4 1597.7345 L819.4 1669.1345 L809.4 1679.1345 L537.2 1679.1345 L527.2 1669.1345 Z" clip-path="url(#clipPath2)"/>
      <text x="597.1818" font-size="17px" y="1644.3198" clip-path="url(#clipPath2)" font-family="sans-serif" stroke="none" xml:space="preserve">Конец цикла по i</text>
    </g>
    <g text-rendering="geometricPrecision" stroke-miterlimit="1.45" shape-rendering="geometricPrecision" transform="matrix(1,0,0,1,-368,-186)" stroke-linecap="butt">
      <rect fill="none" x="527.2" width="292.2" height="81.4" y="1232.9159" clip-path="url(#clipPath2)"/>
      <path fill="none" d="M537.2 1232.9159 L537.2 1314.3158 M809.4 1232.9159 L809.4 1314.3158 M537.2 1232.9159 Z" clip-path="url(#clipPath2)"/>
      <text x="569.4697" font-size="17px" y="1269.6066" clip-path="url(#clipPath2)" font-family="sans-serif" stroke="none" xml:space="preserve">cur_hitinfo = hit_tri(O, D</text>
      <text x="578.3474" font-size="17px" y="1289.3956" clip-path="url(#clipPath2)" font-family="sans-serif" stroke="none" xml:space="preserve">objects[i], tmin, tmax)</text>
    </g>
    <g text-rendering="geometricPrecision" stroke-miterlimit="1.45" shape-rendering="geometricPrecision" transform="matrix(1,0,0,1,-368,-186)" stroke-linecap="butt">
      <path fill="none" d="M673.3 1336.5033 L819.4 1377.2034 L673.3 1417.9033 L527.2 1377.2034 Z" clip-path="url(#clipPath2)"/>
      <text x="599.9916" font-size="17px" y="1383.0886" clip-path="url(#clipPath2)" font-family="sans-serif" stroke="none" xml:space="preserve">cur_hitinfo.t &gt; 0?</text>
    </g>
    <g text-rendering="geometricPrecision" stroke-miterlimit="1.45" shape-rendering="geometricPrecision" transform="matrix(1,0,0,1,-368,-186)" stroke-linecap="butt">
      <path fill="none" d="M705.6667 1447.347 L997.8666 1447.347 L997.8666 1528.7471 L705.6667 1528.7471 Z" clip-path="url(#clipPath2)"/>
      <text x="767.3892" font-size="17px" y="1493.9323" clip-path="url(#clipPath2)" font-family="sans-serif" stroke="none" xml:space="preserve">hitinfo = cur_hitinfo</text>
    </g>
    <g text-rendering="geometricPrecision" stroke-miterlimit="1.45" shape-rendering="geometricPrecision" transform="matrix(1,0,0,1,-368,-186)" stroke-linecap="butt">
      <path fill="none" d="M547.957 1762.7188 L819.4 1762.7188 L798.643 1844.1188 L527.2 1844.1188 Z" clip-path="url(#clipPath2)"/>
      <text x="588.7648" font-size="17px" y="1809.304" clip-path="url(#clipPath2)" font-family="sans-serif" stroke="none" xml:space="preserve">Вернуть cur_hitinfo</text>
    </g>
    <g text-rendering="geometricPrecision" stroke-miterlimit="1.45" shape-rendering="geometricPrecision" transform="matrix(1,0,0,1,-368,-186)" stroke-linecap="butt">
      <rect x="527.2" y="1899.1188" clip-path="url(#clipPath2)" fill="none" width="292.2" rx="40.7" ry="40.7" height="81.4"/>
      <text x="645.4924" font-size="17px" y="1945.704" clip-path="url(#clipPath2)" font-family="sans-serif" stroke="none" xml:space="preserve">Конец</text>
    </g>
    <g stroke-linecap="butt" transform="matrix(1,0,0,1,-368,-186)" text-rendering="geometricPrecision" shape-rendering="geometricPrecision" stroke-dasharray="12,4" stroke-width="2" stroke-miterlimit="1.45">
      <path fill="none" d="M819.3967 316.0208 L865.5781 316.0208" clip-path="url(#clipPath2)"/>
    </g>
    <g text-rendering="geometricPrecision" stroke-miterlimit="1.45" shape-rendering="geometricPrecision" transform="matrix(1,0,0,1,-368,-186)" stroke-linecap="butt">
      <path fill="none" d="M673.3 356.7394 L673.3 399.9758" clip-path="url(#clipPath2)"/>
      <path d="M673.3 407.9758 L678.3 395.9758 L673.3 398.9758 L668.3 395.9758 Z" clip-path="url(#clipPath2)" stroke="none"/>
      <path fill="none" d="M819.3934 687.5699 L851.7667 687.5699 L851.7667 746.0925" clip-path="url(#clipPath2)"/>
      <path d="M851.7667 754.0925 L856.7667 742.0925 L851.7667 745.0925 L846.7667 742.0925 Z" clip-path="url(#clipPath2)" stroke="none"/>
      <text x="829.9686" font-size="17px" y="678.5742" clip-path="url(#clipPath2)" font-family="sans-serif" stroke="none" xml:space="preserve">Да</text>
      <path fill="none" d="M1364.0143 654.9981 L1384.0062 654.9981 L1384.0062 704.7551" clip-path="url(#clipPath2)"/>
      <path d="M1384.0062 712.7551 L1389.0062 700.7551 L1384.0062 703.7551 L1379.0062 700.7551 Z" clip-path="url(#clipPath2)" stroke="none"/>
      <text x="1367.0721" font-size="17px" y="646.2844" clip-path="url(#clipPath2)" font-family="sans-serif" stroke="none" xml:space="preserve">Да</text>
      <path fill="none" d="M1384.0062 794.1814 L1384.0062 808.8789" clip-path="url(#clipPath2)"/>
      <path d="M1384.0062 816.8789 L1389.0062 804.8789 L1384.0062 807.8789 L1379.0062 804.8789 Z" clip-path="url(#clipPath2)" stroke="none"/>
      <path fill="none" d="M1530.1324 857.5981 L1540.7312 857.5981 L1540.7312 900.7808" clip-path="url(#clipPath2)"/>
      <path d="M1540.7312 908.7808 L1545.7312 896.7808 L1540.7312 899.7808 L1535.7312 896.7808 Z" clip-path="url(#clipPath2)" stroke="none"/>
      <text x="1531.7961" font-size="17px" y="849.5742" clip-path="url(#clipPath2)" font-family="sans-serif" stroke="none" xml:space="preserve">Да</text>
      <path fill="none" d="M1071.8247 654.9981 L1064.8364 654.9981 L1064.8364 1044.6101 L1217.9062 1044.6101 L1217.9062 1054.0872" clip-path="url(#clipPath2)"/>
      <path d="M1217.9062 1062.0872 L1222.9062 1050.0872 L1217.9062 1053.0872 L1212.9062 1050.0872 Z" clip-path="url(#clipPath2)" stroke="none"/>
      <path fill="none" d="M1540.7312 990.1735 L1540.7312 1020.9041 L1384.0062 1020.9041 L1384.0062 1044.6101 L1217.9062 1044.6101 L1217.9062 1054.0851" clip-path="url(#clipPath2)"/>
      <path d="M1217.9062 1062.0851 L1222.9062 1050.0851 L1217.9062 1053.0851 L1212.9062 1050.0851 Z" clip-path="url(#clipPath2)" stroke="none"/>
      <path fill="none" d="M1237.9167 857.5981 L1182.8693 857.5981 L1182.8693 1020.9258 L1384.0062 1020.9258 L1384.0062 1044.6101 L1217.9062 1044.6101 L1217.9062 1054.1027" clip-path="url(#clipPath2)"/>
      <path d="M1217.9062 1062.1027 L1222.9062 1050.1027 L1217.9062 1053.1027 L1212.9062 1050.1027 Z" clip-path="url(#clipPath2)" stroke="none"/>
      <path fill="none" d="M1364.0143 1102.8101 L1384.0062 1102.8101 L1384.0062 1148.7172" clip-path="url(#clipPath2)"/>
      <path d="M1384.0062 1156.7172 L1389.0062 1144.7172 L1384.0062 1147.7172 L1379.0062 1144.7172 Z" clip-path="url(#clipPath2)" stroke="none"/>
      <text x="1367.1569" font-size="17px" y="1095.1139" clip-path="url(#clipPath2)" font-family="sans-serif" stroke="none" xml:space="preserve">Да</text>
      <path fill="none" d="M1384.0062 1238.1067 L1384.0062 1252.8041" clip-path="url(#clipPath2)"/>
      <path d="M1384.0062 1260.8041 L1389.0062 1248.8041 L1384.0062 1251.8041 L1379.0062 1248.8041 Z" clip-path="url(#clipPath2)" stroke="none"/>
      <path fill="none" d="M1530.1324 1301.5233 L1540.7312 1301.5233 L1540.7312 1346.6194" clip-path="url(#clipPath2)"/>
      <path d="M1540.7312 1354.6194 L1545.7312 1342.6194 L1540.7312 1345.6194 L1535.7312 1342.6194 Z" clip-path="url(#clipPath2)" stroke="none"/>
      <text x="1539.3329" font-size="17px" y="1292.1887" clip-path="url(#clipPath2)" font-family="sans-serif" stroke="none" xml:space="preserve">Да</text>
      <path fill="none" d="M851.7667 835.4906 L851.7667 853.3223" clip-path="url(#clipPath2)"/>
      <path d="M851.7667 861.3223 L856.7667 849.3223 L851.7667 852.3223 L846.7667 849.3223 Z" clip-path="url(#clipPath2)" stroke="none"/>
      <path fill="none" d="M1217.9062 579.3813 L1217.9062 606.2776" clip-path="url(#clipPath2)"/>
      <path d="M1217.9062 614.2776 L1222.9062 602.2776 L1217.9062 605.2776 L1212.9062 602.2776 Z" clip-path="url(#clipPath2)" stroke="none"/>
      <path fill="none" d="M1540.7312 1436.0751 L1540.7312 1479.1782 L1384.0062 1479.1782 L1384.0062 1499.1782 L1217.9062 1499.1782 L1217.9062 1521.7388" clip-path="url(#clipPath2)"/>
      <path d="M1217.9062 1529.7388 L1222.9062 1517.7388 L1217.9062 1520.7388 L1212.9062 1517.7388 Z" clip-path="url(#clipPath2)" stroke="none"/>
      <path fill="none" d="M1237.8983 1301.5233 L1217.9062 1301.5233 L1217.9062 1479.1782 L1384.0062 1479.1782 L1384.0062 1499.1782 L1217.9062 1499.1782 L1217.9062 1521.7423" clip-path="url(#clipPath2)"/>
      <path d="M1217.9062 1529.7423 L1222.9062 1517.7423 L1217.9062 1520.7423 L1212.9062 1517.7423 Z" clip-path="url(#clipPath2)" stroke="none"/>
      <path fill="none" d="M1071.8247 1102.8101 L1064.8364 1102.8101 L1064.8364 1499.1782 L1217.9062 1499.1782 L1217.9062 1521.7415" clip-path="url(#clipPath2)"/>
      <path d="M1217.9062 1529.7415 L1222.9062 1517.7415 L1217.9062 1520.7415 L1212.9062 1517.7415 Z" clip-path="url(#clipPath2)" stroke="none"/>
      <path fill="none" d="M851.7667 958.0245 L851.7667 974.1782" clip-path="url(#clipPath2)"/>
      <path d="M851.7667 982.1782 L856.7667 970.1782 L851.7667 973.1782 L846.7667 970.1782 Z" clip-path="url(#clipPath2)" stroke="none"/>
      <path fill="none" d="M673.3 489.423 L673.3 532.6593" clip-path="url(#clipPath2)"/>
      <path d="M673.3 540.6593 L678.3 528.6593 L673.3 531.6593 L668.3 528.6593 Z" clip-path="url(#clipPath2)" stroke="none"/>
      <path fill="none" d="M673.3 622.1135 L673.3 638.8834" clip-path="url(#clipPath2)"/>
      <path d="M673.3 646.8834 L678.3 634.8834 L673.3 637.8834 L668.3 634.8834 Z" clip-path="url(#clipPath2)" stroke="none"/>
      <path fill="none" d="M705.6732 1022.8564 L673.3 1022.8564 L673.3 1100.9883" clip-path="url(#clipPath2)"/>
      <path d="M673.3 1108.9883 L678.3 1096.9883 L673.3 1099.9883 L668.3 1096.9883 Z" clip-path="url(#clipPath2)" stroke="none"/>
      <path fill="none" d="M673.3 1190.4008 L673.3 1224.9429" clip-path="url(#clipPath2)"/>
      <path d="M673.3 1232.9429 L678.3 1220.9429 L673.3 1223.9429 L668.3 1220.9429 Z" clip-path="url(#clipPath2)" stroke="none"/>
      <path fill="none" d="M673.3 1314.3076 L673.3 1328.4677" clip-path="url(#clipPath2)"/>
      <path d="M673.3 1336.4677 L678.3 1324.4677 L673.3 1327.4677 L668.3 1324.4677 Z" clip-path="url(#clipPath2)" stroke="none"/>
      <path fill="none" d="M527.192 1377.2034 L507.2 1377.2034 L507.2 1577.3032 L673.3 1577.3032 L673.3 1589.7146" clip-path="url(#clipPath2)"/>
      <path d="M673.3 1597.7146 L678.3 1585.7146 L673.3 1588.7146 L668.3 1585.7146 Z" clip-path="url(#clipPath2)" stroke="none"/>
      <path fill="none" d="M819.3934 1377.2034 L851.7667 1377.2034 L851.7667 1439.3737" clip-path="url(#clipPath2)"/>
      <path d="M851.7667 1447.3737 L856.7667 1435.3737 L851.7667 1438.3737 L846.7667 1435.3737 Z" clip-path="url(#clipPath2)" stroke="none"/>
      <text x="831.5164" font-size="17px" y="1365.9846" clip-path="url(#clipPath2)" font-family="sans-serif" stroke="none" xml:space="preserve">Да</text>
      <path fill="none" d="M851.7667 1528.7091 L851.7667 1577.3032 L673.3 1577.3032 L673.3 1589.75" clip-path="url(#clipPath2)"/>
      <path d="M673.3 1597.75 L678.3 1585.75 L673.3 1588.75 L668.3 1585.75 Z" clip-path="url(#clipPath2)" stroke="none"/>
      <path fill="none" d="M673.3 1679.1361 L673.3 1691.6298 L673.3 1691.6298 L673.3 1754.7261" clip-path="url(#clipPath2)"/>
      <path d="M673.3 1762.7261 L678.3 1750.7261 L673.3 1753.7261 L668.3 1750.7261 Z" clip-path="url(#clipPath2)" stroke="none"/>
      <path fill="none" d="M527.1965 687.5699 L383.989 687.5699 L383.989 1703.3485 L673.3 1703.3485 L673.3 1754.712" clip-path="url(#clipPath2)"/>
      <path d="M673.3 1762.712 L678.3 1750.712 L673.3 1753.712 L668.3 1750.712 Z" clip-path="url(#clipPath2)" stroke="none"/>
      <path fill="none" d="M997.8746 1022.8564 L1017.8666 1022.8564 L1017.8666 1703.3485 L673.3 1703.3485 L673.3 1754.751" clip-path="url(#clipPath2)"/>
      <path d="M673.3 1762.751 L678.3 1750.751 L673.3 1753.751 L668.3 1750.751 Z" clip-path="url(#clipPath2)" stroke="none"/>
      <text x="1004.004" font-size="17px" y="1011.2621" clip-path="url(#clipPath2)" font-family="sans-serif" stroke="none" xml:space="preserve">Да</text>
      <path fill="none" d="M673.3 1844.1456 L673.3 1891.1296" clip-path="url(#clipPath2)"/>
      <path d="M673.3 1899.1296 L678.3 1887.1296 L673.3 1890.1296 L668.3 1887.1296 Z" clip-path="url(#clipPath2)" stroke="none"/>
    </g>
  </g>
</svg>
