<?xml version="1.0" encoding="UTF-8"?><svg xmlns="http://www.w3.org/2000/svg" xmlns:xlink="http://www.w3.org/1999/xlink" fill-opacity="1" color-rendering="auto" color-interpolation="auto" text-rendering="auto" stroke="black" stroke-linecap="square" width="1096" stroke-miterlimit="10" shape-rendering="auto" stroke-opacity="1" fill="black" stroke-dasharray="none" font-weight="normal" stroke-width="1" height="1513" font-family="'Dialog'" font-style="normal" stroke-linejoin="miter" font-size="12px" stroke-dashoffset="0" image-rendering="auto">
  <!--Generated by ySVG 2.6-->
  <defs id="genericDefs"/>
  <g>
    <defs id="defs1">
      <clipPath clipPathUnits="userSpaceOnUse" id="clipPath1">
        <path d="M0 0 L1096 0 L1096 1513 L0 1513 L0 0 Z"/>
      </clipPath>
      <clipPath clipPathUnits="userSpaceOnUse" id="clipPath2">
        <path d="M16 586 L1112 586 L1112 2099 L16 2099 L16 586 Z"/>
      </clipPath>
    </defs>
    <g fill="white" text-rendering="geometricPrecision" shape-rendering="geometricPrecision" transform="translate(-16,-586)" stroke="white">
      <rect x="16" width="1096" height="1513" y="586" clip-path="url(#clipPath2)" stroke="none"/>
    </g>
    <g text-rendering="geometricPrecision" stroke-miterlimit="1.45" shape-rendering="geometricPrecision" transform="matrix(1,0,0,1,-16,-586)" stroke-linecap="butt">
      <rect x="387.7679" y="2001.747" clip-path="url(#clipPath2)" fill="none" width="286.7712" rx="40.7" ry="40.7" height="81.4"/>
      <text x="503.3459" font-size="17px" y="2048.3323" clip-path="url(#clipPath2)" font-family="sans-serif" stroke="none" xml:space="preserve">Конец</text>
    </g>
    <g text-rendering="geometricPrecision" stroke-miterlimit="1.45" shape-rendering="geometricPrecision" transform="matrix(1,0,0,1,-16,-586)" stroke-linecap="butt">
      <path fill="none" d="M408.5249 1896.6858 L674.5391 1896.6858 L653.782 1978.0858 L387.7679 1978.0858 Z" clip-path="url(#clipPath2)"/>
      <text x="464.4235" font-size="17px" y="1943.271" clip-path="url(#clipPath2)" font-family="sans-serif" stroke="none" xml:space="preserve">Вернуть hitinfo</text>
    </g>
    <g text-rendering="geometricPrecision" stroke-miterlimit="1.45" shape-rendering="geometricPrecision" transform="matrix(1,0,0,1,-16,-586)" stroke-linecap="butt">
      <path fill="none" d="M397.7679 1164.3881 L664.5391 1164.3881 L674.5391 1174.3881 L674.5391 1245.7881 L387.7679 1245.7881 L387.7679 1174.3881 Z" clip-path="url(#clipPath2)"/>
      <text x="399.8351" font-size="17px" y="1210.9733" clip-path="url(#clipPath2)" font-family="sans-serif" stroke="none" xml:space="preserve">Цикл по i от 0 до 2 с шагом 1</text>
    </g>
    <g text-rendering="geometricPrecision" stroke-miterlimit="1.45" shape-rendering="geometricPrecision" transform="matrix(1,0,0,1,-16,-586)" stroke-linecap="butt">
      <path fill="none" d="M531.1535 1268.4945 L674.5391 1321.4476 L531.1535 1374.4009 L387.7679 1321.4476 Z" clip-path="url(#clipPath2)"/>
      <text x="491.953" font-size="17px" y="1327.3329" clip-path="url(#clipPath2)" font-family="sans-serif" stroke="none" xml:space="preserve">ts[i] &gt; 0?</text>
    </g>
    <g text-rendering="geometricPrecision" stroke-miterlimit="1.45" shape-rendering="geometricPrecision" transform="matrix(1,0,0,1,-16,-586)" stroke-linecap="butt">
      <path fill="none" d="M759.1438 1357.045 L902.5294 1409.9983 L759.1438 1462.9515 L615.7582 1409.9983 Z" clip-path="url(#clipPath2)"/>
      <text x="711.6716" font-size="17px" y="1415.8835" clip-path="url(#clipPath2)" font-family="sans-serif" stroke="none" xml:space="preserve">set = true?</text>
    </g>
    <g text-rendering="geometricPrecision" stroke-miterlimit="1.45" shape-rendering="geometricPrecision" transform="matrix(1,0,0,1,-16,-586)" stroke-linecap="butt">
      <path fill="none" d="M387.7679 1059.572 L674.5391 1059.572 L674.5391 1140.972 L387.7679 1140.972 Z" clip-path="url(#clipPath2)"/>
      <text x="473.0231" font-size="17px" y="1096.2627" clip-path="url(#clipPath2)" font-family="sans-serif" stroke="none" xml:space="preserve">t_min = -100,</text>
      <text x="485.4162" font-size="17px" y="1116.0518" clip-path="url(#clipPath2)" font-family="sans-serif" stroke="none" xml:space="preserve">set = false</text>
    </g>
    <g text-rendering="geometricPrecision" stroke-miterlimit="1.45" shape-rendering="geometricPrecision" transform="matrix(1,0,0,1,-16,-586)" stroke-linecap="butt">
      <path fill="none" d="M437.7949 1492.9515 L724.5661 1492.9515 L724.5661 1574.3516 L437.7949 1574.3516 Z" clip-path="url(#clipPath2)"/>
      <text x="528.2879" font-size="17px" y="1539.5367" clip-path="url(#clipPath2)" font-family="sans-serif" stroke="none" xml:space="preserve">t_min = ts[i]</text>
    </g>
    <g text-rendering="geometricPrecision" stroke-miterlimit="1.45" shape-rendering="geometricPrecision" transform="matrix(1,0,0,1,-16,-586)" stroke-linecap="butt">
      <path fill="none" d="M387.7679 1692.9021 L674.5391 1692.9021 L674.5391 1764.3021 L664.5391 1774.3021 L397.7679 1774.3021 L387.7679 1764.3021 Z" clip-path="url(#clipPath2)"/>
      <text x="455.0353" font-size="17px" y="1739.4874" clip-path="url(#clipPath2)" font-family="sans-serif" stroke="none" xml:space="preserve">Конец цикла по i</text>
    </g>
    <g text-rendering="geometricPrecision" stroke-miterlimit="1.45" shape-rendering="geometricPrecision" transform="matrix(1,0,0,1,-16,-586)" stroke-linecap="butt">
      <path fill="none" d="M387.7679 1791.6245 L674.5391 1791.6245 L674.5391 1873.0245 L387.7679 1873.0245 Z" clip-path="url(#clipPath2)"/>
      <text x="461.9582" font-size="17px" y="1838.2098" clip-path="url(#clipPath2)" font-family="sans-serif" stroke="none" xml:space="preserve">hitinfo.t = t_min</text>
    </g>
    <g text-rendering="geometricPrecision" stroke-miterlimit="1.45" shape-rendering="geometricPrecision" transform="matrix(1,0,0,1,-16,-586)" stroke-linecap="butt">
      <path fill="none" d="M214.3823 768.5986 L357.7679 821.5518 L214.3823 874.5051 L70.9967 821.5518 Z" clip-path="url(#clipPath2)"/>
      <text x="165.7397" font-size="17px" y="807.648" clip-path="url(#clipPath2)" font-family="sans-serif" stroke="none" xml:space="preserve">ts[i] &lt; tmin</text>
      <text x="205.6873" font-size="17px" y="827.4371" clip-path="url(#clipPath2)" font-family="sans-serif" stroke="none" xml:space="preserve">or</text>
      <text x="158.738" font-size="17px" y="847.2261" clip-path="url(#clipPath2)" font-family="sans-serif" stroke="none" xml:space="preserve">ts[i] &gt; tmax?</text>
    </g>
    <g text-rendering="geometricPrecision" stroke-miterlimit="1.45" shape-rendering="geometricPrecision" transform="matrix(1,0,0,1,-16,-586)" stroke-linecap="butt">
      <path fill="none" d="M281.0585 874.5051 L567.8297 874.5051 L567.8297 955.905 L281.0585 955.905 Z" clip-path="url(#clipPath2)"/>
      <text x="375.872" font-size="17px" y="921.0903" clip-path="url(#clipPath2)" font-family="sans-serif" stroke="none" xml:space="preserve">ts[i] = -100</text>
    </g>
    <g text-rendering="geometricPrecision" stroke-miterlimit="1.45" shape-rendering="geometricPrecision" transform="matrix(1,0,0,1,-16,-586)" stroke-linecap="butt">
      <path fill="none" d="M80.9967 671.847 L347.7679 671.847 L357.7679 681.847 L357.7679 753.2471 L70.9967 753.2471 L70.9967 681.847 Z" clip-path="url(#clipPath2)"/>
      <text x="83.064" font-size="17px" y="718.4323" clip-path="url(#clipPath2)" font-family="sans-serif" stroke="none" xml:space="preserve">Цикл по i от 0 до 2 с шагом 1</text>
    </g>
    <g text-rendering="geometricPrecision" stroke-miterlimit="1.45" shape-rendering="geometricPrecision" transform="matrix(1,0,0,1,-16,-586)" stroke-linecap="butt">
      <path fill="none" d="M70.9967 1003.872 L357.7679 1003.872 L357.7679 1075.272 L347.7679 1085.272 L80.9967 1085.272 L70.9967 1075.272 Z" clip-path="url(#clipPath2)"/>
      <text x="138.2642" font-size="17px" y="1050.4573" clip-path="url(#clipPath2)" font-family="sans-serif" stroke="none" xml:space="preserve">Конец цикла по i</text>
    </g>
    <g text-rendering="geometricPrecision" stroke-miterlimit="1.45" shape-rendering="geometricPrecision" transform="matrix(1,0,0,1,-16,-586)" stroke-linecap="butt">
      <circle fill="none" r="20" clip-path="url(#clipPath2)" cx="214.3823" cy="621.8471"/>
      <text x="208.5676" font-size="17px" y="627.7323" clip-path="url(#clipPath2)" font-family="sans-serif" stroke="none" xml:space="preserve">A</text>
    </g>
    <g text-rendering="geometricPrecision" stroke-miterlimit="1.45" shape-rendering="geometricPrecision" transform="matrix(1,0,0,1,-16,-586)" stroke-linecap="butt">
      <circle fill="none" r="20" clip-path="url(#clipPath2)" cx="214.3823" cy="1135.272"/>
      <text x="208.551" font-size="17px" y="1141.1572" clip-path="url(#clipPath2)" font-family="sans-serif" stroke="none" xml:space="preserve">Б</text>
    </g>
    <g text-rendering="geometricPrecision" stroke-miterlimit="1.45" shape-rendering="geometricPrecision" transform="matrix(1,0,0,1,-16,-586)" stroke-linecap="butt">
      <circle fill="none" r="20" clip-path="url(#clipPath2)" cx="531.1535" cy="1009.572"/>
      <text x="525.3222" font-size="17px" y="1015.4573" clip-path="url(#clipPath2)" font-family="sans-serif" stroke="none" xml:space="preserve">Б</text>
    </g>
    <g text-rendering="geometricPrecision" stroke-miterlimit="1.45" shape-rendering="geometricPrecision" transform="matrix(1,0,0,1,-16,-586)" stroke-linecap="butt">
      <rect fill="none" x="809.5956" width="286.7712" height="81.4" y="1492.9515" clip-path="url(#clipPath2)"/>
      <path fill="none" d="M819.5956 1492.9515 L819.5956 1574.3516 M1086.3667 1492.9515 L1086.3667 1574.3516 M819.5956 1492.9515 Z" clip-path="url(#clipPath2)"/>
      <text x="848.2419" font-size="17px" y="1539.5367" clip-path="url(#clipPath2)" font-family="sans-serif" stroke="none" xml:space="preserve">t_min = MIN(ts[i], t_min)</text>
    </g>
    <g text-rendering="geometricPrecision" stroke-miterlimit="1.45" shape-rendering="geometricPrecision" transform="matrix(1,0,0,1,-16,-586)" stroke-linecap="butt">
      <path fill="none" d="M531.1535 1978.0918 L531.1535 1993.7537" clip-path="url(#clipPath2)"/>
    </g>
    <g text-rendering="geometricPrecision" stroke-miterlimit="1.45" shape-rendering="geometricPrecision" transform="matrix(1,0,0,1,-16,-586)" stroke-linecap="butt">
      <path d="M531.1535 2001.7537 L536.1535 1989.7537 L531.1535 1992.7537 L526.1535 1989.7537 Z" stroke="none" clip-path="url(#clipPath2)"/>
      <path fill="none" d="M531.1535 1245.7969 L531.1535 1260.5143" clip-path="url(#clipPath2)"/>
      <path d="M531.1535 1268.5143 L536.1535 1256.5143 L531.1535 1259.5143 L526.1535 1256.5143 Z" clip-path="url(#clipPath2)" stroke="none"/>
      <path fill="none" d="M674.5659 1321.4476 L759.1438 1321.4476 L759.1438 1349.0322" clip-path="url(#clipPath2)"/>
      <path d="M759.1438 1357.0322 L764.1438 1345.0322 L759.1438 1348.0322 L754.1438 1345.0322 Z" clip-path="url(#clipPath2)" stroke="none"/>
      <text x="709.1306" font-size="17px" y="1309.5165" clip-path="url(#clipPath2)" font-family="sans-serif" stroke="none" xml:space="preserve">Да</text>
      <path fill="none" d="M531.1535 1140.9855 L531.1535 1156.3666" clip-path="url(#clipPath2)"/>
      <path d="M531.1535 1164.3666 L536.1535 1152.3666 L531.1535 1155.3666 L526.1535 1152.3666 Z" clip-path="url(#clipPath2)" stroke="none"/>
      <path fill="none" d="M615.7217 1409.9983 L581.1805 1409.9983 L581.1805 1484.9269" clip-path="url(#clipPath2)"/>
      <path d="M581.1805 1492.9269 L586.1805 1480.9269 L581.1805 1483.9269 L576.1805 1480.9269 Z" clip-path="url(#clipPath2)" stroke="none"/>
      <path fill="none" d="M387.7858 1321.4476 L315.4568 1321.4476 L315.4568 1672.9021 L531.1535 1672.9021 L531.1535 1684.9082" clip-path="url(#clipPath2)"/>
      <path d="M531.1535 1692.9082 L536.1535 1680.9082 L531.1535 1683.9082 L526.1535 1680.9082 Z" clip-path="url(#clipPath2)" stroke="none"/>
      <path fill="none" d="M581.1805 1574.3633 L581.1805 1635.2076 L759.1438 1635.2076 L759.1438 1672.9021 L531.1535 1672.9021 L531.1535 1684.8749" clip-path="url(#clipPath2)"/>
      <path d="M531.1535 1692.8749 L536.1535 1680.8749 L531.1535 1683.8749 L526.1535 1680.8749 Z" clip-path="url(#clipPath2)" stroke="none"/>
      <path fill="none" d="M531.1535 1774.3347 L531.1535 1783.6355" clip-path="url(#clipPath2)"/>
      <path d="M531.1535 1791.6355 L536.1535 1779.6355 L531.1535 1782.6355 L526.1535 1779.6355 Z" clip-path="url(#clipPath2)" stroke="none"/>
      <path fill="none" d="M531.1535 1873.0306 L531.1535 1888.6925" clip-path="url(#clipPath2)"/>
      <path d="M531.1535 1896.6925 L536.1535 1884.6925 L531.1535 1887.6925 L526.1535 1884.6925 Z" clip-path="url(#clipPath2)" stroke="none"/>
      <path fill="none" d="M357.7484 821.5518 L424.4441 821.5518 L424.4441 866.4604" clip-path="url(#clipPath2)"/>
      <path d="M424.4441 874.4604 L429.4441 862.4604 L424.4441 865.4604 L419.4441 862.4604 Z" clip-path="url(#clipPath2)" stroke="none"/>
      <text x="388.6813" font-size="17px" y="797.4371" clip-path="url(#clipPath2)" font-family="sans-serif" stroke="none" xml:space="preserve">Да</text>
      <path fill="none" d="M214.3823 753.2685 L214.3823 760.5928" clip-path="url(#clipPath2)"/>
      <path d="M214.3823 768.5928 L219.3823 756.5928 L214.3823 759.5928 L209.3823 756.5928 Z" clip-path="url(#clipPath2)" stroke="none"/>
      <path fill="none" d="M71.0129 821.5518 L31.4982 821.5518 L31.4982 985.3307 L214.3823 985.3307 L214.3823 995.8726" clip-path="url(#clipPath2)"/>
      <path d="M214.3823 1003.8726 L219.3823 991.8726 L214.3823 994.8726 L209.3823 991.8726 Z" clip-path="url(#clipPath2)" stroke="none"/>
      <path fill="none" d="M424.4441 955.9177 L424.4441 985.3307 L214.3823 985.3307 L214.3823 995.8726" clip-path="url(#clipPath2)"/>
      <path d="M214.3823 1003.8726 L219.3823 991.8726 L214.3823 994.8726 L209.3823 991.8726 Z" clip-path="url(#clipPath2)" stroke="none"/>
      <path fill="none" d="M214.3823 641.8206 L214.3823 663.831" clip-path="url(#clipPath2)"/>
      <path d="M214.3823 671.831 L219.3823 659.831 L214.3823 662.831 L209.3823 659.831 Z" clip-path="url(#clipPath2)" stroke="none"/>
      <path fill="none" d="M214.3823 1085.2719 L214.3823 1107.3013" clip-path="url(#clipPath2)"/>
      <path d="M214.3823 1115.3013 L219.3823 1103.3013 L214.3823 1106.3013 L209.3823 1103.3013 Z" clip-path="url(#clipPath2)" stroke="none"/>
      <path fill="none" d="M531.1535 1029.5455 L531.1535 1051.5559" clip-path="url(#clipPath2)"/>
      <path d="M531.1535 1059.5559 L536.1535 1047.5559 L531.1535 1050.5559 L526.1535 1047.5559 Z" clip-path="url(#clipPath2)" stroke="none"/>
      <path fill="none" d="M902.4869 1409.9983 L952.9811 1409.9983 L952.9811 1484.9269" clip-path="url(#clipPath2)"/>
      <path d="M952.9811 1492.9269 L957.9811 1480.9269 L952.9811 1483.9269 L947.9811 1480.9269 Z" clip-path="url(#clipPath2)" stroke="none"/>
      <path fill="none" d="M952.9811 1574.3633 L952.9811 1635.2076 L759.1438 1635.2076 L759.1438 1672.9021 L531.1535 1672.9021 L531.1535 1684.9102" clip-path="url(#clipPath2)"/>
      <path d="M531.1535 1692.9102 L536.1535 1680.9102 L531.1535 1683.9102 L526.1535 1680.9102 Z" clip-path="url(#clipPath2)" stroke="none"/>
    </g>
  </g>
</svg>
