<?xml version="1.0" encoding="UTF-8"?><svg xmlns="http://www.w3.org/2000/svg" xmlns:xlink="http://www.w3.org/1999/xlink" fill-opacity="1" color-rendering="auto" color-interpolation="auto" text-rendering="auto" stroke="black" stroke-linecap="square" width="1152" stroke-miterlimit="10" shape-rendering="auto" stroke-opacity="1" fill="black" stroke-dasharray="none" font-weight="normal" stroke-width="1" height="1428" font-family="'Dialog'" font-style="normal" stroke-linejoin="miter" font-size="12px" stroke-dashoffset="0" image-rendering="auto">
  <!--Generated by ySVG 2.6-->
  <defs id="genericDefs"/>
  <g>
    <defs id="defs1">
      <clipPath clipPathUnits="userSpaceOnUse" id="clipPath1">
        <path d="M0 0 L1152 0 L1152 1428 L0 1428 L0 0 Z"/>
      </clipPath>
      <clipPath clipPathUnits="userSpaceOnUse" id="clipPath2">
        <path d="M748 408 L1900 408 L1900 1836 L748 1836 L748 408 Z"/>
      </clipPath>
    </defs>
    <g fill="white" text-rendering="geometricPrecision" shape-rendering="geometricPrecision" transform="translate(-748,-408)" stroke="white">
      <rect x="748" width="1152" height="1428" y="408" clip-path="url(#clipPath2)" stroke="none"/>
    </g>
    <g text-rendering="geometricPrecision" stroke-miterlimit="1.45" shape-rendering="geometricPrecision" transform="matrix(1,0,0,1,-748,-408)" stroke-linecap="butt">
      <rect x="802.05" y="468.7745" clip-path="url(#clipPath2)" fill="none" width="292.2" rx="40.7" ry="40.7" height="81.4"/>
      <text x="915.6857" font-size="17px" y="515.3597" clip-path="url(#clipPath2)" font-family="sans-serif" stroke="none" xml:space="preserve">Начало</text>
    </g>
    <g text-rendering="geometricPrecision" stroke-miterlimit="1.45" shape-rendering="geometricPrecision" transform="matrix(1,0,0,1,-748,-408)" stroke-linecap="butt">
      <path fill="none" d="M1172.4672 423.1147 L1140.45 423.1147 L1140.45 595.8343 L1172.4672 595.8343" clip-path="url(#clipPath2)"/>
      <text x="1148.9087" font-size="17px" y="446.0981" clip-path="url(#clipPath2)" font-family="sans-serif" stroke="none" xml:space="preserve">(trace) Входные данные:</text>
      <text x="1148.9087" font-size="17px" y="465.8871" clip-path="url(#clipPath2)" font-family="sans-serif" stroke="none" xml:space="preserve">camera - камера,</text>
      <text x="1148.9087" font-size="17px" y="485.6762" clip-path="url(#clipPath2)" font-family="sans-serif" stroke="none" xml:space="preserve">tree - kD-дерево объектов </text>
      <text x="1148.9087" font-size="17px" y="505.4652" clip-path="url(#clipPath2)" font-family="sans-serif" stroke="none" xml:space="preserve">сцены,</text>
      <text x="1148.9087" font-size="17px" y="525.2543" clip-path="url(#clipPath2)" font-family="sans-serif" stroke="none" xml:space="preserve">light - источник света,</text>
      <text x="1148.9087" font-size="17px" y="545.0433" clip-path="url(#clipPath2)" font-family="sans-serif" stroke="none" xml:space="preserve">d - глубина рекурсии,</text>
      <text x="1148.9087" font-size="17px" y="564.8324" clip-path="url(#clipPath2)" font-family="sans-serif" stroke="none" xml:space="preserve">O - начало луча,</text>
      <text x="1148.9087" font-size="17px" y="584.6215" clip-path="url(#clipPath2)" font-family="sans-serif" stroke="none" xml:space="preserve">D - направление луча</text>
    </g>
    <g text-rendering="geometricPrecision" stroke-miterlimit="1.45" shape-rendering="geometricPrecision" transform="matrix(1,0,0,1,-748,-408)" stroke-linecap="butt">
      <path fill="none" d="M802.05 580.1745 L1094.25 580.1745 L1094.25 661.5745 L802.05 661.5745 Z" clip-path="url(#clipPath2)"/>
      <text x="912.0043" font-size="17px" y="616.8652" clip-path="url(#clipPath2)" font-family="sans-serif" stroke="none" xml:space="preserve">ints = 0,</text>
      <text x="890.8165" font-size="17px" y="636.6543" clip-path="url(#clipPath2)" font-family="sans-serif" stroke="none" xml:space="preserve">ip = light.ints</text>
    </g>
    <g text-rendering="geometricPrecision" stroke-miterlimit="1.45" shape-rendering="geometricPrecision" transform="matrix(1,0,0,1,-748,-408)" stroke-linecap="butt">
      <rect fill="none" x="802.05" width="292.2" height="81.4" y="691.5745" clip-path="url(#clipPath2)"/>
      <path fill="none" d="M812.05 691.5745 L812.05 772.9745 M1084.25 691.5745 L1084.25 772.9745 M812.05 691.5745 Z" clip-path="url(#clipPath2)"/>
      <text x="818.3175" font-size="17px" y="718.3707" clip-path="url(#clipPath2)" font-family="sans-serif" stroke="none" xml:space="preserve">hitinfo = hit_kdtree(O, D, tree,</text>
      <text x="818.4918" font-size="17px" y="738.1598" clip-path="url(#clipPath2)" font-family="sans-serif" stroke="none" xml:space="preserve">MIN, MAX, tree.box, tree.right,</text>
      <text x="910.9293" font-size="17px" y="757.9489" clip-path="url(#clipPath2)" font-family="sans-serif" stroke="none" xml:space="preserve">tree.left)</text>
    </g>
    <g text-rendering="geometricPrecision" stroke-miterlimit="1.45" shape-rendering="geometricPrecision" transform="matrix(1,0,0,1,-748,-408)" stroke-linecap="butt">
      <path fill="none" d="M1174.35 691.5745 L1140.45 691.5745 L1140.45 772.9745 L1174.35 772.9745" clip-path="url(#clipPath2)"/>
      <text x="1149.0647" font-size="17px" y="708.4762" clip-path="url(#clipPath2)" font-family="sans-serif" stroke="none" xml:space="preserve">MIN - минимально возмож-</text>
      <text x="1149.0647" font-size="17px" y="728.2653" clip-path="url(#clipPath2)" font-family="sans-serif" stroke="none" xml:space="preserve">ный t луча,</text>
      <text x="1149.0647" font-size="17px" y="748.0543" clip-path="url(#clipPath2)" font-family="sans-serif" stroke="none" xml:space="preserve">MAX - максимально возмож-</text>
      <text x="1149.0647" font-size="17px" y="767.8434" clip-path="url(#clipPath2)" font-family="sans-serif" stroke="none" xml:space="preserve">ный t луча</text>
    </g>
    <g text-rendering="geometricPrecision" stroke-miterlimit="1.45" shape-rendering="geometricPrecision" transform="matrix(1,0,0,1,-748,-408)" stroke-linecap="butt">
      <path fill="none" d="M948.15 802.9745 L1094.25 843.6745 L948.15 884.3745 L802.05 843.6745 Z" clip-path="url(#clipPath2)"/>
      <text x="892.6469" font-size="17px" y="849.5598" clip-path="url(#clipPath2)" font-family="sans-serif" stroke="none" xml:space="preserve">hitinfo.t &gt; 0?</text>
    </g>
    <g text-rendering="geometricPrecision" stroke-miterlimit="1.45" shape-rendering="geometricPrecision" transform="matrix(1,0,0,1,-748,-408)" stroke-linecap="butt">
      <rect x="802.05" y="1738.9199" clip-path="url(#clipPath2)" fill="none" width="292.2" rx="40.7" ry="40.7" height="81.4"/>
      <text x="920.3424" font-size="17px" y="1785.5051" clip-path="url(#clipPath2)" font-family="sans-serif" stroke="none" xml:space="preserve">Конец</text>
    </g>
    <g text-rendering="geometricPrecision" stroke-miterlimit="1.45" shape-rendering="geometricPrecision" transform="matrix(1,0,0,1,-748,-408)" stroke-linecap="butt">
      <path fill="none" d="M1050.65 987.1441 L1342.85 987.1441 L1342.85 1068.5441 L1050.65 1068.5441 Z" clip-path="url(#clipPath2)"/>
      <text x="1106.8816" font-size="17px" y="1033.7294" clip-path="url(#clipPath2)" font-family="sans-serif" stroke="none" xml:space="preserve">ints = (ip * c + ia) kd</text>
    </g>
    <g text-rendering="geometricPrecision" stroke-miterlimit="1.45" shape-rendering="geometricPrecision" transform="matrix(1,0,0,1,-748,-408)" stroke-linecap="butt">
      <rect fill="none" x="1050.65" width="292.2" height="81.4" y="1091.2189" clip-path="url(#clipPath2)"/>
      <path fill="none" d="M1060.65 1091.2189 L1060.65 1172.6189 M1332.85 1091.2189 L1332.85 1172.6189 M1060.65 1091.2189 Z" clip-path="url(#clipPath2)"/>
      <text x="1070.2668" font-size="17px" y="1137.8041" clip-path="url(#clipPath2)" font-family="sans-serif" stroke="none" xml:space="preserve">r_ray = get_r_ray(ray, hitinfo)</text>
    </g>
    <g text-rendering="geometricPrecision" stroke-miterlimit="1.45" shape-rendering="geometricPrecision" transform="matrix(1,0,0,1,-748,-408)" stroke-linecap="butt">
      <path fill="none" d="M1420.6613 1091.2189 L1390.4722 1091.2189 L1390.4722 1172.6189 L1420.6613 1172.6189" clip-path="url(#clipPath2)"/>
      <text x="1403.3929" font-size="17px" y="1127.9095" clip-path="url(#clipPath2)" font-family="sans-serif" stroke="none" xml:space="preserve">Функция, вычисляющая</text>
      <text x="1403.3929" font-size="17px" y="1147.6986" clip-path="url(#clipPath2)" font-family="sans-serif" stroke="none" xml:space="preserve">отраженный луч</text>
    </g>
    <g text-rendering="geometricPrecision" stroke-miterlimit="1.45" shape-rendering="geometricPrecision" transform="matrix(1,0,0,1,-748,-408)" stroke-linecap="butt">
      <path fill="none" d="M1050.65 1198.4001 L1342.85 1198.4001 L1342.85 1279.8002 L1050.65 1279.8002 Z" clip-path="url(#clipPath2)"/>
      <text x="1058.1104" font-size="17px" y="1235.0908" clip-path="url(#clipPath2)" font-family="sans-serif" stroke="none" xml:space="preserve">ints += pow(cos(r_ray, ray), p) *</text>
      <text x="1169.9883" font-size="17px" y="1254.8799" clip-path="url(#clipPath2)" font-family="sans-serif" stroke="none" xml:space="preserve">ip * ks</text>
    </g>
    <g text-rendering="geometricPrecision" stroke-miterlimit="1.45" shape-rendering="geometricPrecision" transform="matrix(1,0,0,1,-748,-408)" stroke-linecap="butt">
      <path fill="none" d="M1419.4894 1198.4001 L1390.4722 1198.4001 L1390.4722 1279.8002 L1419.4894 1279.8002" clip-path="url(#clipPath2)"/>
      <text x="1399.5729" font-size="17px" y="1235.0908" clip-path="url(#clipPath2)" font-family="sans-serif" stroke="none" xml:space="preserve">pow - возведение числа</text>
      <text x="1399.5729" font-size="17px" y="1254.8799" clip-path="url(#clipPath2)" font-family="sans-serif" stroke="none" xml:space="preserve">в степень</text>
    </g>
    <g text-rendering="geometricPrecision" stroke-miterlimit="1.45" shape-rendering="geometricPrecision" transform="matrix(1,0,0,1,-748,-408)" stroke-linecap="butt">
      <path fill="none" d="M1426.9972 987.1441 L1390.4722 987.1441 L1390.4722 1068.5441 L1426.9972 1068.5441" clip-path="url(#clipPath2)"/>
      <text x="1401.3109" font-size="17px" y="1013.9402" clip-path="url(#clipPath2)" font-family="sans-serif" stroke="none" xml:space="preserve">ip, ia, kd, c и следюущие да-</text>
      <text x="1401.3109" font-size="17px" y="1033.7294" clip-path="url(#clipPath2)" font-family="sans-serif" stroke="none" xml:space="preserve">лее обозначения аналогичны </text>
      <text x="1401.3109" font-size="17px" y="1053.5184" clip-path="url(#clipPath2)" font-family="sans-serif" stroke="none" xml:space="preserve">обозначениям в формуле 1.4</text>
    </g>
    <g text-rendering="geometricPrecision" stroke-miterlimit="1.45" shape-rendering="geometricPrecision" transform="matrix(1,0,0,1,-748,-408)" stroke-linecap="butt">
      <path fill="none" d="M1196.75 1305.5814 L1342.85 1356.4376 L1196.75 1407.2938 L1050.65 1356.4376 Z" clip-path="url(#clipPath2)"/>
      <text x="1154.0757" font-size="17px" y="1332.6393" clip-path="url(#clipPath2)" font-family="sans-serif" stroke="none" xml:space="preserve">depth &lt; 3</text>
      <text x="1180.7585" font-size="17px" y="1352.4283" clip-path="url(#clipPath2)" font-family="sans-serif" stroke="none" xml:space="preserve">and</text>
      <text x="1113.074" font-size="17px" y="1372.2174" clip-path="url(#clipPath2)" font-family="sans-serif" stroke="none" xml:space="preserve">Материал отража-</text>
      <text x="1166.0288" font-size="17px" y="1392.0065" clip-path="url(#clipPath2)" font-family="sans-serif" stroke="none" xml:space="preserve">ющий?</text>
    </g>
    <g text-rendering="geometricPrecision" stroke-miterlimit="1.45" shape-rendering="geometricPrecision" transform="matrix(1,0,0,1,-748,-408)" stroke-linecap="butt">
      <rect fill="none" x="1216.75" width="292.2" height="81.4" y="1433.0751" clip-path="url(#clipPath2)"/>
      <path fill="none" d="M1226.75 1433.0751 L1226.75 1514.4751 M1498.95 1433.0751 L1498.95 1514.4751 M1226.75 1433.0751 Z" clip-path="url(#clipPath2)"/>
      <text x="1243.3976" font-size="17px" y="1469.7659" clip-path="url(#clipPath2)" font-family="sans-serif" stroke="none" xml:space="preserve">ints += trace(camera, light,</text>
      <text x="1239.5626" font-size="17px" y="1489.5549" clip-path="url(#clipPath2)" font-family="sans-serif" stroke="none" xml:space="preserve">r_ray.O, r_ray_D, tree, d + 1)</text>
    </g>
    <g text-rendering="geometricPrecision" stroke-miterlimit="1.45" shape-rendering="geometricPrecision" transform="matrix(1,0,0,1,-748,-408)" stroke-linecap="butt">
      <path fill="none" d="M822.807 1622.5873 L1094.25 1622.5873 L1073.493 1703.9873 L802.05 1703.9873 Z" clip-path="url(#clipPath2)"/>
      <text x="892.9332" font-size="17px" y="1669.1725" clip-path="url(#clipPath2)" font-family="sans-serif" stroke="none" xml:space="preserve">Вернуть ints</text>
    </g>
    <g text-rendering="geometricPrecision" stroke-miterlimit="1.45" shape-rendering="geometricPrecision" transform="matrix(1,0,0,1,-748,-408)" stroke-linecap="butt">
      <circle fill="none" r="20" clip-path="url(#clipPath2)" cx="1196.75" cy="880.6313"/>
      <text x="1190.9353" font-size="17px" y="886.5166" clip-path="url(#clipPath2)" font-family="sans-serif" stroke="none" xml:space="preserve">A</text>
    </g>
    <g text-rendering="geometricPrecision" stroke-miterlimit="1.45" shape-rendering="geometricPrecision" transform="matrix(1,0,0,1,-748,-408)" stroke-linecap="butt">
      <rect fill="none" x="1426.5875" width="292.2" height="81.4" y="509.3441" clip-path="url(#clipPath2)"/>
      <path fill="none" d="M1436.5875 509.3441 L1436.5875 590.7441 M1708.7875 509.3441 L1708.7875 590.7441 M1436.5875 509.3441 Z" clip-path="url(#clipPath2)"/>
      <text x="1441.394" font-size="17px" y="555.9293" clip-path="url(#clipPath2)" font-family="sans-serif" stroke="none" xml:space="preserve">rayL = get_lray(light, hitinfo.p)</text>
    </g>
    <g text-rendering="geometricPrecision" stroke-miterlimit="1.45" shape-rendering="geometricPrecision" transform="matrix(1,0,0,1,-748,-408)" stroke-linecap="butt">
      <rect fill="none" x="1426.5875" width="292.2" height="81.4" y="609.4941" clip-path="url(#clipPath2)"/>
      <path fill="none" d="M1436.5875 609.4941 L1436.5875 690.8941 M1708.7875 609.4941 L1708.7875 690.8941 M1436.5875 609.4941 Z" clip-path="url(#clipPath2)"/>
      <text x="1446.7605" font-size="17px" y="636.2903" clip-path="url(#clipPath2)" font-family="sans-serif" stroke="none" xml:space="preserve">l_hitinfo = hit_kdtree(OL, DL, </text>
      <text x="1465.7029" font-size="17px" y="656.0793" clip-path="url(#clipPath2)" font-family="sans-serif" stroke="none" xml:space="preserve">tree, MIN, MAX, tree.box,</text>
      <text x="1490.103" font-size="17px" y="675.8684" clip-path="url(#clipPath2)" font-family="sans-serif" stroke="none" xml:space="preserve">tree.right, tree.left)</text>
    </g>
    <g text-rendering="geometricPrecision" stroke-miterlimit="1.45" shape-rendering="geometricPrecision" transform="matrix(1,0,0,1,-748,-408)" stroke-linecap="butt">
      <circle fill="none" r="20" clip-path="url(#clipPath2)" cx="1196.75" cy="929.3745"/>
      <text x="1190.9187" font-size="17px" y="935.2598" clip-path="url(#clipPath2)" font-family="sans-serif" stroke="none" xml:space="preserve">Б</text>
    </g>
    <g text-rendering="geometricPrecision" stroke-miterlimit="1.45" shape-rendering="geometricPrecision" transform="matrix(1,0,0,1,-748,-408)" stroke-linecap="butt">
      <circle fill="none" r="20" clip-path="url(#clipPath2)" cx="1572.6875" cy="463.3133"/>
      <text x="1566.8728" font-size="17px" y="469.1986" clip-path="url(#clipPath2)" font-family="sans-serif" stroke="none" xml:space="preserve">A</text>
    </g>
    <g text-rendering="geometricPrecision" stroke-miterlimit="1.45" shape-rendering="geometricPrecision" transform="matrix(1,0,0,1,-748,-408)" stroke-linecap="butt">
      <circle fill="none" r="20" clip-path="url(#clipPath2)" cx="1572.6875" cy="967.1441"/>
      <text x="1566.8562" font-size="17px" y="973.0294" clip-path="url(#clipPath2)" font-family="sans-serif" stroke="none" xml:space="preserve">Б</text>
    </g>
    <g text-rendering="geometricPrecision" stroke-miterlimit="1.45" shape-rendering="geometricPrecision" transform="matrix(1,0,0,1,-748,-408)" stroke-linecap="butt">
      <path fill="none" d="M1572.6875 720.8941 L1718.7875 761.5941 L1572.6875 802.2941 L1426.5875 761.5941 Z" clip-path="url(#clipPath2)"/>
      <text x="1510.5728" font-size="17px" y="767.4793" clip-path="url(#clipPath2)" font-family="sans-serif" stroke="none" xml:space="preserve">l_hitinfo.t &gt; 0?</text>
    </g>
    <g text-rendering="geometricPrecision" stroke-miterlimit="1.45" shape-rendering="geometricPrecision" transform="matrix(1,0,0,1,-748,-408)" stroke-linecap="butt">
      <path fill="none" d="M1592.6875 816.9886 L1884.8875 816.9886 L1884.8875 898.3886 L1592.6875 898.3886 Z" clip-path="url(#clipPath2)"/>
      <text x="1658.8468" font-size="17px" y="863.5739" clip-path="url(#clipPath2)" font-family="sans-serif" stroke="none" xml:space="preserve">l_ints = l_ints * 0.5</text>
    </g>
    <g stroke-linecap="butt" transform="matrix(1,0,0,1,-748,-408)" text-rendering="geometricPrecision" shape-rendering="geometricPrecision" stroke-dasharray="12,4" stroke-width="2" stroke-miterlimit="1.45">
      <path fill="none" d="M1094.2919 509.4745 L1117.8326 509.4745 L1117.8326 509.4745 L1140.4489 509.4745" clip-path="url(#clipPath2)"/>
    </g>
    <g text-rendering="geometricPrecision" stroke-miterlimit="1.45" shape-rendering="geometricPrecision" transform="matrix(1,0,0,1,-748,-408)" stroke-linecap="butt">
      <path fill="none" d="M948.15 550.1888 L948.15 572.1819" clip-path="url(#clipPath2)"/>
      <path d="M948.15 580.1819 L953.15 568.1819 L948.15 571.1819 L943.15 568.1819 Z" clip-path="url(#clipPath2)" stroke="none"/>
      <path fill="none" d="M948.15 661.5888 L948.15 683.5819" clip-path="url(#clipPath2)"/>
      <path d="M948.15 691.5819 L953.15 679.5819 L948.15 682.5819 L943.15 679.5819 Z" clip-path="url(#clipPath2)" stroke="none"/>
      <path fill="none" stroke-dasharray="12,4" d="M1094.2881 732.2745 L1140.4829 732.2745" stroke-width="2" clip-path="url(#clipPath2)"/>
      <path fill="none" d="M948.15 772.9888 L948.15 794.9819" clip-path="url(#clipPath2)"/>
      <path d="M948.15 802.9819 L953.15 790.9819 L948.15 793.9819 L943.15 790.9819 Z" clip-path="url(#clipPath2)" stroke="none"/>
      <path fill="none" d="M1196.75 1068.5237 L1196.75 1083.2135" clip-path="url(#clipPath2)"/>
      <path d="M1196.75 1091.2135 L1201.75 1079.2135 L1196.75 1082.2135 L1191.75 1079.2135 Z" clip-path="url(#clipPath2)" stroke="none"/>
      <path fill="none" stroke-dasharray="12,4" d="M1342.8181 1131.9188 L1390.4713 1131.9188" stroke-width="2" clip-path="url(#clipPath2)"/>
      <path fill="none" d="M1196.75 1172.609 L1196.75 1190.4198" clip-path="url(#clipPath2)"/>
      <path d="M1196.75 1198.4198 L1201.75 1186.4198 L1196.75 1189.4198 L1191.75 1186.4198 Z" clip-path="url(#clipPath2)" stroke="none"/>
      <path fill="none" stroke-dasharray="12,4" d="M1342.8342 1239.1001 L1390.4354 1239.1001" stroke-width="2" clip-path="url(#clipPath2)"/>
      <path fill="none" stroke-dasharray="12,4" d="M1342.8088 1027.8441 L1390.4454 1027.8441" stroke-width="2" clip-path="url(#clipPath2)"/>
      <path fill="none" d="M1196.75 1279.8073 L1196.75 1297.5878" clip-path="url(#clipPath2)"/>
      <path d="M1196.75 1305.5878 L1201.75 1293.5878 L1196.75 1296.5878 L1191.75 1293.5878 Z" clip-path="url(#clipPath2)" stroke="none"/>
      <path fill="none" d="M1342.858 1356.4376 L1362.85 1356.4376 L1362.85 1425.068" clip-path="url(#clipPath2)"/>
      <path d="M1362.85 1433.068 L1367.85 1421.068 L1362.85 1424.068 L1357.85 1421.068 Z" clip-path="url(#clipPath2)" stroke="none"/>
      <text x="1345.224" font-size="17px" y="1346.4476" clip-path="url(#clipPath2)" font-family="sans-serif" stroke="none" xml:space="preserve">Да</text>
      <path fill="none" d="M1362.85 1514.4747 L1362.85 1578.0314 L1196.75 1578.0314 L1196.75 1602.5873 L948.15 1602.5873 L948.15 1614.5934" clip-path="url(#clipPath2)"/>
      <path d="M948.15 1622.5934 L953.15 1610.5934 L948.15 1613.5934 L943.15 1610.5934 Z" clip-path="url(#clipPath2)" stroke="none"/>
      <path fill="none" d="M802.0154 843.6745 L763.007 843.6745 L763.007 1602.5873 L948.15 1602.5873 L948.15 1614.5918" clip-path="url(#clipPath2)"/>
      <path d="M948.15 1622.5918 L953.15 1610.5918 L948.15 1613.5918 L943.15 1610.5918 Z" clip-path="url(#clipPath2)" stroke="none"/>
      <path fill="none" d="M1050.6512 1356.4376 L1015.025 1356.4376 L1015.025 1578.0314 L1196.75 1578.0314 L1196.75 1602.5873 L948.15 1602.5873 L948.15 1614.6033" clip-path="url(#clipPath2)"/>
      <path d="M948.15 1622.6033 L953.15 1610.6033 L948.15 1613.6033 L943.15 1610.6033 Z" clip-path="url(#clipPath2)" stroke="none"/>
      <path fill="none" d="M948.15 1703.9867 L948.15 1730.8857" clip-path="url(#clipPath2)"/>
      <path d="M948.15 1738.8857 L953.15 1726.8857 L948.15 1729.8857 L943.15 1726.8857 Z" clip-path="url(#clipPath2)" stroke="none"/>
      <path fill="none" d="M1094.2693 843.6745 L1196.75 843.6745 L1196.75 852.601" clip-path="url(#clipPath2)"/>
      <path d="M1196.75 860.601 L1201.75 848.601 L1196.75 851.601 L1191.75 848.601 Z" clip-path="url(#clipPath2)" stroke="none"/>
      <text x="1135.4613" font-size="17px" y="837.5757" clip-path="url(#clipPath2)" font-family="sans-serif" stroke="none" xml:space="preserve">Да</text>
      <path fill="none" d="M1572.6875 590.7789 L1572.6875 601.4912" clip-path="url(#clipPath2)"/>
      <path d="M1572.6875 609.4912 L1577.6875 597.4912 L1572.6875 600.4912 L1567.6875 597.4912 Z" clip-path="url(#clipPath2)" stroke="none"/>
      <path fill="none" d="M1196.75 949.3281 L1196.75 979.1675" clip-path="url(#clipPath2)"/>
      <path d="M1196.75 987.1675 L1201.75 975.1675 L1196.75 978.1675 L1191.75 975.1675 Z" clip-path="url(#clipPath2)" stroke="none"/>
      <path fill="none" d="M1572.6875 483.3444 L1572.6875 501.3664" clip-path="url(#clipPath2)"/>
      <path d="M1572.6875 509.3664 L1577.6875 497.3664 L1572.6875 500.3664 L1567.6875 497.3664 Z" clip-path="url(#clipPath2)" stroke="none"/>
      <path fill="none" d="M1572.6875 690.8784 L1572.6875 712.8771" clip-path="url(#clipPath2)"/>
      <path d="M1572.6875 720.8771 L1577.6875 708.8771 L1572.6875 711.8771 L1567.6875 708.8771 Z" clip-path="url(#clipPath2)" stroke="none"/>
      <path fill="none" d="M1426.5795 761.5941 L1406.5875 761.5941 L1406.5875 922.7664 L1572.6875 922.7664 L1572.6875 939.1654" clip-path="url(#clipPath2)"/>
      <path d="M1572.6875 947.1654 L1577.6875 935.1654 L1572.6875 938.1654 L1567.6875 935.1654 Z" clip-path="url(#clipPath2)" stroke="none"/>
      <path fill="none" d="M1718.7955 761.5941 L1738.7875 761.5941 L1738.7875 809.008" clip-path="url(#clipPath2)"/>
      <path d="M1738.7875 817.008 L1743.7875 805.008 L1738.7875 808.008 L1733.7875 805.008 Z" clip-path="url(#clipPath2)" stroke="none"/>
      <text x="1723.2131" font-size="17px" y="752.0137" clip-path="url(#clipPath2)" font-family="sans-serif" stroke="none" xml:space="preserve">Да</text>
      <path fill="none" d="M1738.7875 898.394 L1738.7875 922.7664 L1572.6875 922.7664 L1572.6875 939.1224" clip-path="url(#clipPath2)"/>
      <path d="M1572.6875 947.1224 L1577.6875 935.1224 L1572.6875 938.1224 L1567.6875 935.1224 Z" clip-path="url(#clipPath2)" stroke="none"/>
    </g>
  </g>
</svg>
