<?xml version="1.0" encoding="UTF-8"?><svg xmlns="http://www.w3.org/2000/svg" xmlns:xlink="http://www.w3.org/1999/xlink" fill-opacity="1" color-rendering="auto" color-interpolation="auto" text-rendering="auto" stroke="black" stroke-linecap="square" width="1196" stroke-miterlimit="10" shape-rendering="auto" stroke-opacity="1" fill="black" stroke-dasharray="none" font-weight="normal" stroke-width="1" height="1584" font-family="'Dialog'" font-style="normal" stroke-linejoin="miter" font-size="12px" stroke-dashoffset="0" image-rendering="auto">
  <!--Generated by ySVG 2.6-->
  <defs id="genericDefs"/>
  <g>
    <defs id="defs1">
      <clipPath clipPathUnits="userSpaceOnUse" id="clipPath1">
        <path d="M0 0 L1196 0 L1196 1584 L0 1584 L0 0 Z"/>
      </clipPath>
      <clipPath clipPathUnits="userSpaceOnUse" id="clipPath2">
        <path d="M155 233 L1351 233 L1351 1817 L155 1817 L155 233 Z"/>
      </clipPath>
    </defs>
    <g fill="white" text-rendering="geometricPrecision" shape-rendering="geometricPrecision" transform="translate(-155,-233)" stroke="white">
      <rect x="155" width="1196" height="1584" y="233" clip-path="url(#clipPath2)" stroke="none"/>
    </g>
    <g text-rendering="geometricPrecision" stroke-miterlimit="1.45" shape-rendering="geometricPrecision" transform="matrix(1,0,0,1,-155,-233)" stroke-linecap="butt">
      <rect x="501.6" y="299.844" clip-path="url(#clipPath2)" fill="none" width="292.2" rx="40.7" ry="40.7" height="81.4"/>
      <text x="615.2357" font-size="17px" y="346.4293" clip-path="url(#clipPath2)" font-family="sans-serif" stroke="none" xml:space="preserve">Начало</text>
    </g>
    <g text-rendering="geometricPrecision" stroke-miterlimit="1.45" shape-rendering="geometricPrecision" transform="matrix(1,0,0,1,-155,-233)" stroke-linecap="butt">
      <path fill="none" d="M882.3 248.4768 L840 248.4768 L840 432.6112 L882.3 432.6112" clip-path="url(#clipPath2)"/>
      <text x="850.5389" font-size="17px" y="277.1675" clip-path="url(#clipPath2)" font-family="sans-serif" stroke="none" xml:space="preserve">(hit_box) Входные данные:</text>
      <text x="850.5389" font-size="17px" y="296.9566" clip-path="url(#clipPath2)" font-family="sans-serif" stroke="none" xml:space="preserve">O - начало луча,</text>
      <text x="850.5389" font-size="17px" y="316.7457" clip-path="url(#clipPath2)" font-family="sans-serif" stroke="none" xml:space="preserve">D - направление луча,</text>
      <text x="850.5389" font-size="17px" y="336.5347" clip-path="url(#clipPath2)" font-family="sans-serif" stroke="none" xml:space="preserve">MIN, MAX - точки параллелепипеда</text>
      <text x="850.5389" font-size="17px" y="356.3238" clip-path="url(#clipPath2)" font-family="sans-serif" stroke="none" xml:space="preserve">с минимальными, максимальнымы</text>
      <text x="850.5389" font-size="17px" y="376.1129" clip-path="url(#clipPath2)" font-family="sans-serif" stroke="none" xml:space="preserve">координатами</text>
      <text x="850.5389" font-size="17px" y="395.9019" clip-path="url(#clipPath2)" font-family="sans-serif" stroke="none" xml:space="preserve">Выходные данные:</text>
      <text x="850.5389" font-size="17px" y="415.691" clip-path="url(#clipPath2)" font-family="sans-serif" stroke="none" xml:space="preserve">itersect - признак пересечения</text>
    </g>
    <g text-rendering="geometricPrecision" stroke-miterlimit="1.45" shape-rendering="geometricPrecision" transform="matrix(1,0,0,1,-155,-233)" stroke-linecap="butt">
      <path fill="none" d="M647.7 708.8514 L793.8 749.5513 L647.7 790.2513 L501.6 749.5513 Z" clip-path="url(#clipPath2)"/>
      <text x="601.1451" font-size="17px" y="735.6475" clip-path="url(#clipPath2)" font-family="sans-serif" stroke="none" xml:space="preserve">lo &lt;= tmx </text>
      <text x="631.7086" font-size="17px" y="755.4366" clip-path="url(#clipPath2)" font-family="sans-serif" stroke="none" xml:space="preserve">and</text>
      <text x="603.3033" font-size="17px" y="775.2256" clip-path="url(#clipPath2)" font-family="sans-serif" stroke="none" xml:space="preserve">hi &gt;= tmn</text>
    </g>
    <g text-rendering="geometricPrecision" stroke-miterlimit="1.45" shape-rendering="geometricPrecision" transform="matrix(1,0,0,1,-155,-233)" stroke-linecap="butt">
      <path fill="none" d="M833.3 778.9557 L979.4 819.6558 L833.3 860.3558 L687.2 819.6558 Z" clip-path="url(#clipPath2)"/>
      <text x="791.7006" font-size="17px" y="825.541" clip-path="url(#clipPath2)" font-family="sans-serif" stroke="none" xml:space="preserve">tmn &gt; lo?</text>
    </g>
    <g text-rendering="geometricPrecision" stroke-miterlimit="1.45" shape-rendering="geometricPrecision" transform="matrix(1,0,0,1,-155,-233)" stroke-linecap="butt">
      <path fill="none" d="M833.3 997.5159 L979.4 1038.2159 L833.3 1078.9159 L687.2 1038.2159 Z" clip-path="url(#clipPath2)"/>
      <text x="791.8708" font-size="17px" y="1044.1012" clip-path="url(#clipPath2)" font-family="sans-serif" stroke="none" xml:space="preserve">tmx &lt; hi?</text>
    </g>
    <g text-rendering="geometricPrecision" stroke-miterlimit="1.45" shape-rendering="geometricPrecision" transform="matrix(1,0,0,1,-155,-233)" stroke-linecap="butt">
      <path fill="none" d="M886.2 875.616 L1178.4 875.616 L1178.4 957.0159 L886.2 957.0159 Z" clip-path="url(#clipPath2)"/>
      <text x="995.2121" font-size="17px" y="922.2012" clip-path="url(#clipPath2)" font-family="sans-serif" stroke="none" xml:space="preserve">lo = tmn</text>
    </g>
    <g text-rendering="geometricPrecision" stroke-miterlimit="1.45" shape-rendering="geometricPrecision" transform="matrix(1,0,0,1,-155,-233)" stroke-linecap="butt">
      <path fill="none" d="M886.2 1108.9159 L1178.4 1108.9159 L1178.4 1190.3159 L886.2 1190.3159 Z" clip-path="url(#clipPath2)"/>
      <text x="995.3823" font-size="17px" y="1155.5012" clip-path="url(#clipPath2)" font-family="sans-serif" stroke="none" xml:space="preserve">hi = tmx</text>
    </g>
    <g text-rendering="geometricPrecision" stroke-miterlimit="1.45" shape-rendering="geometricPrecision" transform="matrix(1,0,0,1,-155,-233)" stroke-linecap="butt">
      <rect x="501.6" y="1719.8027" clip-path="url(#clipPath2)" fill="none" width="292.2" rx="40.7" ry="40.7" height="81.4"/>
      <text x="619.8924" font-size="17px" y="1766.3879" clip-path="url(#clipPath2)" font-family="sans-serif" stroke="none" xml:space="preserve">Конец</text>
    </g>
    <g text-rendering="geometricPrecision" stroke-miterlimit="1.45" shape-rendering="geometricPrecision" transform="matrix(1,0,0,1,-155,-233)" stroke-linecap="butt">
      <path fill="none" d="M647.7 1366.644 L793.8 1407.3441 L647.7 1448.0441 L501.6 1407.3441 Z" clip-path="url(#clipPath2)"/>
      <text x="610.4046" font-size="17px" y="1393.4403" clip-path="url(#clipPath2)" font-family="sans-serif" stroke="none" xml:space="preserve">tmin &lt; 0</text>
      <text x="631.7086" font-size="17px" y="1413.2294" clip-path="url(#clipPath2)" font-family="sans-serif" stroke="none" xml:space="preserve">and</text>
      <text x="603.4029" font-size="17px" y="1433.0184" clip-path="url(#clipPath2)" font-family="sans-serif" stroke="none" xml:space="preserve">tmax &lt; 0?</text>
    </g>
    <g text-rendering="geometricPrecision" stroke-miterlimit="1.45" shape-rendering="geometricPrecision" transform="matrix(1,0,0,1,-155,-233)" stroke-linecap="butt">
      <path fill="none" d="M501.6 1262.2916 L793.8 1262.2916 L793.8 1333.6917 L783.8 1343.6917 L511.6 1343.6917 L501.6 1333.6917 Z" clip-path="url(#clipPath2)"/>
      <text x="571.5818" font-size="17px" y="1308.877" clip-path="url(#clipPath2)" font-family="sans-serif" stroke="none" xml:space="preserve">Конец цикла по i</text>
    </g>
    <g text-rendering="geometricPrecision" stroke-miterlimit="1.45" shape-rendering="geometricPrecision" transform="matrix(1,0,0,1,-155,-233)" stroke-linecap="butt">
      <path fill="none" d="M711.0094 1470.9965 L1003.2094 1470.9965 L1003.2094 1552.3965 L711.0094 1552.3965 Z" clip-path="url(#clipPath2)"/>
      <text x="786.8931" font-size="17px" y="1517.5818" clip-path="url(#clipPath2)" font-family="sans-serif" stroke="none" xml:space="preserve">intersect = false</text>
    </g>
    <g text-rendering="geometricPrecision" stroke-miterlimit="1.45" shape-rendering="geometricPrecision" transform="matrix(1,0,0,1,-155,-233)" stroke-linecap="butt">
      <path fill="none" d="M170.2967 1011.3799 L462.4967 1011.3799 L462.4967 1092.7799 L170.2967 1092.7799 Z" clip-path="url(#clipPath2)"/>
      <text x="246.1804" font-size="17px" y="1057.9651" clip-path="url(#clipPath2)" font-family="sans-serif" stroke="none" xml:space="preserve">intersect = false</text>
    </g>
    <g text-rendering="geometricPrecision" stroke-miterlimit="1.45" shape-rendering="geometricPrecision" transform="matrix(1,0,0,1,-155,-233)" stroke-linecap="butt">
      <path fill="none" d="M1043.0157 530.6009 L1335.2158 530.6009 L1335.2158 612.0009 L1043.0157 612.0009 Z" clip-path="url(#clipPath2)"/>
      <text x="1118.9742" font-size="17px" y="567.2916" clip-path="url(#clipPath2)" font-family="sans-serif" stroke="none" xml:space="preserve">intersect = true,</text>
      <text x="1130.8942" font-size="17px" y="587.0806" clip-path="url(#clipPath2)" font-family="sans-serif" stroke="none" xml:space="preserve">INV_D = 1 / D</text>
    </g>
    <g text-rendering="geometricPrecision" stroke-miterlimit="1.45" shape-rendering="geometricPrecision" transform="matrix(1,0,0,1,-155,-233)" stroke-linecap="butt">
      <path fill="none" d="M1043.0157 649.7562 L1335.2158 649.7562 L1335.2158 731.1561 L1043.0157 731.1561 Z" clip-path="url(#clipPath2)"/>
      <text x="1057.0836" font-size="17px" y="686.4469" clip-path="url(#clipPath2)" font-family="sans-serif" stroke="none" xml:space="preserve">lo = INV_D[0] * (MIN[0] - O[0]),</text>
      <text x="1056.8263" font-size="17px" y="706.236" clip-path="url(#clipPath2)" font-family="sans-serif" stroke="none" xml:space="preserve">hi = INV_D[0] * (MAX[0] - O[0])</text>
    </g>
    <g text-rendering="geometricPrecision" stroke-miterlimit="1.45" shape-rendering="geometricPrecision" transform="matrix(1,0,0,1,-155,-233)" stroke-linecap="butt">
      <circle fill="none" r="20" clip-path="url(#clipPath2)" cx="647.7" cy="416.3846"/>
      <text x="641.8853" font-size="17px" y="422.2699" clip-path="url(#clipPath2)" font-family="sans-serif" stroke="none" xml:space="preserve">A</text>
    </g>
    <g text-rendering="geometricPrecision" stroke-miterlimit="1.45" shape-rendering="geometricPrecision" transform="matrix(1,0,0,1,-155,-233)" stroke-linecap="butt">
      <circle fill="none" r="20" clip-path="url(#clipPath2)" cx="647.7" cy="466.3008"/>
      <text x="641.8687" font-size="17px" y="472.1861" clip-path="url(#clipPath2)" font-family="sans-serif" stroke="none" xml:space="preserve">Б</text>
    </g>
    <g text-rendering="geometricPrecision" stroke-miterlimit="1.45" shape-rendering="geometricPrecision" transform="matrix(1,0,0,1,-155,-233)" stroke-linecap="butt">
      <circle fill="none" r="20" clip-path="url(#clipPath2)" cx="1189.1158" cy="482.6112"/>
      <text x="1183.3011" font-size="17px" y="488.4965" clip-path="url(#clipPath2)" font-family="sans-serif" stroke="none" xml:space="preserve">A</text>
    </g>
    <g text-rendering="geometricPrecision" stroke-miterlimit="1.45" shape-rendering="geometricPrecision" transform="matrix(1,0,0,1,-155,-233)" stroke-linecap="butt">
      <circle fill="none" r="20" clip-path="url(#clipPath2)" cx="1189.1158" cy="788.9114"/>
      <text x="1183.2845" font-size="17px" y="794.7967" clip-path="url(#clipPath2)" font-family="sans-serif" stroke="none" xml:space="preserve">Б</text>
    </g>
    <g text-rendering="geometricPrecision" stroke-miterlimit="1.45" shape-rendering="geometricPrecision" transform="matrix(1,0,0,1,-155,-233)" stroke-linecap="butt">
      <path fill="none" d="M511.6 504.3477 L783.8 504.3477 L793.8 514.3477 L793.8 585.7477 L501.6 585.7477 L501.6 514.3477 Z" clip-path="url(#clipPath2)"/>
      <text x="516.3817" font-size="17px" y="550.9329" clip-path="url(#clipPath2)" font-family="sans-serif" stroke="none" xml:space="preserve">Цикл по i от 1 до 2 с шагом 1</text>
    </g>
    <g text-rendering="geometricPrecision" stroke-miterlimit="1.45" shape-rendering="geometricPrecision" transform="matrix(1,0,0,1,-155,-233)" stroke-linecap="butt">
      <path fill="none" d="M501.6 603.7946 L793.8 603.7946 L793.8 685.1946 L501.6 685.1946 Z" clip-path="url(#clipPath2)"/>
      <text x="515.369" font-size="17px" y="640.4853" clip-path="url(#clipPath2)" font-family="sans-serif" stroke="none" xml:space="preserve">tmn = INV_D[i] * (MIN[i] - O[i]),</text>
      <text x="515.6553" font-size="17px" y="660.2744" clip-path="url(#clipPath2)" font-family="sans-serif" stroke="none" xml:space="preserve">tmx = INV_D[i] * (MAX[i] - O[i])</text>
    </g>
    <g text-rendering="geometricPrecision" stroke-miterlimit="1.45" shape-rendering="geometricPrecision" transform="matrix(1,0,0,1,-155,-233)" stroke-linecap="butt">
      <path fill="none" d="M522.357 1601 L793.8 1601 L773.043 1682.4 L501.6 1682.4 Z" clip-path="url(#clipPath2)"/>
      <text x="570.5235" font-size="17px" y="1647.5852" clip-path="url(#clipPath2)" font-family="sans-serif" stroke="none" xml:space="preserve">Вернуть intersect</text>
    </g>
    <g stroke-linecap="butt" transform="matrix(1,0,0,1,-155,-233)" text-rendering="geometricPrecision" shape-rendering="geometricPrecision" stroke-dasharray="12,4" stroke-width="2" stroke-miterlimit="1.45">
      <path fill="none" d="M793.8118 340.544 L806.5025 340.544 L840.0258 340.4472" clip-path="url(#clipPath2)"/>
    </g>
    <g text-rendering="geometricPrecision" stroke-miterlimit="1.45" shape-rendering="geometricPrecision" transform="matrix(1,0,0,1,-155,-233)" stroke-linecap="butt">
      <path fill="none" d="M793.8328 749.5513 L833.3 749.5513 L833.3 770.9555" clip-path="url(#clipPath2)"/>
      <path d="M833.3 778.9555 L838.3 766.9555 L833.3 769.9555 L828.3 766.9555 Z" clip-path="url(#clipPath2)" stroke="none"/>
      <text x="806.5694" font-size="17px" y="740.7902" clip-path="url(#clipPath2)" font-family="sans-serif" stroke="none" xml:space="preserve">Да</text>
      <path fill="none" d="M687.2455 819.6558 L636.963 819.6558 L636.963 977.5159 L833.3 977.5159 L833.3 989.4968" clip-path="url(#clipPath2)"/>
      <path d="M833.3 997.4968 L838.3 985.4968 L833.3 988.4968 L828.3 985.4968 Z" clip-path="url(#clipPath2)" stroke="none"/>
      <path fill="none" d="M979.392 819.6558 L1032.3 819.6558 L1032.3 867.5847" clip-path="url(#clipPath2)"/>
      <path d="M1032.3 875.5847 L1037.3 863.5847 L1032.3 866.5847 L1027.3 863.5847 Z" clip-path="url(#clipPath2)" stroke="none"/>
      <text x="1004.54" font-size="17px" y="809.6658" clip-path="url(#clipPath2)" font-family="sans-serif" stroke="none" xml:space="preserve">Да</text>
      <path fill="none" d="M1032.3 956.9865 L1032.3 977.5159 L833.3 977.5159 L833.3 989.522" clip-path="url(#clipPath2)"/>
      <path d="M833.3 997.522 L838.3 985.522 L833.3 988.522 L828.3 985.522 Z" clip-path="url(#clipPath2)" stroke="none"/>
      <path fill="none" d="M979.392 1038.2159 L1032.3 1038.2159 L1032.3 1100.9016" clip-path="url(#clipPath2)"/>
      <path d="M1032.3 1108.9016 L1037.3 1096.9016 L1032.3 1099.9016 L1027.3 1096.9016 Z" clip-path="url(#clipPath2)" stroke="none"/>
      <text x="997.6909" font-size="17px" y="1026.9972" clip-path="url(#clipPath2)" font-family="sans-serif" stroke="none" xml:space="preserve">Да</text>
      <path fill="none" d="M687.2455 1038.2159 L636.963 1038.2159 L636.963 1222.2916 L833.3 1222.2916 L833.3 1242.2916 L647.7 1242.2916 L647.7 1254.2977" clip-path="url(#clipPath2)"/>
      <path d="M647.7 1262.2977 L652.7 1250.2977 L647.7 1253.2977 L642.7 1250.2977 Z" clip-path="url(#clipPath2)" stroke="none"/>
      <path fill="none" d="M1032.3 1190.3186 L1032.3 1222.2916 L833.3 1222.2916 L833.3 1242.2916 L647.7 1242.2916 L647.7 1254.3091" clip-path="url(#clipPath2)"/>
      <path d="M647.7 1262.3091 L652.7 1250.3091 L647.7 1253.3091 L642.7 1250.3091 Z" clip-path="url(#clipPath2)" stroke="none"/>
      <path fill="none" d="M647.7 1343.6779 L647.7 1358.6512" clip-path="url(#clipPath2)"/>
      <path d="M647.7 1366.6512 L652.7 1354.6512 L647.7 1357.6512 L642.7 1354.6512 Z" clip-path="url(#clipPath2)" stroke="none"/>
      <path fill="none" d="M793.7906 1407.3441 L857.1094 1407.3441 L857.1094 1463.0103" clip-path="url(#clipPath2)"/>
      <path d="M857.1094 1471.0103 L862.1094 1459.0103 L857.1094 1462.0103 L852.1094 1459.0103 Z" clip-path="url(#clipPath2)" stroke="none"/>
      <text x="822.2737" font-size="17px" y="1401.9572" clip-path="url(#clipPath2)" font-family="sans-serif" stroke="none" xml:space="preserve">Да</text>
      <path fill="none" d="M501.582 749.5513 L316.3967 749.5513 L316.3967 1003.3464" clip-path="url(#clipPath2)"/>
      <path d="M316.3967 1011.3464 L321.3967 999.3464 L316.3967 1002.3464 L311.3967 999.3464 Z" clip-path="url(#clipPath2)" stroke="none"/>
      <path fill="none" d="M1189.1158 611.9987 L1189.1158 641.7333" clip-path="url(#clipPath2)"/>
      <path d="M1189.1158 649.7333 L1194.1158 637.7333 L1189.1158 640.7333 L1184.1158 637.7333 Z" clip-path="url(#clipPath2)" stroke="none"/>
      <path fill="none" d="M647.7 381.2417 L647.7 388.3765" clip-path="url(#clipPath2)"/>
      <path d="M647.7 396.3765 L652.7 384.3765 L647.7 387.3765 L642.7 384.3765 Z" clip-path="url(#clipPath2)" stroke="none"/>
      <path fill="none" d="M1189.1158 502.575 L1189.1158 522.5956" clip-path="url(#clipPath2)"/>
      <path d="M1189.1158 530.5956 L1194.1158 518.5956 L1189.1158 521.5956 L1184.1158 518.5956 Z" clip-path="url(#clipPath2)" stroke="none"/>
      <path fill="none" d="M1189.1158 731.1839 L1189.1158 760.9026" clip-path="url(#clipPath2)"/>
      <path d="M1189.1158 768.9026 L1194.1158 756.9026 L1189.1158 759.9026 L1184.1158 756.9026 Z" clip-path="url(#clipPath2)" stroke="none"/>
      <path fill="none" d="M647.7 486.3336 L647.7 496.3664" clip-path="url(#clipPath2)"/>
      <path d="M647.7 504.3664 L652.7 492.3664 L647.7 495.3664 L642.7 492.3664 Z" clip-path="url(#clipPath2)" stroke="none"/>
      <path fill="none" d="M647.7 585.7317 L647.7 595.8077" clip-path="url(#clipPath2)"/>
      <path d="M647.7 603.8077 L652.7 591.8077 L647.7 594.8077 L642.7 591.8077 Z" clip-path="url(#clipPath2)" stroke="none"/>
      <path fill="none" d="M647.7 685.1989 L647.7 700.8597" clip-path="url(#clipPath2)"/>
      <path d="M647.7 708.8597 L652.7 696.8597 L647.7 699.8597 L642.7 696.8597 Z" clip-path="url(#clipPath2)" stroke="none"/>
      <path fill="none" d="M857.1094 1552.4178 L857.1094 1576.6982 L647.7 1576.6982 L647.7 1592.9786" clip-path="url(#clipPath2)"/>
      <path d="M647.7 1600.9786 L652.7 1588.9786 L647.7 1591.9786 L642.7 1588.9786 Z" clip-path="url(#clipPath2)" stroke="none"/>
      <path fill="none" d="M316.3967 1092.7775 L316.3967 1576.6982 L647.7 1576.6982 L647.7 1592.9729" clip-path="url(#clipPath2)"/>
      <path d="M647.7 1600.9729 L652.7 1588.9729 L647.7 1591.9729 L642.7 1588.9729 Z" clip-path="url(#clipPath2)" stroke="none"/>
      <path fill="none" d="M501.6324 1407.3441 L453.512 1407.3441 L453.512 1576.6982 L647.7 1576.6982 L647.7 1593.0123" clip-path="url(#clipPath2)"/>
      <path d="M647.7 1601.0123 L652.7 1589.0123 L647.7 1592.0123 L642.7 1589.0123 Z" clip-path="url(#clipPath2)" stroke="none"/>
      <path fill="none" d="M647.7 1682.3934 L647.7 1711.8081" clip-path="url(#clipPath2)"/>
      <path d="M647.7 1719.8081 L652.7 1707.8081 L647.7 1710.8081 L642.7 1707.8081 Z" clip-path="url(#clipPath2)" stroke="none"/>
    </g>
  </g>
</svg>
