<?xml version="1.0" encoding="UTF-8"?><svg xmlns="http://www.w3.org/2000/svg" xmlns:xlink="http://www.w3.org/1999/xlink" fill-opacity="1" color-rendering="auto" color-interpolation="auto" text-rendering="auto" stroke="black" stroke-linecap="square" width="1064" stroke-miterlimit="10" shape-rendering="auto" stroke-opacity="1" fill="black" stroke-dasharray="none" font-weight="normal" stroke-width="1" height="1522" font-family="'Dialog'" font-style="normal" stroke-linejoin="miter" font-size="12px" stroke-dashoffset="0" image-rendering="auto">
  <!--Generated by ySVG 2.6-->
  <defs id="genericDefs"/>
  <g>
    <defs id="defs1">
      <clipPath clipPathUnits="userSpaceOnUse" id="clipPath1">
        <path d="M0 0 L1064 0 L1064 1522 L0 1522 L0 0 Z"/>
      </clipPath>
      <clipPath clipPathUnits="userSpaceOnUse" id="clipPath2">
        <path d="M521 44 L1585 44 L1585 1566 L521 1566 L521 44 Z"/>
      </clipPath>
    </defs>
    <g fill="white" text-rendering="geometricPrecision" shape-rendering="geometricPrecision" transform="translate(-521,-44)" stroke="white">
      <rect x="521" width="1064" height="1522" y="44" clip-path="url(#clipPath2)" stroke="none"/>
    </g>
    <g text-rendering="geometricPrecision" stroke-miterlimit="1.45" shape-rendering="geometricPrecision" transform="matrix(1,0,0,1,-521,-44)" stroke-linecap="butt">
      <rect x="616.4" y="92.65" clip-path="url(#clipPath2)" fill="none" width="244.2" rx="40.7" ry="40.7" height="81.4"/>
      <text x="706.0356" font-size="17px" y="139.2353" clip-path="url(#clipPath2)" font-family="sans-serif" stroke="none" xml:space="preserve">Начало</text>
    </g>
    <g text-rendering="geometricPrecision" stroke-miterlimit="1.45" shape-rendering="geometricPrecision" transform="matrix(1,0,0,1,-521,-44)" stroke-linecap="butt">
      <path fill="none" d="M950.975 59.65 L908.6 59.65 L908.6 207.05 L950.975 207.05" clip-path="url(#clipPath2)"/>
      <text x="916.8407" font-size="17px" y="79.8681" clip-path="url(#clipPath2)" font-family="sans-serif" stroke="none" xml:space="preserve">hit_sphere</text>
      <text x="916.8407" font-size="17px" y="99.6571" clip-path="url(#clipPath2)" font-family="sans-serif" stroke="none" xml:space="preserve">Входные данные:</text>
      <text x="916.8407" font-size="17px" y="119.4462" clip-path="url(#clipPath2)" font-family="sans-serif" stroke="none" xml:space="preserve">O, D - начало, направление луча,</text>
      <text x="916.8407" font-size="17px" y="139.2353" clip-path="url(#clipPath2)" font-family="sans-serif" stroke="none" xml:space="preserve">tmin, tmax - мин., макс. значения t,</text>
      <text x="916.8407" font-size="17px" y="159.0243" clip-path="url(#clipPath2)" font-family="sans-serif" stroke="none" xml:space="preserve">C - центр сферы</text>
      <text x="916.8407" font-size="17px" y="178.8134" clip-path="url(#clipPath2)" font-family="sans-serif" stroke="none" xml:space="preserve">Выходные данные:</text>
      <text x="916.8407" font-size="17px" y="198.6024" clip-path="url(#clipPath2)" font-family="sans-serif" stroke="none" xml:space="preserve">hitinfo - информация о пересечении</text>
    </g>
    <g text-rendering="geometricPrecision" stroke-miterlimit="1.45" shape-rendering="geometricPrecision" transform="matrix(1,0,0,1,-521,-44)" stroke-linecap="butt">
      <path fill="none" d="M616.4 195.05 L860.6 195.05 L860.6 276.45 L616.4 276.45 Z" clip-path="url(#clipPath2)"/>
      <text x="689.5503" font-size="17px" y="231.7407" clip-path="url(#clipPath2)" font-family="sans-serif" stroke="none" xml:space="preserve">OC = O - C,</text>
      <text x="703.3503" font-size="17px" y="251.5298" clip-path="url(#clipPath2)" font-family="sans-serif" stroke="none" xml:space="preserve">t = -100</text>
    </g>
    <g text-rendering="geometricPrecision" stroke-miterlimit="1.45" shape-rendering="geometricPrecision" transform="matrix(1,0,0,1,-521,-44)" stroke-linecap="butt">
      <rect fill="none" x="1025.7553" width="244.2" height="81.4" y="307.05" clip-path="url(#clipPath2)"/>
      <path fill="none" d="M1035.7554 307.05 L1035.7554 388.45 M1259.9553 307.05 L1259.9553 388.45 M1035.7554 307.05 Z" clip-path="url(#clipPath2)"/>
      <text x="1091.0656" font-size="17px" y="353.6353" clip-path="url(#clipPath2)" font-family="sans-serif" stroke="none" xml:space="preserve">a = dot(D, D)</text>
    </g>
    <g text-rendering="geometricPrecision" stroke-miterlimit="1.45" shape-rendering="geometricPrecision" transform="matrix(1,0,0,1,-521,-44)" stroke-linecap="butt">
      <rect fill="none" x="1025.7553" width="244.2" height="81.4" y="404.875" clip-path="url(#clipPath2)"/>
      <path fill="none" d="M1035.7554 404.875 L1035.7554 486.275 M1259.9553 404.875 L1259.9553 486.275 M1035.7554 404.875 Z" clip-path="url(#clipPath2)"/>
      <text x="1084.7985" font-size="17px" y="451.4603" clip-path="url(#clipPath2)" font-family="sans-serif" stroke="none" xml:space="preserve">b = dot(OC, D)</text>
    </g>
    <g text-rendering="geometricPrecision" stroke-miterlimit="1.45" shape-rendering="geometricPrecision" transform="matrix(1,0,0,1,-521,-44)" stroke-linecap="butt">
      <rect fill="none" x="1025.7553" width="244.2" height="81.4" y="502.7" clip-path="url(#clipPath2)"/>
      <path fill="none" d="M1035.7554 502.7 L1035.7554 584.1 M1259.9553 502.7 L1259.9553 584.1 M1035.7554 502.7 Z" clip-path="url(#clipPath2)"/>
      <text x="1065.5614" font-size="17px" y="549.2853" clip-path="url(#clipPath2)" font-family="sans-serif" stroke="none" xml:space="preserve">c = dot(OC, OC) - 1</text>
    </g>
    <g text-rendering="geometricPrecision" stroke-miterlimit="1.45" shape-rendering="geometricPrecision" transform="matrix(1,0,0,1,-521,-44)" stroke-linecap="butt">
      <path fill="none" d="M1356.2928 307.05 L1325.7678 307.05 L1325.7678 388.45 L1356.2928 388.45" clip-path="url(#clipPath2)"/>
      <text x="1384.014" font-size="17px" y="343.7407" clip-path="url(#clipPath2)" font-family="sans-serif" stroke="none" xml:space="preserve">Скалярное</text>
      <text x="1384.014" font-size="17px" y="363.5298" clip-path="url(#clipPath2)" font-family="sans-serif" stroke="none" xml:space="preserve">произведение</text>
    </g>
    <g text-rendering="geometricPrecision" stroke-miterlimit="1.45" shape-rendering="geometricPrecision" transform="matrix(1,0,0,1,-521,-44)" stroke-linecap="butt">
      <path fill="none" d="M616.4 424.975 L860.6 424.975 L860.6 506.375 L616.4 506.375 Z" clip-path="url(#clipPath2)"/>
      <text x="642.1072" font-size="17px" y="471.5603" clip-path="url(#clipPath2)" font-family="sans-serif" stroke="none" xml:space="preserve">discr = b * b - 4 * a * c</text>
    </g>
    <g text-rendering="geometricPrecision" stroke-miterlimit="1.45" shape-rendering="geometricPrecision" transform="matrix(1,0,0,1,-521,-44)" stroke-linecap="butt">
      <path fill="none" d="M738.5 529.3163 L860.6 570.0164 L738.5 610.7164 L616.4 570.0164 Z" clip-path="url(#clipPath2)"/>
      <text x="688.741" font-size="17px" y="575.9016" clip-path="url(#clipPath2)" font-family="sans-serif" stroke="none" xml:space="preserve">disct &gt;= 0?</text>
    </g>
    <g text-rendering="geometricPrecision" stroke-miterlimit="1.45" shape-rendering="geometricPrecision" transform="matrix(1,0,0,1,-521,-44)" stroke-linecap="butt">
      <path fill="none" d="M812.8741 653.175 L1057.0741 653.175 L1057.0741 734.575 L812.8741 734.575 Z" clip-path="url(#clipPath2)"/>
      <text x="838.3115" font-size="17px" y="699.7603" clip-path="url(#clipPath2)" font-family="sans-serif" stroke="none" xml:space="preserve">t = - a / b + sqrt(discr)</text>
    </g>
    <g text-rendering="geometricPrecision" stroke-miterlimit="1.45" shape-rendering="geometricPrecision" transform="matrix(1,0,0,1,-521,-44)" stroke-linecap="butt">
      <path fill="none" d="M934.9741 764.575 L1057.0741 805.275 L934.9741 845.975 L812.8741 805.275 Z" clip-path="url(#clipPath2)"/>
      <text x="899.7538" font-size="17px" y="791.3712" clip-path="url(#clipPath2)" font-family="sans-serif" stroke="none" xml:space="preserve">t &lt; tmin</text>
      <text x="926.279" font-size="17px" y="811.1603" clip-path="url(#clipPath2)" font-family="sans-serif" stroke="none" xml:space="preserve">or</text>
      <text x="892.7521" font-size="17px" y="830.9493" clip-path="url(#clipPath2)" font-family="sans-serif" stroke="none" xml:space="preserve">t &gt; tmax?</text>
    </g>
    <g text-rendering="geometricPrecision" stroke-miterlimit="1.45" shape-rendering="geometricPrecision" transform="matrix(1,0,0,1,-521,-44)" stroke-linecap="butt">
      <path fill="none" d="M985.1481 871.525 L1229.3481 871.525 L1229.3481 952.925 L985.1481 952.925 Z" clip-path="url(#clipPath2)"/>
      <text x="1014.6405" font-size="17px" y="918.1103" clip-path="url(#clipPath2)" font-family="sans-serif" stroke="none" xml:space="preserve">t = - a / b - sqrt(discr)</text>
    </g>
    <g text-rendering="geometricPrecision" stroke-miterlimit="1.45" shape-rendering="geometricPrecision" transform="matrix(1,0,0,1,-521,-44)" stroke-linecap="butt">
      <path fill="none" d="M1107.2482 978.4751 L1229.3481 1019.1751 L1107.2482 1059.8751 L985.1481 1019.1751 Z" clip-path="url(#clipPath2)"/>
      <text x="1072.028" font-size="17px" y="1005.2713" clip-path="url(#clipPath2)" font-family="sans-serif" stroke="none" xml:space="preserve">t &lt; tmin</text>
      <text x="1098.5531" font-size="17px" y="1025.0603" clip-path="url(#clipPath2)" font-family="sans-serif" stroke="none" xml:space="preserve">or</text>
      <text x="1065.0262" font-size="17px" y="1044.8494" clip-path="url(#clipPath2)" font-family="sans-serif" stroke="none" xml:space="preserve">t &gt; tmax?</text>
    </g>
    <g text-rendering="geometricPrecision" stroke-miterlimit="1.45" shape-rendering="geometricPrecision" transform="matrix(1,0,0,1,-521,-44)" stroke-linecap="butt">
      <path fill="none" d="M637.157 1357.5947 L860.6 1357.5947 L839.843 1438.9948 L616.4 1438.9948 Z" clip-path="url(#clipPath2)"/>
      <text x="671.77" font-size="17px" y="1404.1799" clip-path="url(#clipPath2)" font-family="sans-serif" stroke="none" xml:space="preserve">Вернуть hitinfo</text>
    </g>
    <g text-rendering="geometricPrecision" stroke-miterlimit="1.45" shape-rendering="geometricPrecision" transform="matrix(1,0,0,1,-521,-44)" stroke-linecap="butt">
      <path fill="none" d="M1156.2444 1065.4252 L1400.4445 1065.4252 L1400.4445 1146.8251 L1156.2444 1146.8251 Z" clip-path="url(#clipPath2)"/>
      <text x="1243.1948" font-size="17px" y="1112.0104" clip-path="url(#clipPath2)" font-family="sans-serif" stroke="none" xml:space="preserve">t = -100</text>
    </g>
    <g text-rendering="geometricPrecision" stroke-miterlimit="1.45" shape-rendering="geometricPrecision" transform="matrix(1,0,0,1,-521,-44)" stroke-linecap="butt">
      <circle fill="none" r="20" clip-path="url(#clipPath2)" cx="1147.8553" cy="257.05"/>
      <text x="1142.0406" font-size="17px" y="262.9352" clip-path="url(#clipPath2)" font-family="sans-serif" stroke="none" xml:space="preserve">A</text>
    </g>
    <g text-rendering="geometricPrecision" stroke-miterlimit="1.45" shape-rendering="geometricPrecision" transform="matrix(1,0,0,1,-521,-44)" stroke-linecap="butt">
      <circle fill="none" r="20" clip-path="url(#clipPath2)" cx="1147.8553" cy="627.65"/>
      <text x="1142.024" font-size="17px" y="633.5353" clip-path="url(#clipPath2)" font-family="sans-serif" stroke="none" xml:space="preserve">Б</text>
    </g>
    <g text-rendering="geometricPrecision" stroke-miterlimit="1.45" shape-rendering="geometricPrecision" transform="matrix(1,0,0,1,-521,-44)" stroke-linecap="butt">
      <circle fill="none" r="20" clip-path="url(#clipPath2)" cx="738.5" cy="317.5188"/>
      <text x="732.6853" font-size="17px" y="323.404" clip-path="url(#clipPath2)" font-family="sans-serif" stroke="none" xml:space="preserve">A</text>
    </g>
    <g text-rendering="geometricPrecision" stroke-miterlimit="1.45" shape-rendering="geometricPrecision" transform="matrix(1,0,0,1,-521,-44)" stroke-linecap="butt">
      <circle fill="none" r="20" clip-path="url(#clipPath2)" cx="738.5" cy="378.5875"/>
      <text x="732.6687" font-size="17px" y="384.4727" clip-path="url(#clipPath2)" font-family="sans-serif" stroke="none" xml:space="preserve">Б</text>
    </g>
    <g text-rendering="geometricPrecision" stroke-miterlimit="1.45" shape-rendering="geometricPrecision" transform="matrix(1,0,0,1,-521,-44)" stroke-linecap="butt">
      <rect x="616.4" y="1468.9947" clip-path="url(#clipPath2)" fill="none" width="244.2" rx="40.7" ry="40.7" height="81.4"/>
      <text x="706.0356" font-size="17px" y="1515.58" clip-path="url(#clipPath2)" font-family="sans-serif" stroke="none" xml:space="preserve">Начало</text>
    </g>
    <g text-rendering="geometricPrecision" stroke-miterlimit="1.45" shape-rendering="geometricPrecision" transform="matrix(1,0,0,1,-521,-44)" stroke-linecap="butt">
      <path fill="none" d="M616.4 1256.1158 L860.6 1256.1158 L860.6 1337.5159 L616.4 1337.5159 Z" clip-path="url(#clipPath2)"/>
      <text x="689.5835" font-size="17px" y="1302.7012" clip-path="url(#clipPath2)" font-family="sans-serif" stroke="none" xml:space="preserve">hitinfo.t = t</text>
    </g>
    <g text-rendering="geometricPrecision" stroke-miterlimit="1.45" shape-rendering="geometricPrecision" transform="matrix(1,0,0,1,-521,-44)" stroke-linecap="butt">
      <path fill="none" d="M860.5852 133.35 L900.618 133.35" clip-path="url(#clipPath2)"/>
    </g>
    <g text-rendering="geometricPrecision" stroke-miterlimit="1.45" shape-rendering="geometricPrecision" transform="matrix(1,0,0,1,-521,-44)" stroke-linecap="butt">
      <path d="M908.618 133.35 L896.618 128.35 L899.618 133.35 L896.618 138.35 Z" stroke="none" clip-path="url(#clipPath2)"/>
      <path fill="none" d="M738.5 174 L738.5 187.0758" clip-path="url(#clipPath2)"/>
      <path d="M738.5 195.0758 L743.5 183.0758 L738.5 186.0758 L733.5 183.0758 Z" clip-path="url(#clipPath2)" stroke="none"/>
      <path fill="none" d="M1147.8553 388.4945 L1147.8553 396.855" clip-path="url(#clipPath2)"/>
      <path d="M1147.8553 404.855 L1152.8553 392.855 L1147.8553 395.855 L1142.8553 392.855 Z" clip-path="url(#clipPath2)" stroke="none"/>
      <path fill="none" d="M1147.8553 486.3195 L1147.8553 494.68" clip-path="url(#clipPath2)"/>
      <path d="M1147.8553 502.68 L1152.8553 490.68 L1147.8553 493.68 L1142.8553 490.68 Z" clip-path="url(#clipPath2)" stroke="none"/>
      <path fill="none" stroke-dasharray="12,4" d="M1269.9918 347.75 L1325.7952 347.75" stroke-width="2" clip-path="url(#clipPath2)"/>
      <path fill="none" d="M738.5 506.3569 L738.5 521.3278" clip-path="url(#clipPath2)"/>
      <path d="M738.5 529.3278 L743.5 517.3278 L738.5 520.3278 L733.5 517.3278 Z" clip-path="url(#clipPath2)" stroke="none"/>
      <path fill="none" d="M860.5768 570.0164 L934.9741 570.0164 L934.9741 645.2037" clip-path="url(#clipPath2)"/>
      <path d="M934.9741 653.2037 L939.9741 641.2037 L934.9741 644.2037 L929.9741 641.2037 Z" clip-path="url(#clipPath2)" stroke="none"/>
      <text x="889.1364" font-size="17px" y="560.0878" clip-path="url(#clipPath2)" font-family="sans-serif" stroke="none" xml:space="preserve">Да</text>
      <path fill="none" d="M934.9741 734.5893 L934.9741 756.5824" clip-path="url(#clipPath2)"/>
      <path d="M934.9741 764.5824 L939.9741 752.5824 L934.9741 755.5824 L929.9741 752.5824 Z" clip-path="url(#clipPath2)" stroke="none"/>
      <path fill="none" d="M1057.0717 805.275 L1107.2482 805.275 L1107.2482 863.5182" clip-path="url(#clipPath2)"/>
      <path d="M1107.2482 871.5182 L1112.2482 859.5182 L1107.2482 862.5182 L1102.2482 859.5182 Z" clip-path="url(#clipPath2)" stroke="none"/>
      <text x="1076.1713" font-size="17px" y="795.2326" clip-path="url(#clipPath2)" font-family="sans-serif" stroke="none" xml:space="preserve">Да</text>
      <path fill="none" d="M1107.2482 952.9319 L1107.2482 970.4523" clip-path="url(#clipPath2)"/>
      <path d="M1107.2482 978.4523 L1112.2482 966.4523 L1107.2482 969.4523 L1102.2482 966.4523 Z" clip-path="url(#clipPath2)" stroke="none"/>
      <path fill="none" d="M1229.3464 1019.1751 L1278.3445 1019.1751 L1278.3445 1057.4098" clip-path="url(#clipPath2)"/>
      <path d="M1278.3445 1065.4098 L1283.3445 1053.4098 L1278.3445 1056.4098 L1273.3445 1053.4098 Z" clip-path="url(#clipPath2)" stroke="none"/>
      <text x="1246.703" font-size="17px" y="1013.6416" clip-path="url(#clipPath2)" font-family="sans-serif" stroke="none" xml:space="preserve">Да</text>
      <path fill="none" d="M1147.8553 277.0631 L1147.8553 299.0475" clip-path="url(#clipPath2)"/>
      <path d="M1147.8553 307.0475 L1152.8553 295.0475 L1147.8553 298.0475 L1142.8553 295.0475 Z" clip-path="url(#clipPath2)" stroke="none"/>
      <path fill="none" d="M1147.8553 584.0852 L1147.8553 599.6119" clip-path="url(#clipPath2)"/>
      <path d="M1147.8553 607.6119 L1152.8553 595.6119 L1147.8553 598.6119 L1142.8553 595.6119 Z" clip-path="url(#clipPath2)" stroke="none"/>
      <path fill="none" d="M738.5 276.4348 L738.5 289.4983" clip-path="url(#clipPath2)"/>
      <path d="M738.5 297.4983 L743.5 285.4983 L738.5 288.4983 L733.5 285.4983 Z" clip-path="url(#clipPath2)" stroke="none"/>
      <path fill="none" d="M738.5 398.6159 L738.5 416.9746" clip-path="url(#clipPath2)"/>
      <path d="M738.5 424.9746 L743.5 412.9746 L738.5 415.9746 L733.5 412.9746 Z" clip-path="url(#clipPath2)" stroke="none"/>
      <path fill="none" d="M738.5 1439.009 L738.5 1461.0021" clip-path="url(#clipPath2)"/>
      <path d="M738.5 1469.0021 L743.5 1457.0021 L738.5 1460.0021 L733.5 1457.0021 Z" clip-path="url(#clipPath2)" stroke="none"/>
      <path fill="none" d="M1278.3445 1146.8564 L1278.3445 1187.1919 L1107.2482 1187.1919 L1107.2482 1211.1919 L934.9741 1211.1919 L934.9741 1238.1919 L738.5 1238.1919 L738.5 1248.1398" clip-path="url(#clipPath2)"/>
      <path d="M738.5 1256.1398 L743.5 1244.1398 L738.5 1247.1398 L733.5 1244.1398 Z" clip-path="url(#clipPath2)" stroke="none"/>
      <path fill="none" d="M985.1506 1019.1751 L934.9741 1019.1751 L934.9741 1187.1919 L1107.2482 1187.1919 L1107.2482 1211.1919 L934.9741 1211.1919 L934.9741 1238.1919 L738.5 1238.1919 L738.5 1248.126" clip-path="url(#clipPath2)"/>
      <path d="M738.5 1256.126 L743.5 1244.126 L738.5 1247.126 L733.5 1244.126 Z" clip-path="url(#clipPath2)" stroke="none"/>
      <path fill="none" d="M812.8414 805.275 L765.9118 805.275 L765.9118 1211.1919 L934.9741 1211.1919 L934.9741 1238.1919 L738.5 1238.1919 L738.5 1248.1499" clip-path="url(#clipPath2)"/>
      <path d="M738.5 1256.1499 L743.5 1244.1499 L738.5 1247.1499 L733.5 1244.1499 Z" clip-path="url(#clipPath2)" stroke="none"/>
      <path fill="none" d="M616.3664 570.0164 L536.2116 570.0164 L536.2116 1238.1919 L738.5 1238.1919 L738.5 1248.0757" clip-path="url(#clipPath2)"/>
      <path d="M738.5 1256.0757 L743.5 1244.0757 L738.5 1247.0757 L733.5 1244.0757 Z" clip-path="url(#clipPath2)" stroke="none"/>
      <path fill="none" d="M738.5 1337.4966 L738.5 1349.5944" clip-path="url(#clipPath2)"/>
      <path d="M738.5 1357.5944 L743.5 1345.5944 L738.5 1348.5944 L733.5 1345.5944 Z" clip-path="url(#clipPath2)" stroke="none"/>
    </g>
  </g>
</svg>
