<?xml version="1.0" encoding="UTF-8"?><svg xmlns="http://www.w3.org/2000/svg" xmlns:xlink="http://www.w3.org/1999/xlink" fill-opacity="1" color-rendering="auto" color-interpolation="auto" text-rendering="auto" stroke="black" stroke-linecap="square" width="1041" stroke-miterlimit="10" shape-rendering="auto" stroke-opacity="1" fill="black" stroke-dasharray="none" font-weight="normal" stroke-width="1" height="574" font-family="'Dialog'" font-style="normal" stroke-linejoin="miter" font-size="12px" stroke-dashoffset="0" image-rendering="auto">
  <!--Generated by ySVG 2.6-->
  <defs id="genericDefs"/>
  <g>
    <defs id="defs1">
      <clipPath clipPathUnits="userSpaceOnUse" id="clipPath1">
        <path d="M0 0 L1041 0 L1041 574 L0 574 L0 0 Z"/>
      </clipPath>
      <clipPath clipPathUnits="userSpaceOnUse" id="clipPath2">
        <path d="M14 -97 L1055 -97 L1055 477 L14 477 L14 -97 Z"/>
      </clipPath>
      <clipPath clipPathUnits="userSpaceOnUse" id="clipPath3">
        <path d="M648 354 L648 461 L836 461 L836 354 Z"/>
      </clipPath>
      <clipPath clipPathUnits="userSpaceOnUse" id="clipPath4">
        <path d="M237 351 L237 379 L425 379 L425 351 Z"/>
      </clipPath>
      <clipPath clipPathUnits="userSpaceOnUse" id="clipPath5">
        <path d="M445 354 L445 379 L633 379 L633 354 Z"/>
      </clipPath>
      <clipPath clipPathUnits="userSpaceOnUse" id="clipPath6">
        <path d="M850 354 L850 461 L1038 461 L1038 354 Z"/>
      </clipPath>
      <clipPath clipPathUnits="userSpaceOnUse" id="clipPath7">
        <path d="M132 197 L132 225 L320 225 L320 197 Z"/>
      </clipPath>
      <clipPath clipPathUnits="userSpaceOnUse" id="clipPath8">
        <path d="M648 181 L648 225 L836 225 L836 181 Z"/>
      </clipPath>
      <clipPath clipPathUnits="userSpaceOnUse" id="clipPath9">
        <path d="M390 -81 L390 62 L578 62 L578 -81 Z"/>
      </clipPath>
      <clipPath clipPathUnits="userSpaceOnUse" id="clipPath10">
        <path d="M164 -57 L164 50 L352 50 L352 -57 Z"/>
      </clipPath>
    </defs>
    <g fill="white" text-rendering="geometricPrecision" shape-rendering="geometricPrecision" transform="translate(-14,97)" stroke="white">
      <rect x="14" width="1041" height="574" y="-97" clip-path="url(#clipPath2)" stroke="none"/>
    </g>
    <g fill="rgb(244,244,244)" text-rendering="geometricPrecision" shape-rendering="geometricPrecision" transform="matrix(1,0,0,1,-14,97)" stroke="rgb(244,244,244)">
      <rect x="649" width="186" height="105" y="355" clip-path="url(#clipPath2)" stroke="none"/>
      <rect x="648" y="354" clip-path="url(#clipPath2)" fill="white" width="1" height="107" stroke="none"/>
      <rect x="649" y="354" clip-path="url(#clipPath2)" fill="white" width="186" height="1" stroke="none"/>
      <rect x="649" y="460" clip-path="url(#clipPath2)" fill="rgb(170,170,170)" width="187" height="1" stroke="none"/>
      <rect x="835" y="354" clip-path="url(#clipPath2)" fill="rgb(170,170,170)" width="1" height="106" stroke="none"/>
    </g>
    <g font-size="13px" stroke-linecap="butt" transform="matrix(1,0,0,1,-14,97)" text-rendering="geometricPrecision" font-family="sans-serif" shape-rendering="geometricPrecision" font-weight="bold" stroke-miterlimit="1.45">
      <text x="714.7559" xml:space="preserve" y="371.2911" clip-path="url(#clipPath3)" stroke="none">Camera</text>
    </g>
    <g text-rendering="geometricPrecision" shape-rendering="geometricPrecision" transform="matrix(1,0,0,1,-14,97)">
      <line y2="379" fill="none" x1="649" clip-path="url(#clipPath3)" x2="836" y1="379"/>
      <line y2="389" fill="none" x1="649" clip-path="url(#clipPath3)" x2="836" y1="389"/>
      <text stroke-linecap="butt" x="653.3281" y="405.4957" clip-path="url(#clipPath3)" font-family="sans-serif" stroke="none" stroke-miterlimit="1.45" xml:space="preserve">+ get_pos()</text>
      <text stroke-linecap="butt" x="653.3281" y="419.4644" clip-path="url(#clipPath3)" font-family="sans-serif" stroke="none" stroke-miterlimit="1.45" xml:space="preserve">+ get_view()</text>
      <text stroke-linecap="butt" x="653.3281" y="433.4332" clip-path="url(#clipPath3)" font-family="sans-serif" stroke="none" stroke-miterlimit="1.45" xml:space="preserve">+ rotate()</text>
      <text stroke-linecap="butt" x="653.3281" y="447.4019" clip-path="url(#clipPath3)" font-family="sans-serif" stroke="none" stroke-miterlimit="1.45" xml:space="preserve">+ get_ray()</text>
      <rect x="30" y="352" clip-path="url(#clipPath2)" fill="rgb(244,244,244)" width="186" height="72" stroke="none"/>
      <rect x="29" y="351" clip-path="url(#clipPath2)" fill="white" width="1" height="74" stroke="none"/>
      <rect x="30" y="351" clip-path="url(#clipPath2)" fill="white" width="186" height="1" stroke="none"/>
      <rect x="30" y="424" clip-path="url(#clipPath2)" fill="rgb(170,170,170)" width="187" height="1" stroke="none"/>
      <rect x="216" y="351" clip-path="url(#clipPath2)" fill="rgb(170,170,170)" width="1" height="73" stroke="none"/>
    </g>
    <g font-size="13px" stroke-linecap="butt" transform="matrix(1,0,0,1,-14,97)" text-rendering="geometricPrecision" font-family="sans-serif" shape-rendering="geometricPrecision" font-weight="bold" stroke-miterlimit="1.45">
      <text x="101.4376" xml:space="preserve" y="368.2911" clip-path="url(#clipPath2)" stroke="none">Model</text>
    </g>
    <g text-rendering="geometricPrecision" shape-rendering="geometricPrecision" transform="matrix(1,0,0,1,-14,97)">
      <line y2="376" fill="none" x1="30" clip-path="url(#clipPath2)" x2="217" y1="376"/>
      <line y2="386" fill="none" x1="30" clip-path="url(#clipPath2)" x2="217" y1="386"/>
      <text stroke-linecap="butt" x="34.3033" y="402.4957" clip-path="url(#clipPath2)" font-family="sans-serif" stroke="none" stroke-miterlimit="1.45" xml:space="preserve">+ generate_kd_tree()</text>
      <text stroke-linecap="butt" x="34.3033" y="416.4644" clip-path="url(#clipPath2)" font-family="sans-serif" stroke="none" stroke-miterlimit="1.45" xml:space="preserve">+ add()</text>
      <rect x="238" y="352" clip-path="url(#clipPath2)" fill="rgb(244,244,244)" width="186" height="26" stroke="none"/>
      <rect x="237" y="351" clip-path="url(#clipPath2)" fill="white" width="1" height="28" stroke="none"/>
      <rect x="238" y="351" clip-path="url(#clipPath2)" fill="white" width="186" height="1" stroke="none"/>
      <rect x="238" y="378" clip-path="url(#clipPath2)" fill="rgb(170,170,170)" width="187" height="1" stroke="none"/>
      <rect x="424" y="351" clip-path="url(#clipPath2)" fill="rgb(170,170,170)" width="1" height="27" stroke="none"/>
    </g>
    <g font-size="13px" stroke-linecap="butt" transform="matrix(1,0,0,1,-14,97)" text-rendering="geometricPrecision" font-family="sans-serif" shape-rendering="geometricPrecision" font-weight="bold" stroke-miterlimit="1.45">
      <text x="301.7621" xml:space="preserve" y="368.2911" clip-path="url(#clipPath4)" stroke="none">Triangle</text>
    </g>
    <g fill="rgb(244,244,244)" text-rendering="geometricPrecision" shape-rendering="geometricPrecision" transform="matrix(1,0,0,1,-14,97)" stroke="rgb(244,244,244)">
      <rect x="446" width="186" height="23" y="355" clip-path="url(#clipPath2)" stroke="none"/>
      <rect x="445" y="354" clip-path="url(#clipPath2)" fill="white" width="1" height="25" stroke="none"/>
      <rect x="446" y="354" clip-path="url(#clipPath2)" fill="white" width="186" height="1" stroke="none"/>
      <rect x="446" y="378" clip-path="url(#clipPath2)" fill="rgb(170,170,170)" width="187" height="1" stroke="none"/>
      <rect x="632" y="354" clip-path="url(#clipPath2)" fill="rgb(170,170,170)" width="1" height="24" stroke="none"/>
    </g>
    <g font-size="13px" stroke-linecap="butt" transform="matrix(1,0,0,1,-14,97)" text-rendering="geometricPrecision" font-family="sans-serif" shape-rendering="geometricPrecision" font-weight="bold" stroke-miterlimit="1.45">
      <text x="513.3156" xml:space="preserve" y="371.2911" clip-path="url(#clipPath5)" stroke="none">KDTree</text>
    </g>
    <g fill="rgb(244,244,244)" text-rendering="geometricPrecision" shape-rendering="geometricPrecision" transform="matrix(1,0,0,1,-14,97)" stroke="rgb(244,244,244)">
      <rect x="851" width="186" height="105" y="355" clip-path="url(#clipPath2)" stroke="none"/>
      <rect x="850" y="354" clip-path="url(#clipPath2)" fill="white" width="1" height="107" stroke="none"/>
      <rect x="851" y="354" clip-path="url(#clipPath2)" fill="white" width="186" height="1" stroke="none"/>
      <rect x="851" y="460" clip-path="url(#clipPath2)" fill="rgb(170,170,170)" width="187" height="1" stroke="none"/>
      <rect x="1037" y="354" clip-path="url(#clipPath2)" fill="rgb(170,170,170)" width="1" height="106" stroke="none"/>
    </g>
    <g font-size="13px" stroke-linecap="butt" transform="matrix(1,0,0,1,-14,97)" text-rendering="geometricPrecision" font-family="sans-serif" shape-rendering="geometricPrecision" font-weight="bold" stroke-miterlimit="1.45">
      <text x="926.4095" xml:space="preserve" y="371.2911" clip-path="url(#clipPath6)" stroke="none">Light</text>
    </g>
    <g text-rendering="geometricPrecision" shape-rendering="geometricPrecision" transform="matrix(1,0,0,1,-14,97)">
      <line y2="379" fill="none" x1="851" clip-path="url(#clipPath6)" x2="1038" y1="379"/>
      <line y2="389" fill="none" x1="851" clip-path="url(#clipPath6)" x2="1038" y1="389"/>
      <text stroke-linecap="butt" x="855.8094" y="405.4957" clip-path="url(#clipPath6)" font-family="sans-serif" stroke="none" stroke-miterlimit="1.45" xml:space="preserve">+ get_ints()</text>
      <text stroke-linecap="butt" x="855.8094" y="419.4644" clip-path="url(#clipPath6)" font-family="sans-serif" stroke="none" stroke-miterlimit="1.45" xml:space="preserve">+ set_ints()</text>
      <text stroke-linecap="butt" x="855.8094" y="433.4332" clip-path="url(#clipPath6)" font-family="sans-serif" stroke="none" stroke-miterlimit="1.45" xml:space="preserve">+ get_position()</text>
      <text stroke-linecap="butt" x="855.8094" y="447.4019" clip-path="url(#clipPath6)" font-family="sans-serif" stroke="none" stroke-miterlimit="1.45" xml:space="preserve">+ get_ray()</text>
      <rect x="133" y="198" clip-path="url(#clipPath2)" fill="rgb(244,244,244)" width="186" height="26" stroke="none"/>
      <rect x="132" y="197" clip-path="url(#clipPath2)" fill="white" width="1" height="28" stroke="none"/>
      <rect x="133" y="197" clip-path="url(#clipPath2)" fill="white" width="186" height="1" stroke="none"/>
      <rect x="133" y="224" clip-path="url(#clipPath2)" fill="rgb(170,170,170)" width="187" height="1" stroke="none"/>
      <rect x="319" y="197" clip-path="url(#clipPath2)" fill="rgb(170,170,170)" width="1" height="27" stroke="none"/>
    </g>
    <g font-size="13px" stroke-linecap="butt" transform="matrix(1,0,0,1,-14,97)" text-rendering="geometricPrecision" font-family="sans-serif" shape-rendering="geometricPrecision" font-weight="bold" stroke-miterlimit="1.45">
      <text x="178.5139" xml:space="preserve" y="214.4672" clip-path="url(#clipPath7)" stroke="none">VisibleObject</text>
    </g>
    <g fill="rgb(244,244,244)" text-rendering="geometricPrecision" shape-rendering="geometricPrecision" transform="matrix(1,0,0,1,-14,97)" stroke="rgb(244,244,244)">
      <rect x="649" width="186" height="42" y="182" clip-path="url(#clipPath2)" stroke="none"/>
      <rect x="648" y="181" clip-path="url(#clipPath2)" fill="white" width="1" height="44" stroke="none"/>
      <rect x="649" y="181" clip-path="url(#clipPath2)" fill="white" width="186" height="1" stroke="none"/>
      <rect x="649" y="224" clip-path="url(#clipPath2)" fill="rgb(170,170,170)" width="187" height="1" stroke="none"/>
      <rect x="835" y="181" clip-path="url(#clipPath2)" fill="rgb(170,170,170)" width="1" height="43" stroke="none"/>
    </g>
    <g font-size="13px" stroke-linecap="butt" transform="matrix(1,0,0,1,-14,97)" text-rendering="geometricPrecision" font-family="sans-serif" shape-rendering="geometricPrecision" font-weight="bold" stroke-miterlimit="1.45">
      <text x="687.8481" xml:space="preserve" y="198.4672" clip-path="url(#clipPath8)" stroke="none">&lt;&lt;interface&gt;&gt;</text>
      <text x="688.0132" xml:space="preserve" y="213.6" clip-path="url(#clipPath8)" stroke="none">InvisibleObject</text>
    </g>
    <g fill="rgb(244,244,244)" text-rendering="geometricPrecision" shape-rendering="geometricPrecision" transform="matrix(1,0,0,1,-14,97)" stroke="rgb(244,244,244)">
      <rect x="391" width="186" height="141" y="-80" clip-path="url(#clipPath2)" stroke="none"/>
      <rect x="390" y="-81" clip-path="url(#clipPath2)" fill="white" width="1" height="143" stroke="none"/>
      <rect x="391" y="-81" clip-path="url(#clipPath2)" fill="white" width="186" height="1" stroke="none"/>
      <rect x="391" y="61" clip-path="url(#clipPath2)" fill="rgb(170,170,170)" width="187" height="1" stroke="none"/>
      <rect x="577" y="-81" clip-path="url(#clipPath2)" fill="rgb(170,170,170)" width="1" height="142" stroke="none"/>
    </g>
    <g font-size="13px" stroke-linecap="butt" transform="matrix(1,0,0,1,-14,97)" text-rendering="geometricPrecision" font-family="sans-serif" shape-rendering="geometricPrecision" font-weight="bold" stroke-miterlimit="1.45">
      <text x="460.7627" xml:space="preserve" y="-64.887" clip-path="url(#clipPath9)" stroke="none">Object</text>
    </g>
    <g text-rendering="geometricPrecision" shape-rendering="geometricPrecision" transform="matrix(1,0,0,1,-14,97)">
      <line y2="-56" fill="none" x1="391" clip-path="url(#clipPath9)" x2="577" y1="-56"/>
      <line y2="-46" fill="none" x1="391" clip-path="url(#clipPath9)" x2="577" y1="-46"/>
      <text stroke-linecap="butt" x="395.1804" y="-30.6824" clip-path="url(#clipPath9)" font-family="sans-serif" stroke="none" stroke-miterlimit="1.45" xml:space="preserve">+move()</text>
      <text stroke-linecap="butt" x="395.1804" y="-16.7136" clip-path="url(#clipPath9)" font-family="sans-serif" stroke="none" stroke-miterlimit="1.45" xml:space="preserve">+ scale()</text>
      <text stroke-linecap="butt" x="395.1804" y="-2.7449" clip-path="url(#clipPath9)" font-family="sans-serif" stroke="none" stroke-miterlimit="1.45" xml:space="preserve">+hit()</text>
      <text stroke-linecap="butt" x="395.1804" y="11.2239" clip-path="url(#clipPath9)" font-family="sans-serif" stroke="none" stroke-miterlimit="1.45" xml:space="preserve">+set_material()</text>
      <text stroke-linecap="butt" x="395.1804" y="25.1926" clip-path="url(#clipPath9)" font-family="sans-serif" stroke="none" stroke-miterlimit="1.45" xml:space="preserve">+is_visible()</text>
      <text stroke-linecap="butt" x="395.1804" y="39.1614" clip-path="url(#clipPath9)" font-family="sans-serif" stroke="none" stroke-miterlimit="1.45" xml:space="preserve">+bbox()</text>
      <text stroke-linecap="butt" x="395.1804" y="53.1301" clip-path="url(#clipPath9)" font-family="sans-serif" stroke="none" stroke-miterlimit="1.45" xml:space="preserve">+get_center()</text>
      <rect x="165" y="-56" clip-path="url(#clipPath2)" fill="rgb(244,244,244)" width="186" height="105" stroke="none"/>
      <rect x="164" y="-57" clip-path="url(#clipPath2)" fill="white" width="1" height="107" stroke="none"/>
      <rect x="165" y="-57" clip-path="url(#clipPath2)" fill="white" width="186" height="1" stroke="none"/>
      <rect x="165" y="49" clip-path="url(#clipPath2)" fill="rgb(170,170,170)" width="187" height="1" stroke="none"/>
      <rect x="351" y="-57" clip-path="url(#clipPath2)" fill="rgb(170,170,170)" width="1" height="106" stroke="none"/>
    </g>
    <g font-size="13px" stroke-linecap="butt" transform="matrix(1,0,0,1,-14,97)" text-rendering="geometricPrecision" font-family="sans-serif" shape-rendering="geometricPrecision" font-weight="bold" stroke-miterlimit="1.45">
      <text x="240.296" xml:space="preserve" y="-40.0389" clip-path="url(#clipPath10)" stroke="none">BBox</text>
    </g>
    <g text-rendering="geometricPrecision" shape-rendering="geometricPrecision" transform="matrix(1,0,0,1,-14,97)">
      <line y2="-31" fill="none" x1="165" clip-path="url(#clipPath10)" x2="352" y1="-31"/>
      <line y2="-21" fill="none" x1="165" clip-path="url(#clipPath10)" x2="352" y1="-21"/>
      <text stroke-linecap="butt" x="169.5054" y="-5.8343" clip-path="url(#clipPath10)" font-family="sans-serif" stroke="none" stroke-miterlimit="1.45" xml:space="preserve">+ get_min()</text>
      <text stroke-linecap="butt" x="169.5054" y="8.1345" clip-path="url(#clipPath10)" font-family="sans-serif" stroke="none" stroke-miterlimit="1.45" xml:space="preserve">+ get_max()</text>
      <text stroke-linecap="butt" x="169.5054" y="22.1032" clip-path="url(#clipPath10)" font-family="sans-serif" stroke="none" stroke-miterlimit="1.45" xml:space="preserve">+ hit()</text>
      <text stroke-linecap="butt" x="169.5054" y="36.072" clip-path="url(#clipPath10)" font-family="sans-serif" stroke="none" stroke-miterlimit="1.45" xml:space="preserve">+ expand()</text>
      <path fill="none" stroke-miterlimit="1.45" d="M331.9325 351.2484 L331.9325 267.5367 L260.9338 267.5367 L260.9338 240.407" clip-path="url(#clipPath2)" stroke-linecap="butt"/>
    </g>
    <g stroke-linecap="butt" transform="matrix(1,0,0,1,-14,97)" fill="white" text-rendering="geometricPrecision" shape-rendering="geometricPrecision" stroke="white" stroke-miterlimit="1.45">
      <path d="M260.9338 225.407 L254.9338 241.407 L266.9338 241.407 Z" stroke="none" clip-path="url(#clipPath2)"/>
      <path fill="none" d="M260.9338 225.407 L254.9338 241.407 L266.9338 241.407 Z" clip-path="url(#clipPath2)" stroke="black"/>
      <path fill="none" stroke-dasharray="6,2" d="M123.6607 351.246 L123.6607 267.5367 L179.9339 267.5367 L179.9339 240.4433" clip-path="url(#clipPath2)" stroke="black"/>
      <path stroke-dasharray="6,2" d="M179.9339 225.4433 L173.9339 241.4433 L185.9339 241.4433 Z" clip-path="url(#clipPath2)" stroke="none"/>
      <path fill="none" d="M179.9339 225.4433 L173.9339 241.4433 L185.9339 241.4433 Z" clip-path="url(#clipPath2)" stroke="black"/>
      <path fill="none" stroke-dasharray="6,2" d="M731.2714 354.2506 L731.2714 278.2242 L787.6855 278.2242 L787.6855 240.431" clip-path="url(#clipPath2)" stroke="black"/>
      <path stroke-dasharray="6,2" d="M787.6855 225.431 L781.6855 241.431 L793.6855 241.431 Z" clip-path="url(#clipPath2)" stroke="none"/>
      <path fill="none" d="M787.6855 225.431 L781.6855 241.431 L793.6855 241.431 Z" clip-path="url(#clipPath2)" stroke="black"/>
      <path fill="none" stroke-dasharray="6,2" d="M945.1669 354.2333 L945.1669 278.2242 L787.6855 278.2242 L787.6855 240.431" clip-path="url(#clipPath2)" stroke="black"/>
      <path stroke-dasharray="6,2" d="M787.6855 225.431 L781.6855 241.431 L793.6855 241.431 Z" clip-path="url(#clipPath2)" stroke="none"/>
      <path fill="none" d="M787.6855 225.431 L781.6855 241.431 L793.6855 241.431 Z" clip-path="url(#clipPath2)" stroke="black"/>
      <path fill="none" d="M540.2043 354.2357 L540.2043 278.2242 L689.6855 278.2242 L689.6855 240.3983" clip-path="url(#clipPath2)" stroke="black"/>
      <path d="M689.6855 225.3983 L683.6855 241.3983 L695.6855 241.3983 Z" clip-path="url(#clipPath2)" stroke="none"/>
      <path fill="none" d="M689.6855 225.3983 L683.6855 241.3983 L695.6855 241.3983 Z" clip-path="url(#clipPath2)" stroke="black"/>
      <path fill="none" d="M742.6855 181.3874 L742.6855 140.3479 L484.5378 140.3479 L484.5378 76.0812" clip-path="url(#clipPath2)" stroke="black"/>
      <path d="M484.5378 61.0812 L478.5378 77.0812 L490.5378 77.0812 Z" clip-path="url(#clipPath2)" stroke="none"/>
      <path fill="none" d="M484.5378 61.0812 L478.5378 77.0812 L490.5378 77.0812 Z" clip-path="url(#clipPath2)" stroke="black"/>
      <path fill="none" d="M226.9339 197.4188 L226.9339 140.3479 L484.5378 140.3479 L484.5378 76.0305" clip-path="url(#clipPath2)" stroke="black"/>
      <path d="M484.5378 61.0305 L478.5378 77.0305 L490.5378 77.0305 Z" clip-path="url(#clipPath2)" stroke="none"/>
      <path fill="none" d="M484.5378 61.0305 L478.5378 77.0305 L490.5378 77.0305 Z" clip-path="url(#clipPath2)" stroke="black"/>
      <path fill="none" d="M383.2084 3.4327 L353.1901 3.4327" clip-path="url(#clipPath2)" stroke="black"/>
      <path fill="black" d="M390.2084 3.4327 L383.2084 8.4327 L376.2084 3.4327 L383.2084 -1.5673 Z" clip-path="url(#clipPath2)" stroke="none"/>
    </g>
  </g>
</svg>
