<?xml version="1.0" encoding="UTF-8"?><svg xmlns="http://www.w3.org/2000/svg" xmlns:xlink="http://www.w3.org/1999/xlink" fill-opacity="1" color-rendering="auto" color-interpolation="auto" text-rendering="auto" stroke="black" stroke-linecap="square" width="1207" stroke-miterlimit="10" shape-rendering="auto" stroke-opacity="1" fill="black" stroke-dasharray="none" font-weight="normal" stroke-width="1" height="466" font-family="'Dialog'" font-style="normal" stroke-linejoin="miter" font-size="12px" stroke-dashoffset="0" image-rendering="auto">
  <!--Generated by ySVG 2.6-->
  <defs id="genericDefs"/>
  <g>
    <defs id="defs1">
      <clipPath clipPathUnits="userSpaceOnUse" id="clipPath1">
        <path d="M0 0 L1207 0 L1207 466 L0 466 L0 0 Z"/>
      </clipPath>
      <clipPath clipPathUnits="userSpaceOnUse" id="clipPath2">
        <path d="M-278 73 L929 73 L929 539 L-278 539 L-278 73 Z"/>
      </clipPath>
      <clipPath clipPathUnits="userSpaceOnUse" id="clipPath3">
        <path d="M32 367 L32 429 L220 429 L220 367 Z"/>
      </clipPath>
      <clipPath clipPathUnits="userSpaceOnUse" id="clipPath4">
        <path d="M159 212 L159 273 L347 273 L347 212 Z"/>
      </clipPath>
      <clipPath clipPathUnits="userSpaceOnUse" id="clipPath5">
        <path d="M-262 367 L-262 429 L-74 429 L-74 367 Z"/>
      </clipPath>
      <clipPath clipPathUnits="userSpaceOnUse" id="clipPath6">
        <path d="M-105 459 L-105 521 L83 521 L83 459 Z"/>
      </clipPath>
      <clipPath clipPathUnits="userSpaceOnUse" id="clipPath7">
        <path d="M159 88 L159 165 L347 165 L347 88 Z"/>
      </clipPath>
      <clipPath clipPathUnits="userSpaceOnUse" id="clipPath8">
        <path d="M328 367 L328 429 L516 429 L516 367 Z"/>
      </clipPath>
      <clipPath clipPathUnits="userSpaceOnUse" id="clipPath9">
        <path d="M561 367 L561 429 L749 429 L749 367 Z"/>
      </clipPath>
      <clipPath clipPathUnits="userSpaceOnUse" id="clipPath10">
        <path d="M192 461 L192 523 L380 523 L380 461 Z"/>
      </clipPath>
      <clipPath clipPathUnits="userSpaceOnUse" id="clipPath11">
        <path d="M442 466 L442 523 L630 523 L630 466 Z"/>
      </clipPath>
      <clipPath clipPathUnits="userSpaceOnUse" id="clipPath12">
        <path d="M725 466 L725 523 L913 523 L913 466 Z"/>
      </clipPath>
    </defs>
    <g fill="white" text-rendering="geometricPrecision" shape-rendering="geometricPrecision" transform="translate(278,-73)" stroke="white">
      <rect x="-278" width="1207" height="466" y="73" clip-path="url(#clipPath2)" stroke="none"/>
    </g>
    <g fill="rgb(244,244,244)" text-rendering="geometricPrecision" shape-rendering="geometricPrecision" transform="matrix(1,0,0,1,278,-73)" stroke="rgb(244,244,244)">
      <rect x="33" width="186" height="60" y="368" clip-path="url(#clipPath2)" stroke="none"/>
      <rect x="32" y="367" clip-path="url(#clipPath2)" fill="white" width="1" height="62" stroke="none"/>
      <rect x="33" y="367" clip-path="url(#clipPath2)" fill="white" width="186" height="1" stroke="none"/>
      <rect x="33" y="428" clip-path="url(#clipPath2)" fill="rgb(170,170,170)" width="187" height="1" stroke="none"/>
      <rect x="219" y="367" clip-path="url(#clipPath2)" fill="rgb(170,170,170)" width="1" height="61" stroke="none"/>
    </g>
    <g font-size="13px" stroke-linecap="butt" transform="matrix(1,0,0,1,278,-73)" text-rendering="geometricPrecision" font-family="sans-serif" shape-rendering="geometricPrecision" font-weight="bold" stroke-miterlimit="1.45">
      <text x="88.8208" xml:space="preserve" y="384.1877" clip-path="url(#clipPath3)" stroke="none">MoveLight</text>
    </g>
    <g text-rendering="geometricPrecision" shape-rendering="geometricPrecision" transform="matrix(1,0,0,1,278,-73)">
      <line y2="392" fill="none" x1="33" clip-path="url(#clipPath3)" x2="220" y1="392"/>
      <line y2="402" fill="none" x1="33" clip-path="url(#clipPath3)" x2="220" y1="402"/>
      <text stroke-linecap="butt" x="37.8" y="418.3923" clip-path="url(#clipPath3)" font-family="sans-serif" stroke="none" stroke-miterlimit="1.45" xml:space="preserve">+ execute()</text>
      <rect x="160" y="213" clip-path="url(#clipPath2)" fill="rgb(244,244,244)" width="186" height="59" stroke="none"/>
      <rect x="159" y="212" clip-path="url(#clipPath2)" fill="white" width="1" height="61" stroke="none"/>
      <rect x="160" y="212" clip-path="url(#clipPath2)" fill="white" width="186" height="1" stroke="none"/>
      <rect x="160" y="272" clip-path="url(#clipPath2)" fill="rgb(170,170,170)" width="187" height="1" stroke="none"/>
      <rect x="346" y="212" clip-path="url(#clipPath2)" fill="rgb(170,170,170)" width="1" height="60" stroke="none"/>
    </g>
    <g font-size="13px" stroke-linecap="butt" transform="matrix(1,0,0,1,278,-73)" text-rendering="geometricPrecision" font-family="sans-serif" shape-rendering="geometricPrecision" font-weight="bold" stroke-miterlimit="1.45">
      <text x="195.9179" xml:space="preserve" y="229.6132" clip-path="url(#clipPath4)" stroke="none">SceneCommand</text>
    </g>
    <g text-rendering="geometricPrecision" shape-rendering="geometricPrecision" transform="matrix(1,0,0,1,278,-73)">
      <line y2="237" fill="none" x1="160" clip-path="url(#clipPath4)" x2="347" y1="237"/>
      <line y2="247" fill="none" x1="160" clip-path="url(#clipPath4)" x2="347" y1="247"/>
      <text stroke-linecap="butt" x="164.9875" y="263.8177" clip-path="url(#clipPath4)" font-family="sans-serif" stroke="none" stroke-miterlimit="1.45" xml:space="preserve">+ execute()</text>
      <rect x="-261" y="368" clip-path="url(#clipPath2)" fill="rgb(244,244,244)" width="186" height="60" stroke="none"/>
      <rect x="-262" y="367" clip-path="url(#clipPath2)" fill="white" width="1" height="62" stroke="none"/>
      <rect x="-261" y="367" clip-path="url(#clipPath2)" fill="white" width="186" height="1" stroke="none"/>
      <rect x="-261" y="428" clip-path="url(#clipPath2)" fill="rgb(170,170,170)" width="187" height="1" stroke="none"/>
      <rect x="-75" y="367" clip-path="url(#clipPath2)" fill="rgb(170,170,170)" width="1" height="61" stroke="none"/>
    </g>
    <g font-size="13px" stroke-linecap="butt" transform="matrix(1,0,0,1,278,-73)" text-rendering="geometricPrecision" font-family="sans-serif" shape-rendering="geometricPrecision" font-weight="bold" stroke-miterlimit="1.45">
      <text x="-209.2041" xml:space="preserve" y="384.1877" clip-path="url(#clipPath5)" stroke="none">DrawScene</text>
    </g>
    <g text-rendering="geometricPrecision" shape-rendering="geometricPrecision" transform="matrix(1,0,0,1,278,-73)">
      <line y2="392" fill="none" x1="-261" clip-path="url(#clipPath5)" x2="-74" y1="392"/>
      <line y2="402" fill="none" x1="-261" clip-path="url(#clipPath5)" x2="-74" y1="402"/>
      <text stroke-linecap="butt" x="-257.5906" y="418.3923" clip-path="url(#clipPath5)" font-family="sans-serif" stroke="none" stroke-miterlimit="1.45" xml:space="preserve">+ execute()</text>
      <rect x="-104" y="460" clip-path="url(#clipPath2)" fill="rgb(244,244,244)" width="186" height="60" stroke="none"/>
      <rect x="-105" y="459" clip-path="url(#clipPath2)" fill="white" width="1" height="62" stroke="none"/>
      <rect x="-104" y="459" clip-path="url(#clipPath2)" fill="white" width="186" height="1" stroke="none"/>
      <rect x="-104" y="520" clip-path="url(#clipPath2)" fill="rgb(170,170,170)" width="187" height="1" stroke="none"/>
      <rect x="82" y="459" clip-path="url(#clipPath2)" fill="rgb(170,170,170)" width="1" height="61" stroke="none"/>
    </g>
    <g font-size="13px" stroke-linecap="butt" transform="matrix(1,0,0,1,278,-73)" text-rendering="geometricPrecision" font-family="sans-serif" shape-rendering="geometricPrecision" font-weight="bold" stroke-miterlimit="1.45">
      <text x="-91.9493" xml:space="preserve" y="476.1877" clip-path="url(#clipPath6)" stroke="none">ChangeMirrorMaterial</text>
    </g>
    <g text-rendering="geometricPrecision" shape-rendering="geometricPrecision" transform="matrix(1,0,0,1,278,-73)">
      <line y2="484" fill="none" x1="-104" clip-path="url(#clipPath6)" x2="82" y1="484"/>
      <line y2="494" fill="none" x1="-104" clip-path="url(#clipPath6)" x2="82" y1="494"/>
      <text stroke-linecap="butt" x="-100.6375" y="510.3923" clip-path="url(#clipPath6)" font-family="sans-serif" stroke="none" stroke-miterlimit="1.45" xml:space="preserve">+ execute()</text>
      <rect x="160" y="89" clip-path="url(#clipPath2)" fill="rgb(244,244,244)" width="186" height="75" stroke="none"/>
      <rect x="159" y="88" clip-path="url(#clipPath2)" fill="white" width="1" height="77" stroke="none"/>
      <rect x="160" y="88" clip-path="url(#clipPath2)" fill="white" width="186" height="1" stroke="none"/>
      <rect x="160" y="164" clip-path="url(#clipPath2)" fill="rgb(170,170,170)" width="187" height="1" stroke="none"/>
      <rect x="346" y="88" clip-path="url(#clipPath2)" fill="rgb(170,170,170)" width="1" height="76" stroke="none"/>
    </g>
    <g font-size="13px" stroke-linecap="butt" transform="matrix(1,0,0,1,278,-73)" text-rendering="geometricPrecision" font-family="sans-serif" shape-rendering="geometricPrecision" font-weight="bold" stroke-miterlimit="1.45">
      <text x="200.2788" xml:space="preserve" y="105.6132" clip-path="url(#clipPath7)" stroke="none">BaseCommand</text>
    </g>
    <g text-rendering="geometricPrecision" shape-rendering="geometricPrecision" transform="matrix(1,0,0,1,278,-73)">
      <line y2="113" fill="none" x1="160" clip-path="url(#clipPath7)" x2="347" y1="113"/>
      <line y2="123" fill="none" x1="160" clip-path="url(#clipPath7)" x2="347" y1="123"/>
      <text stroke-linecap="butt" x="164.9875" y="139.8177" clip-path="url(#clipPath7)" font-family="sans-serif" stroke="none" stroke-miterlimit="1.45" xml:space="preserve">+ execute()</text>
      <text stroke-linecap="butt" x="164.9875" y="153.7865" clip-path="url(#clipPath7)" font-family="sans-serif" stroke="none" stroke-miterlimit="1.45" xml:space="preserve">+ set_handler()</text>
      <rect x="329" y="368" clip-path="url(#clipPath2)" fill="rgb(244,244,244)" width="186" height="60" stroke="none"/>
      <rect x="328" y="367" clip-path="url(#clipPath2)" fill="white" width="1" height="62" stroke="none"/>
      <rect x="329" y="367" clip-path="url(#clipPath2)" fill="white" width="186" height="1" stroke="none"/>
      <rect x="329" y="428" clip-path="url(#clipPath2)" fill="rgb(170,170,170)" width="187" height="1" stroke="none"/>
      <rect x="515" y="367" clip-path="url(#clipPath2)" fill="rgb(170,170,170)" width="1" height="61" stroke="none"/>
    </g>
    <g font-size="13px" stroke-linecap="butt" transform="matrix(1,0,0,1,278,-73)" text-rendering="geometricPrecision" font-family="sans-serif" shape-rendering="geometricPrecision" font-weight="bold" stroke-miterlimit="1.45">
      <text x="371.3002" xml:space="preserve" y="384.1877" clip-path="url(#clipPath8)" stroke="none">ChangeObject</text>
    </g>
    <g text-rendering="geometricPrecision" shape-rendering="geometricPrecision" transform="matrix(1,0,0,1,278,-73)">
      <line y2="392" fill="none" x1="329" clip-path="url(#clipPath8)" x2="515" y1="392"/>
      <line y2="402" fill="none" x1="329" clip-path="url(#clipPath8)" x2="515" y1="402"/>
      <text stroke-linecap="butt" x="333.1906" y="418.3923" clip-path="url(#clipPath8)" font-family="sans-serif" stroke="none" stroke-miterlimit="1.45" xml:space="preserve">+ execute()</text>
      <rect x="562" y="368" clip-path="url(#clipPath2)" fill="rgb(244,244,244)" width="186" height="60" stroke="none"/>
      <rect x="561" y="367" clip-path="url(#clipPath2)" fill="white" width="1" height="62" stroke="none"/>
      <rect x="562" y="367" clip-path="url(#clipPath2)" fill="white" width="186" height="1" stroke="none"/>
      <rect x="562" y="428" clip-path="url(#clipPath2)" fill="rgb(170,170,170)" width="187" height="1" stroke="none"/>
      <rect x="748" y="367" clip-path="url(#clipPath2)" fill="rgb(170,170,170)" width="1" height="61" stroke="none"/>
    </g>
    <g font-size="13px" stroke-linecap="butt" transform="matrix(1,0,0,1,278,-73)" text-rendering="geometricPrecision" font-family="sans-serif" shape-rendering="geometricPrecision" font-weight="bold" stroke-miterlimit="1.45">
      <text x="590.351" xml:space="preserve" y="384.1877" clip-path="url(#clipPath9)" stroke="none">ChangeLightColor</text>
    </g>
    <g text-rendering="geometricPrecision" shape-rendering="geometricPrecision" transform="matrix(1,0,0,1,278,-73)">
      <line y2="392" fill="none" x1="562" clip-path="url(#clipPath9)" x2="749" y1="392"/>
      <line y2="402" fill="none" x1="562" clip-path="url(#clipPath9)" x2="749" y1="402"/>
      <text stroke-linecap="butt" x="566.3586" y="418.3923" clip-path="url(#clipPath9)" font-family="sans-serif" stroke="none" stroke-miterlimit="1.45" xml:space="preserve">+ execute()</text>
      <rect x="193" y="462" clip-path="url(#clipPath2)" fill="rgb(244,244,244)" width="186" height="60" stroke="none"/>
      <rect x="192" y="461" clip-path="url(#clipPath2)" fill="white" width="1" height="62" stroke="none"/>
      <rect x="193" y="461" clip-path="url(#clipPath2)" fill="white" width="186" height="1" stroke="none"/>
      <rect x="193" y="522" clip-path="url(#clipPath2)" fill="rgb(170,170,170)" width="187" height="1" stroke="none"/>
      <rect x="379" y="461" clip-path="url(#clipPath2)" fill="rgb(170,170,170)" width="1" height="61" stroke="none"/>
    </g>
    <g font-size="13px" stroke-linecap="butt" transform="matrix(1,0,0,1,278,-73)" text-rendering="geometricPrecision" font-family="sans-serif" shape-rendering="geometricPrecision" font-weight="bold" stroke-miterlimit="1.45">
      <text x="199.1879" xml:space="preserve" y="478.7971" clip-path="url(#clipPath10)" stroke="none">ChangeObjectGeometry</text>
    </g>
    <g text-rendering="geometricPrecision" shape-rendering="geometricPrecision" transform="matrix(1,0,0,1,278,-73)">
      <line y2="486" fill="none" x1="193" clip-path="url(#clipPath10)" x2="379" y1="486"/>
      <line y2="496" fill="none" x1="193" clip-path="url(#clipPath10)" x2="379" y1="496"/>
      <text stroke-linecap="butt" x="197.0188" y="513.0017" clip-path="url(#clipPath10)" font-family="sans-serif" stroke="none" stroke-miterlimit="1.45" xml:space="preserve">+ execute()</text>
      <rect x="443" y="467" clip-path="url(#clipPath2)" fill="rgb(244,244,244)" width="186" height="55" stroke="none"/>
      <rect x="442" y="466" clip-path="url(#clipPath2)" fill="white" width="1" height="57" stroke="none"/>
      <rect x="443" y="466" clip-path="url(#clipPath2)" fill="white" width="186" height="1" stroke="none"/>
      <rect x="443" y="522" clip-path="url(#clipPath2)" fill="rgb(170,170,170)" width="187" height="1" stroke="none"/>
      <rect x="629" y="466" clip-path="url(#clipPath2)" fill="rgb(170,170,170)" width="1" height="56" stroke="none"/>
    </g>
    <g font-size="13px" stroke-linecap="butt" transform="matrix(1,0,0,1,278,-73)" text-rendering="geometricPrecision" font-family="sans-serif" shape-rendering="geometricPrecision" font-weight="bold" stroke-miterlimit="1.45">
      <text x="486.6542" xml:space="preserve" y="483.7971" clip-path="url(#clipPath11)" stroke="none">ChangeMirror</text>
    </g>
    <g text-rendering="geometricPrecision" shape-rendering="geometricPrecision" transform="matrix(1,0,0,1,278,-73)">
      <line y2="491" fill="none" x1="443" clip-path="url(#clipPath11)" x2="630" y1="491"/>
      <line y2="501" fill="none" x1="443" clip-path="url(#clipPath11)" x2="630" y1="501"/>
      <text stroke-linecap="butt" x="447.548" y="518.0017" clip-path="url(#clipPath11)" font-family="sans-serif" stroke="none" stroke-miterlimit="1.45" xml:space="preserve">+ execute()</text>
      <rect x="726" y="467" clip-path="url(#clipPath2)" fill="rgb(244,244,244)" width="186" height="55" stroke="none"/>
      <rect x="725" y="466" clip-path="url(#clipPath2)" fill="white" width="1" height="57" stroke="none"/>
      <rect x="726" y="466" clip-path="url(#clipPath2)" fill="white" width="186" height="1" stroke="none"/>
      <rect x="726" y="522" clip-path="url(#clipPath2)" fill="rgb(170,170,170)" width="187" height="1" stroke="none"/>
      <rect x="912" y="466" clip-path="url(#clipPath2)" fill="rgb(170,170,170)" width="1" height="56" stroke="none"/>
    </g>
    <g font-size="13px" stroke-linecap="butt" transform="matrix(1,0,0,1,278,-73)" text-rendering="geometricPrecision" font-family="sans-serif" shape-rendering="geometricPrecision" font-weight="bold" stroke-miterlimit="1.45">
      <text x="733.2744" xml:space="preserve" y="483.7971" clip-path="url(#clipPath12)" stroke="none">ChangeMirrorGeometry</text>
    </g>
    <g text-rendering="geometricPrecision" shape-rendering="geometricPrecision" transform="matrix(1,0,0,1,278,-73)">
      <line y2="491" fill="none" x1="726" clip-path="url(#clipPath12)" x2="912" y1="491"/>
      <line y2="501" fill="none" x1="726" clip-path="url(#clipPath12)" x2="912" y1="501"/>
      <text stroke-linecap="butt" x="730.1086" y="518.0017" clip-path="url(#clipPath12)" font-family="sans-serif" stroke="none" stroke-miterlimit="1.45" xml:space="preserve">+ execute()</text>
      <path fill="none" stroke-miterlimit="1.45" d="M127.1574 367.138 L127.1574 320.8336 L262.1574 320.8336 L262.1574 289.5291" clip-path="url(#clipPath2)" stroke-linecap="butt"/>
    </g>
    <g stroke-linecap="butt" transform="matrix(1,0,0,1,278,-73)" fill="white" text-rendering="geometricPrecision" shape-rendering="geometricPrecision" stroke="white" stroke-miterlimit="1.45">
      <path d="M262.1574 274.5291 L256.1574 290.5291 L268.1574 290.5291 Z" stroke="none" clip-path="url(#clipPath2)"/>
      <path fill="none" d="M262.1574 274.5291 L256.1574 290.5291 L268.1574 290.5291 Z" clip-path="url(#clipPath2)" stroke="black"/>
      <path fill="none" d="M-168.2332 367.138 L-168.2332 320.8336 L262.1574 320.8336 L262.1574 289.5291" clip-path="url(#clipPath2)" stroke="black"/>
      <path d="M262.1574 274.5291 L256.1574 290.5291 L268.1574 290.5291 Z" clip-path="url(#clipPath2)" stroke="none"/>
      <path fill="none" d="M262.1574 274.5291 L256.1574 290.5291 L268.1574 290.5291 Z" clip-path="url(#clipPath2)" stroke="black"/>
      <path fill="none" d="M-11.2801 459.0821 L-11.2801 320.8336 L262.1574 320.8336 L262.1574 289.5793" clip-path="url(#clipPath2)" stroke="black"/>
      <path d="M262.1574 274.5793 L256.1574 290.5793 L268.1574 290.5793 Z" clip-path="url(#clipPath2)" stroke="none"/>
      <path fill="none" d="M262.1574 274.5793 L256.1574 290.5793 L268.1574 290.5793 Z" clip-path="url(#clipPath2)" stroke="black"/>
      <path fill="none" d="M260.7449 212.5355 L260.7449 181.5135" clip-path="url(#clipPath2)" stroke="black"/>
      <path d="M260.7449 166.5135 L254.7449 182.5135 L266.7449 182.5135 Z" clip-path="url(#clipPath2)" stroke="none"/>
      <path fill="none" d="M260.7449 166.5135 L254.7449 182.5135 L266.7449 182.5135 Z" clip-path="url(#clipPath2)" stroke="black"/>
      <path fill="none" d="M422.548 367.138 L422.548 320.8336 L262.1574 320.8336 L262.1574 289.5291" clip-path="url(#clipPath2)" stroke="black"/>
      <path d="M262.1574 274.5291 L256.1574 290.5291 L268.1574 290.5291 Z" clip-path="url(#clipPath2)" stroke="none"/>
      <path fill="none" d="M262.1574 274.5291 L256.1574 290.5291 L268.1574 290.5291 Z" clip-path="url(#clipPath2)" stroke="black"/>
      <path fill="none" d="M655.716 367.138 L655.716 320.8336 L262.0802 320.8336 L262.0802 289.5529" clip-path="url(#clipPath2)" stroke="black"/>
      <path d="M262.0802 274.5529 L256.0802 290.5529 L268.0802 290.5529 Z" clip-path="url(#clipPath2)" stroke="none"/>
      <path fill="none" d="M262.0802 274.5529 L256.0802 290.5529 L268.0802 290.5529 Z" clip-path="url(#clipPath2)" stroke="black"/>
      <path fill="none" d="M262.0802 461.7343 L262.0802 289.5219" clip-path="url(#clipPath2)" stroke="black"/>
      <path d="M262.0802 274.5219 L256.0802 290.5219 L268.0802 290.5219 Z" clip-path="url(#clipPath2)" stroke="none"/>
      <path fill="none" d="M262.0802 274.5219 L256.0802 290.5219 L268.0802 290.5219 Z" clip-path="url(#clipPath2)" stroke="black"/>
      <path fill="none" d="M536.9055 466.746 L536.9055 320.8336 L262.1574 320.8336 L262.1574 289.5291" clip-path="url(#clipPath2)" stroke="black"/>
      <path d="M262.1574 274.5291 L256.1574 290.5291 L268.1574 290.5291 Z" clip-path="url(#clipPath2)" stroke="none"/>
      <path fill="none" d="M262.1574 274.5291 L256.1574 290.5291 L268.1574 290.5291 Z" clip-path="url(#clipPath2)" stroke="black"/>
      <path fill="none" d="M819.466 466.746 L819.466 320.8336 L262.1574 320.8336 L262.1574 289.5345" clip-path="url(#clipPath2)" stroke="black"/>
      <path d="M262.1574 274.5345 L256.1574 290.5345 L268.1574 290.5345 Z" clip-path="url(#clipPath2)" stroke="none"/>
      <path fill="none" d="M262.1574 274.5345 L256.1574 290.5345 L268.1574 290.5345 Z" clip-path="url(#clipPath2)" stroke="black"/>
    </g>
  </g>
</svg>
