<?xml version="1.0" encoding="UTF-8"?><svg xmlns="http://www.w3.org/2000/svg" xmlns:xlink="http://www.w3.org/1999/xlink" fill-opacity="1" color-rendering="auto" color-interpolation="auto" text-rendering="auto" stroke="black" stroke-linecap="square" width="1001" stroke-miterlimit="10" shape-rendering="auto" stroke-opacity="1" fill="black" stroke-dasharray="none" font-weight="normal" stroke-width="1" height="523" font-family="'Dialog'" font-style="normal" stroke-linejoin="miter" font-size="12px" stroke-dashoffset="0" image-rendering="auto">
  <!--Generated by ySVG 2.6-->
  <defs id="genericDefs"/>
  <g>
    <defs id="defs1">
      <clipPath clipPathUnits="userSpaceOnUse" id="clipPath1">
        <path d="M0 0 L1001 0 L1001 523 L0 523 L0 0 Z"/>
      </clipPath>
      <clipPath clipPathUnits="userSpaceOnUse" id="clipPath2">
        <path d="M54 -19 L1055 -19 L1055 504 L54 504 L54 -19 Z"/>
      </clipPath>
      <clipPath clipPathUnits="userSpaceOnUse" id="clipPath3">
        <path d="M632 389 L632 479 L820 479 L820 389 Z"/>
      </clipPath>
      <clipPath clipPathUnits="userSpaceOnUse" id="clipPath4">
        <path d="M69 323 L69 351 L257 351 L257 323 Z"/>
      </clipPath>
      <clipPath clipPathUnits="userSpaceOnUse" id="clipPath5">
        <path d="M274 323 L274 351 L462 351 L462 323 Z"/>
      </clipPath>
      <clipPath clipPathUnits="userSpaceOnUse" id="clipPath6">
        <path d="M426 381 L426 488 L614 488 L614 381 Z"/>
      </clipPath>
      <clipPath clipPathUnits="userSpaceOnUse" id="clipPath7">
        <path d="M850 389 L850 479 L1038 479 L1038 389 Z"/>
      </clipPath>
      <clipPath clipPathUnits="userSpaceOnUse" id="clipPath8">
        <path d="M222 233 L222 261 L410 261 L410 233 Z"/>
      </clipPath>
      <clipPath clipPathUnits="userSpaceOnUse" id="clipPath9">
        <path d="M561 233 L561 261 L749 261 L749 233 Z"/>
      </clipPath>
      <clipPath clipPathUnits="userSpaceOnUse" id="clipPath10">
        <path d="M390 -3 L390 128 L578 128 L578 -3 Z"/>
      </clipPath>
      <clipPath clipPathUnits="userSpaceOnUse" id="clipPath11">
        <path d="M142 -3 L142 128 L330 128 L330 -3 Z"/>
      </clipPath>
    </defs>
    <g fill="white" text-rendering="geometricPrecision" shape-rendering="geometricPrecision" transform="translate(-54,19)" stroke="white">
      <rect x="54" width="1001" height="523" y="-19" clip-path="url(#clipPath2)" stroke="none"/>
    </g>
    <g fill="rgb(244,244,244)" text-rendering="geometricPrecision" shape-rendering="geometricPrecision" transform="matrix(1,0,0,1,-54,19)" stroke="rgb(244,244,244)">
      <rect x="633" width="186" height="88" y="390" clip-path="url(#clipPath2)" stroke="none"/>
      <rect x="632" y="389" clip-path="url(#clipPath2)" fill="white" width="1" height="90" stroke="none"/>
      <rect x="633" y="389" clip-path="url(#clipPath2)" fill="white" width="186" height="1" stroke="none"/>
      <rect x="633" y="478" clip-path="url(#clipPath2)" fill="rgb(170,170,170)" width="187" height="1" stroke="none"/>
      <rect x="819" y="389" clip-path="url(#clipPath2)" fill="rgb(170,170,170)" width="1" height="89" stroke="none"/>
    </g>
    <g font-size="13px" stroke-linecap="butt" transform="matrix(1,0,0,1,-54,19)" text-rendering="geometricPrecision" font-family="sans-serif" shape-rendering="geometricPrecision" font-weight="bold" stroke-miterlimit="1.45">
      <text x="698.5223" xml:space="preserve" y="406.7773" clip-path="url(#clipPath3)" stroke="none">Camera</text>
    </g>
    <g text-rendering="geometricPrecision" shape-rendering="geometricPrecision" transform="matrix(1,0,0,1,-54,19)">
      <line y2="414" fill="none" x1="633" clip-path="url(#clipPath3)" x2="819" y1="414"/>
      <line y2="424" fill="none" x1="633" clip-path="url(#clipPath3)" x2="819" y1="424"/>
      <text stroke-linecap="butt" x="637.0946" y="440.9819" clip-path="url(#clipPath3)" font-family="sans-serif" stroke="none" stroke-miterlimit="1.45" xml:space="preserve">+ get_position()</text>
      <text stroke-linecap="butt" x="637.0946" y="454.9507" clip-path="url(#clipPath3)" font-family="sans-serif" stroke="none" stroke-miterlimit="1.45" xml:space="preserve">+ get_direction()</text>
      <text stroke-linecap="butt" x="637.0946" y="468.9194" clip-path="url(#clipPath3)" font-family="sans-serif" stroke="none" stroke-miterlimit="1.45" xml:space="preserve">+ get_ray()</text>
      <rect x="70" y="324" clip-path="url(#clipPath2)" fill="rgb(244,244,244)" width="186" height="26" stroke="none"/>
      <rect x="69" y="323" clip-path="url(#clipPath2)" fill="white" width="1" height="28" stroke="none"/>
      <rect x="70" y="323" clip-path="url(#clipPath2)" fill="white" width="186" height="1" stroke="none"/>
      <rect x="70" y="350" clip-path="url(#clipPath2)" fill="rgb(170,170,170)" width="187" height="1" stroke="none"/>
      <rect x="256" y="323" clip-path="url(#clipPath2)" fill="rgb(170,170,170)" width="1" height="27" stroke="none"/>
    </g>
    <g font-size="13px" stroke-linecap="butt" transform="matrix(1,0,0,1,-54,19)" text-rendering="geometricPrecision" font-family="sans-serif" shape-rendering="geometricPrecision" font-weight="bold" stroke-miterlimit="1.45">
      <text x="141.5916" xml:space="preserve" y="340.2911" clip-path="url(#clipPath4)" stroke="none">Model</text>
    </g>
    <g fill="rgb(244,244,244)" text-rendering="geometricPrecision" shape-rendering="geometricPrecision" transform="matrix(1,0,0,1,-54,19)" stroke="rgb(244,244,244)">
      <rect x="275" width="186" height="26" y="324" clip-path="url(#clipPath2)" stroke="none"/>
      <rect x="274" y="323" clip-path="url(#clipPath2)" fill="white" width="1" height="28" stroke="none"/>
      <rect x="275" y="323" clip-path="url(#clipPath2)" fill="white" width="186" height="1" stroke="none"/>
      <rect x="275" y="350" clip-path="url(#clipPath2)" fill="rgb(170,170,170)" width="187" height="1" stroke="none"/>
      <rect x="461" y="323" clip-path="url(#clipPath2)" fill="rgb(170,170,170)" width="1" height="27" stroke="none"/>
    </g>
    <g font-size="13px" stroke-linecap="butt" transform="matrix(1,0,0,1,-54,19)" text-rendering="geometricPrecision" font-family="sans-serif" shape-rendering="geometricPrecision" font-weight="bold" stroke-miterlimit="1.45">
      <text x="338.9161" xml:space="preserve" y="340.2911" clip-path="url(#clipPath5)" stroke="none">Triangle</text>
    </g>
    <g fill="rgb(244,244,244)" text-rendering="geometricPrecision" shape-rendering="geometricPrecision" transform="matrix(1,0,0,1,-54,19)" stroke="rgb(244,244,244)">
      <rect x="427" width="186" height="105" y="382" clip-path="url(#clipPath2)" stroke="none"/>
      <rect x="426" y="381" clip-path="url(#clipPath2)" fill="white" width="1" height="107" stroke="none"/>
      <rect x="427" y="381" clip-path="url(#clipPath2)" fill="white" width="186" height="1" stroke="none"/>
      <rect x="427" y="487" clip-path="url(#clipPath2)" fill="rgb(170,170,170)" width="187" height="1" stroke="none"/>
      <rect x="613" y="381" clip-path="url(#clipPath2)" fill="rgb(170,170,170)" width="1" height="106" stroke="none"/>
    </g>
    <g font-size="13px" stroke-linecap="butt" transform="matrix(1,0,0,1,-54,19)" text-rendering="geometricPrecision" font-family="sans-serif" shape-rendering="geometricPrecision" font-weight="bold" stroke-miterlimit="1.45">
      <text x="493.7587" xml:space="preserve" y="398.2911" clip-path="url(#clipPath6)" stroke="none">KDTree</text>
    </g>
    <g text-rendering="geometricPrecision" shape-rendering="geometricPrecision" transform="matrix(1,0,0,1,-54,19)">
      <line y2="406" fill="none" x1="427" clip-path="url(#clipPath6)" x2="614" y1="406"/>
      <line y2="416" fill="none" x1="427" clip-path="url(#clipPath6)" x2="614" y1="416"/>
      <text stroke-linecap="butt" x="431.2899" y="432.4957" clip-path="url(#clipPath6)" font-family="sans-serif" stroke="none" stroke-miterlimit="1.45" xml:space="preserve">+ move()</text>
      <text stroke-linecap="butt" x="431.2899" y="446.4644" clip-path="url(#clipPath6)" font-family="sans-serif" stroke="none" stroke-miterlimit="1.45" xml:space="preserve">+ del_node()</text>
      <text stroke-linecap="butt" x="431.2899" y="460.4332" clip-path="url(#clipPath6)" font-family="sans-serif" stroke="none" stroke-miterlimit="1.45" xml:space="preserve">+ insert_node()</text>
      <text stroke-linecap="butt" x="431.2899" y="474.4019" clip-path="url(#clipPath6)" font-family="sans-serif" stroke="none" stroke-miterlimit="1.45" xml:space="preserve">+ get_ray()</text>
      <rect x="851" y="390" clip-path="url(#clipPath2)" fill="rgb(244,244,244)" width="186" height="88" stroke="none"/>
      <rect x="850" y="389" clip-path="url(#clipPath2)" fill="white" width="1" height="90" stroke="none"/>
      <rect x="851" y="389" clip-path="url(#clipPath2)" fill="white" width="186" height="1" stroke="none"/>
      <rect x="851" y="478" clip-path="url(#clipPath2)" fill="rgb(170,170,170)" width="187" height="1" stroke="none"/>
      <rect x="1037" y="389" clip-path="url(#clipPath2)" fill="rgb(170,170,170)" width="1" height="89" stroke="none"/>
    </g>
    <g font-size="13px" stroke-linecap="butt" transform="matrix(1,0,0,1,-54,19)" text-rendering="geometricPrecision" font-family="sans-serif" shape-rendering="geometricPrecision" font-weight="bold" stroke-miterlimit="1.45">
      <text x="926.4095" xml:space="preserve" y="406.7773" clip-path="url(#clipPath7)" stroke="none">Light</text>
    </g>
    <g text-rendering="geometricPrecision" shape-rendering="geometricPrecision" transform="matrix(1,0,0,1,-54,19)">
      <line y2="414" fill="none" x1="851" clip-path="url(#clipPath7)" x2="1038" y1="414"/>
      <line y2="424" fill="none" x1="851" clip-path="url(#clipPath7)" x2="1038" y1="424"/>
      <text stroke-linecap="butt" x="855.8094" y="440.9819" clip-path="url(#clipPath7)" font-family="sans-serif" stroke="none" stroke-miterlimit="1.45" xml:space="preserve">+ get_intensity()</text>
      <text stroke-linecap="butt" x="855.8094" y="454.9507" clip-path="url(#clipPath7)" font-family="sans-serif" stroke="none" stroke-miterlimit="1.45" xml:space="preserve">+ get_position()</text>
      <text stroke-linecap="butt" x="855.8094" y="468.9194" clip-path="url(#clipPath7)" font-family="sans-serif" stroke="none" stroke-miterlimit="1.45" xml:space="preserve">+ get_ray()</text>
      <rect x="223" y="234" clip-path="url(#clipPath2)" fill="rgb(244,244,244)" width="186" height="26" stroke="none"/>
      <rect x="222" y="233" clip-path="url(#clipPath2)" fill="white" width="1" height="28" stroke="none"/>
      <rect x="223" y="233" clip-path="url(#clipPath2)" fill="white" width="186" height="1" stroke="none"/>
      <rect x="223" y="260" clip-path="url(#clipPath2)" fill="rgb(170,170,170)" width="187" height="1" stroke="none"/>
      <rect x="409" y="233" clip-path="url(#clipPath2)" fill="rgb(170,170,170)" width="1" height="27" stroke="none"/>
    </g>
    <g font-size="13px" stroke-linecap="butt" transform="matrix(1,0,0,1,-54,19)" text-rendering="geometricPrecision" font-family="sans-serif" shape-rendering="geometricPrecision" font-weight="bold" stroke-miterlimit="1.45">
      <text x="268.6679" xml:space="preserve" y="250.0862" clip-path="url(#clipPath8)" stroke="none">VisibleObject</text>
    </g>
    <g fill="rgb(244,244,244)" text-rendering="geometricPrecision" shape-rendering="geometricPrecision" transform="matrix(1,0,0,1,-54,19)" stroke="rgb(244,244,244)">
      <rect x="562" width="186" height="26" y="234" clip-path="url(#clipPath2)" stroke="none"/>
      <rect x="561" y="233" clip-path="url(#clipPath2)" fill="white" width="1" height="28" stroke="none"/>
      <rect x="562" y="233" clip-path="url(#clipPath2)" fill="white" width="186" height="1" stroke="none"/>
      <rect x="562" y="260" clip-path="url(#clipPath2)" fill="rgb(170,170,170)" width="187" height="1" stroke="none"/>
      <rect x="748" y="233" clip-path="url(#clipPath2)" fill="rgb(170,170,170)" width="1" height="27" stroke="none"/>
    </g>
    <g font-size="13px" stroke-linecap="butt" transform="matrix(1,0,0,1,-54,19)" text-rendering="geometricPrecision" font-family="sans-serif" shape-rendering="geometricPrecision" font-weight="bold" stroke-miterlimit="1.45">
      <text x="601.4592" xml:space="preserve" y="250.0862" clip-path="url(#clipPath9)" stroke="none">InvisibleObject</text>
    </g>
    <g fill="rgb(244,244,244)" text-rendering="geometricPrecision" shape-rendering="geometricPrecision" transform="matrix(1,0,0,1,-54,19)" stroke="rgb(244,244,244)">
      <rect x="391" width="186" height="129" y="-2" clip-path="url(#clipPath2)" stroke="none"/>
      <rect x="390" y="-3" clip-path="url(#clipPath2)" fill="white" width="1" height="131" stroke="none"/>
      <rect x="391" y="-3" clip-path="url(#clipPath2)" fill="white" width="186" height="1" stroke="none"/>
      <rect x="391" y="127" clip-path="url(#clipPath2)" fill="rgb(170,170,170)" width="187" height="1" stroke="none"/>
      <rect x="577" y="-3" clip-path="url(#clipPath2)" fill="rgb(170,170,170)" width="1" height="130" stroke="none"/>
    </g>
    <g font-size="13px" stroke-linecap="butt" transform="matrix(1,0,0,1,-54,19)" text-rendering="geometricPrecision" font-family="sans-serif" shape-rendering="geometricPrecision" font-weight="bold" stroke-miterlimit="1.45">
      <text x="460.7627" xml:space="preserve" y="13.7411" clip-path="url(#clipPath10)" stroke="none">Object</text>
    </g>
    <g text-rendering="geometricPrecision" shape-rendering="geometricPrecision" transform="matrix(1,0,0,1,-54,19)">
      <line y2="21" fill="none" x1="391" clip-path="url(#clipPath10)" x2="577" y1="21"/>
      <line y2="31" fill="none" x1="391" clip-path="url(#clipPath10)" x2="577" y1="31"/>
      <text stroke-linecap="butt" x="395.1804" y="47.9457" clip-path="url(#clipPath10)" font-family="sans-serif" stroke="none" stroke-miterlimit="1.45" xml:space="preserve">+move()</text>
      <text stroke-linecap="butt" x="395.1804" y="61.9144" clip-path="url(#clipPath10)" font-family="sans-serif" stroke="none" stroke-miterlimit="1.45" xml:space="preserve">+hit()</text>
      <text stroke-linecap="butt" x="395.1804" y="75.8832" clip-path="url(#clipPath10)" font-family="sans-serif" stroke="none" stroke-miterlimit="1.45" xml:space="preserve">+set_material()</text>
      <text stroke-linecap="butt" x="395.1804" y="89.8519" clip-path="url(#clipPath10)" font-family="sans-serif" stroke="none" stroke-miterlimit="1.45" xml:space="preserve">+is_visible()</text>
      <text stroke-linecap="butt" x="395.1804" y="103.8207" clip-path="url(#clipPath10)" font-family="sans-serif" stroke="none" stroke-miterlimit="1.45" xml:space="preserve">+get_bbox()</text>
      <text stroke-linecap="butt" x="395.1804" y="117.7894" clip-path="url(#clipPath10)" font-family="sans-serif" stroke="none" stroke-miterlimit="1.45" xml:space="preserve">+get_center()</text>
      <rect x="143" y="-2" clip-path="url(#clipPath2)" fill="rgb(244,244,244)" width="186" height="129" stroke="none"/>
      <rect x="142" y="-3" clip-path="url(#clipPath2)" fill="white" width="1" height="131" stroke="none"/>
      <rect x="143" y="-3" clip-path="url(#clipPath2)" fill="white" width="186" height="1" stroke="none"/>
      <rect x="143" y="127" clip-path="url(#clipPath2)" fill="rgb(170,170,170)" width="187" height="1" stroke="none"/>
      <rect x="329" y="-3" clip-path="url(#clipPath2)" fill="rgb(170,170,170)" width="1" height="130" stroke="none"/>
    </g>
    <g font-size="13px" stroke-linecap="butt" transform="matrix(1,0,0,1,-54,19)" text-rendering="geometricPrecision" font-family="sans-serif" shape-rendering="geometricPrecision" font-weight="bold" stroke-miterlimit="1.45">
      <text x="217.896" xml:space="preserve" y="13.7411" clip-path="url(#clipPath11)" stroke="none">BBox</text>
    </g>
    <g text-rendering="geometricPrecision" shape-rendering="geometricPrecision" transform="matrix(1,0,0,1,-54,19)">
      <line y2="21" fill="none" x1="143" clip-path="url(#clipPath11)" x2="329" y1="21"/>
      <line y2="31" fill="none" x1="143" clip-path="url(#clipPath11)" x2="329" y1="31"/>
      <text stroke-linecap="butt" x="147.1054" y="47.9457" clip-path="url(#clipPath11)" font-family="sans-serif" stroke="none" stroke-miterlimit="1.45" xml:space="preserve">+move()</text>
      <text stroke-linecap="butt" x="147.1054" y="61.9144" clip-path="url(#clipPath11)" font-family="sans-serif" stroke="none" stroke-miterlimit="1.45" xml:space="preserve">+hit()</text>
      <text stroke-linecap="butt" x="147.1054" y="75.8832" clip-path="url(#clipPath11)" font-family="sans-serif" stroke="none" stroke-miterlimit="1.45" xml:space="preserve">+set_material()</text>
      <text stroke-linecap="butt" x="147.1054" y="89.8519" clip-path="url(#clipPath11)" font-family="sans-serif" stroke="none" stroke-miterlimit="1.45" xml:space="preserve">+is_visible()</text>
      <text stroke-linecap="butt" x="147.1054" y="103.8207" clip-path="url(#clipPath11)" font-family="sans-serif" stroke="none" stroke-miterlimit="1.45" xml:space="preserve">+get_bbox()</text>
      <text stroke-linecap="butt" x="147.1054" y="117.7894" clip-path="url(#clipPath11)" font-family="sans-serif" stroke="none" stroke-miterlimit="1.45" xml:space="preserve">+get_center()</text>
      <path fill="none" stroke-miterlimit="1.45" stroke-dasharray="6,2" d="M163.8147 323.2618 L163.8147 292.1217 L306.2896 292.1217 L306.2896 275.9922" clip-path="url(#clipPath2)" stroke-linecap="butt"/>
    </g>
    <g stroke-linecap="butt" transform="matrix(1,0,0,1,-54,19)" fill="white" text-rendering="geometricPrecision" shape-rendering="geometricPrecision" stroke-dasharray="6,2" stroke="white" stroke-miterlimit="1.45">
      <path d="M306.2896 260.9922 L300.2896 276.9922 L312.2896 276.9922 Z" stroke="none" clip-path="url(#clipPath2)"/>
      <path fill="none" stroke-dasharray="none" d="M306.2896 260.9922 L300.2896 276.9922 L312.2896 276.9922 Z" clip-path="url(#clipPath2)" stroke="black"/>
      <path fill="none" d="M369.0865 323.2618 L369.0865 292.1217 L306.2896 292.1217 L306.2896 276.0048" clip-path="url(#clipPath2)" stroke="black"/>
      <path d="M306.2896 261.0048 L300.2896 277.0048 L312.2896 277.0048 Z" clip-path="url(#clipPath2)" stroke="none"/>
      <path fill="none" stroke-dasharray="none" d="M306.2896 261.0048 L300.2896 277.0048 L312.2896 277.0048 Z" clip-path="url(#clipPath2)" stroke="black"/>
      <path fill="none" stroke-dasharray="none" d="M520.6473 381.2412 L520.6473 303.2242 L656.1316 303.2242 L656.1316 276.0431" clip-path="url(#clipPath2)" stroke="black"/>
      <path stroke-dasharray="none" d="M656.1316 261.0431 L650.1316 277.0431 L662.1316 277.0431 Z" clip-path="url(#clipPath2)" stroke="none"/>
      <path fill="none" stroke-dasharray="none" d="M656.1316 261.0431 L650.1316 277.0431 L662.1316 277.0431 Z" clip-path="url(#clipPath2)" stroke="black"/>
      <path fill="none" stroke-dasharray="none" d="M726.452 389.7346 L726.452 303.2242 L656.1316 303.2242 L656.1316 275.9945" clip-path="url(#clipPath2)" stroke="black"/>
      <path stroke-dasharray="none" d="M656.1316 260.9945 L650.1316 276.9945 L662.1316 276.9945 Z" clip-path="url(#clipPath2)" stroke="none"/>
      <path fill="none" stroke-dasharray="none" d="M656.1316 260.9945 L650.1316 276.9945 L662.1316 276.9945 Z" clip-path="url(#clipPath2)" stroke="black"/>
      <path fill="none" stroke-dasharray="none" d="M945.1669 389.7346 L945.1669 303.2242 L656.1316 303.2242 L656.1316 276.0046" clip-path="url(#clipPath2)" stroke="black"/>
      <path stroke-dasharray="none" d="M656.1316 261.0046 L650.1316 277.0046 L662.1316 277.0046 Z" clip-path="url(#clipPath2)" stroke="none"/>
      <path fill="none" stroke-dasharray="none" d="M656.1316 261.0046 L650.1316 277.0046 L662.1316 277.0046 Z" clip-path="url(#clipPath2)" stroke="black"/>
      <path fill="none" stroke-dasharray="none" d="M570.3347 233.0148 L570.3347 154.7967 L484.5378 154.7967 L484.5378 143.4539" clip-path="url(#clipPath2)" stroke="black"/>
      <path stroke-dasharray="none" d="M484.5378 128.4539 L478.5378 144.4539 L490.5378 144.4539 Z" clip-path="url(#clipPath2)" stroke="none"/>
      <path fill="none" stroke-dasharray="none" d="M484.5378 128.4539 L478.5378 144.4539 L490.5378 144.4539 Z" clip-path="url(#clipPath2)" stroke="black"/>
      <path fill="none" stroke-dasharray="none" d="M397.0879 233.0148 L397.0879 154.7967 L484.5378 154.7967 L484.5378 143.4958" clip-path="url(#clipPath2)" stroke="black"/>
      <path stroke-dasharray="none" d="M484.5378 128.4958 L478.5378 144.4958 L490.5378 144.4958 Z" clip-path="url(#clipPath2)" stroke="none"/>
      <path fill="none" stroke-dasharray="none" d="M484.5378 128.4958 L478.5378 144.4958 L490.5378 144.4958 Z" clip-path="url(#clipPath2)" stroke="black"/>
      <path fill="none" stroke-dasharray="none" d="M383.2084 75.3732 L330.8323 75.3732" clip-path="url(#clipPath2)" stroke="black"/>
      <path fill="black" stroke-dasharray="none" d="M390.2084 75.3732 L383.2084 80.3732 L376.2084 75.3732 L383.2084 70.3732 Z" clip-path="url(#clipPath2)" stroke="none"/>
    </g>
  </g>
</svg>
