<?xml version="1.0" encoding="UTF-8"?><svg xmlns="http://www.w3.org/2000/svg" xmlns:xlink="http://www.w3.org/1999/xlink" fill-opacity="1" color-rendering="auto" color-interpolation="auto" text-rendering="auto" stroke="black" stroke-linecap="square" width="1025" stroke-miterlimit="10" shape-rendering="auto" stroke-opacity="1" fill="black" stroke-dasharray="none" font-weight="normal" stroke-width="1" height="781" font-family="'Dialog'" font-style="normal" stroke-linejoin="miter" font-size="12px" stroke-dashoffset="0" image-rendering="auto">
  <!--Generated by ySVG 2.6-->
  <defs id="genericDefs"/>
  <g>
    <defs id="defs1">
      <clipPath clipPathUnits="userSpaceOnUse" id="clipPath1">
        <path d="M0 0 L1025 0 L1025 781 L0 781 L0 0 Z"/>
      </clipPath>
      <clipPath clipPathUnits="userSpaceOnUse" id="clipPath2">
        <path d="M545 -278 L1570 -278 L1570 503 L545 503 L545 -278 Z"/>
      </clipPath>
      <clipPath clipPathUnits="userSpaceOnUse" id="clipPath3">
        <path d="M916 1 L916 172 L1104 172 L1104 1 Z"/>
      </clipPath>
      <clipPath clipPathUnits="userSpaceOnUse" id="clipPath4">
        <path d="M697 -237 L697 -209 L885 -209 L885 -237 Z"/>
      </clipPath>
      <clipPath clipPathUnits="userSpaceOnUse" id="clipPath5">
        <path d="M916 -262 L916 -184 L1104 -184 L1104 -262 Z"/>
      </clipPath>
      <clipPath clipPathUnits="userSpaceOnUse" id="clipPath6">
        <path d="M560 -146 L560 -113 L748 -113 L748 -146 Z"/>
      </clipPath>
      <clipPath clipPathUnits="userSpaceOnUse" id="clipPath7">
        <path d="M1365 7 L1365 35 L1553 35 L1553 7 Z"/>
      </clipPath>
      <clipPath clipPathUnits="userSpaceOnUse" id="clipPath8">
        <path d="M1146 7 L1146 35 L1334 35 L1334 7 Z"/>
      </clipPath>
      <clipPath clipPathUnits="userSpaceOnUse" id="clipPath9">
        <path d="M1365 -146 L1365 -68 L1553 -68 L1553 -146 Z"/>
      </clipPath>
      <clipPath clipPathUnits="userSpaceOnUse" id="clipPath10">
        <path d="M969 192 L969 219 L1157 219 L1157 192 Z"/>
      </clipPath>
      <clipPath clipPathUnits="userSpaceOnUse" id="clipPath11">
        <path d="M922 -154 L922 -47 L1110 -47 L1110 -154 Z"/>
      </clipPath>
      <clipPath clipPathUnits="userSpaceOnUse" id="clipPath12">
        <path d="M1149 -147 L1149 -68 L1337 -68 L1337 -147 Z"/>
      </clipPath>
      <clipPath clipPathUnits="userSpaceOnUse" id="clipPath13">
        <path d="M969 225 L969 252 L1157 252 L1157 225 Z"/>
      </clipPath>
      <clipPath clipPathUnits="userSpaceOnUse" id="clipPath14">
        <path d="M969 259 L969 286 L1157 286 L1157 259 Z"/>
      </clipPath>
      <clipPath clipPathUnits="userSpaceOnUse" id="clipPath15">
        <path d="M969 292 L969 319 L1157 319 L1157 292 Z"/>
      </clipPath>
      <clipPath clipPathUnits="userSpaceOnUse" id="clipPath16">
        <path d="M969 326 L969 353 L1157 353 L1157 326 Z"/>
      </clipPath>
      <clipPath clipPathUnits="userSpaceOnUse" id="clipPath17">
        <path d="M969 359 L969 386 L1157 386 L1157 359 Z"/>
      </clipPath>
      <clipPath clipPathUnits="userSpaceOnUse" id="clipPath18">
        <path d="M969 393 L969 420 L1157 420 L1157 393 Z"/>
      </clipPath>
      <clipPath clipPathUnits="userSpaceOnUse" id="clipPath19">
        <path d="M969 426 L969 453 L1157 453 L1157 426 Z"/>
      </clipPath>
      <clipPath clipPathUnits="userSpaceOnUse" id="clipPath20">
        <path d="M969 460 L969 487 L1157 487 L1157 460 Z"/>
      </clipPath>
      <clipPath clipPathUnits="userSpaceOnUse" id="clipPath21">
        <path d="M1365 93 L1365 224 L1553 224 L1553 93 Z"/>
      </clipPath>
      <clipPath clipPathUnits="userSpaceOnUse" id="clipPath22">
        <path d="M560 -29 L560 78 L748 78 L748 -29 Z"/>
      </clipPath>
    </defs>
    <g fill="white" text-rendering="geometricPrecision" shape-rendering="geometricPrecision" transform="translate(-545,278)" stroke="white">
      <rect x="545" width="1025" height="781" y="-278" clip-path="url(#clipPath2)" stroke="none"/>
    </g>
    <g fill="rgb(244,244,244)" text-rendering="geometricPrecision" shape-rendering="geometricPrecision" transform="matrix(1,0,0,1,-545,278)" stroke="rgb(244,244,244)">
      <rect x="917" width="186" height="169" y="2" clip-path="url(#clipPath2)" stroke="none"/>
      <rect x="916" y="1" clip-path="url(#clipPath2)" fill="white" width="1" height="171" stroke="none"/>
      <rect x="917" y="1" clip-path="url(#clipPath2)" fill="white" width="186" height="1" stroke="none"/>
      <rect x="917" y="171" clip-path="url(#clipPath2)" fill="rgb(170,170,170)" width="187" height="1" stroke="none"/>
      <rect x="1103" y="1" clip-path="url(#clipPath2)" fill="rgb(170,170,170)" width="1" height="170" stroke="none"/>
    </g>
    <g font-size="13px" stroke-linecap="butt" transform="matrix(1,0,0,1,-545,278)" text-rendering="geometricPrecision" font-family="sans-serif" shape-rendering="geometricPrecision" font-weight="bold" stroke-miterlimit="1.45">
      <text x="988.8196" xml:space="preserve" y="18.9557" clip-path="url(#clipPath3)" stroke="none">Scene</text>
    </g>
    <g text-rendering="geometricPrecision" shape-rendering="geometricPrecision" transform="matrix(1,0,0,1,-545,278)">
      <line y2="27" fill="none" x1="917" clip-path="url(#clipPath3)" x2="1104" y1="27"/>
      <text stroke-linecap="butt" x="921.441" y="43.1603" clip-path="url(#clipPath3)" font-family="sans-serif" stroke="none" stroke-miterlimit="1.45" xml:space="preserve"> </text>
      <line y2="50" fill="none" x1="917" clip-path="url(#clipPath3)" x2="1104" y1="50"/>
      <text stroke-linecap="butt" x="921.441" y="67.1291" clip-path="url(#clipPath3)" font-family="sans-serif" stroke="none" stroke-miterlimit="1.45" xml:space="preserve">+ draw()</text>
      <text stroke-linecap="butt" x="921.441" y="81.0978" clip-path="url(#clipPath3)" font-family="sans-serif" stroke="none" stroke-miterlimit="1.45" xml:space="preserve">+ move_light()</text>
      <text stroke-linecap="butt" x="921.441" y="95.0666" clip-path="url(#clipPath3)" font-family="sans-serif" stroke="none" stroke-miterlimit="1.45" xml:space="preserve">+ change_mirror()</text>
      <text stroke-linecap="butt" x="921.441" y="109.0353" clip-path="url(#clipPath3)" font-family="sans-serif" stroke="none" stroke-miterlimit="1.45" xml:space="preserve">+ change_object()</text>
      <text stroke-linecap="butt" x="921.441" y="123.0041" clip-path="url(#clipPath3)" font-family="sans-serif" stroke="none" stroke-miterlimit="1.45" xml:space="preserve">+ change_object_geometry()</text>
      <text stroke-linecap="butt" x="921.441" y="136.9728" clip-path="url(#clipPath3)" font-family="sans-serif" stroke="none" stroke-miterlimit="1.45" xml:space="preserve">+ change_mirror_geometry()</text>
      <text stroke-linecap="butt" x="921.441" y="150.9416" clip-path="url(#clipPath3)" font-family="sans-serif" stroke="none" stroke-miterlimit="1.45" xml:space="preserve">+ change_mirror_material()</text>
      <text stroke-linecap="butt" x="921.441" y="164.9103" clip-path="url(#clipPath3)" font-family="sans-serif" stroke="none" stroke-miterlimit="1.45" xml:space="preserve">+ change_light_color()</text>
      <rect x="698" y="-236" clip-path="url(#clipPath2)" fill="rgb(244,244,244)" width="186" height="26" stroke="none"/>
      <rect x="697" y="-237" clip-path="url(#clipPath2)" fill="white" width="1" height="28" stroke="none"/>
      <rect x="698" y="-237" clip-path="url(#clipPath2)" fill="white" width="186" height="1" stroke="none"/>
      <rect x="698" y="-210" clip-path="url(#clipPath2)" fill="rgb(170,170,170)" width="187" height="1" stroke="none"/>
      <rect x="884" y="-237" clip-path="url(#clipPath2)" fill="rgb(170,170,170)" width="1" height="27" stroke="none"/>
    </g>
    <g font-size="13px" stroke-linecap="butt" transform="matrix(1,0,0,1,-545,278)" text-rendering="geometricPrecision" font-family="sans-serif" shape-rendering="geometricPrecision" font-weight="bold" stroke-miterlimit="1.45">
      <text x="745.2252" xml:space="preserve" y="-220.573" clip-path="url(#clipPath4)" stroke="none">MainWindow</text>
    </g>
    <g fill="rgb(244,244,244)" text-rendering="geometricPrecision" shape-rendering="geometricPrecision" transform="matrix(1,0,0,1,-545,278)" stroke="rgb(244,244,244)">
      <rect x="917" width="186" height="76" y="-261" clip-path="url(#clipPath2)" stroke="none"/>
      <rect x="916" y="-262" clip-path="url(#clipPath2)" fill="white" width="1" height="78" stroke="none"/>
      <rect x="917" y="-262" clip-path="url(#clipPath2)" fill="white" width="186" height="1" stroke="none"/>
      <rect x="917" y="-185" clip-path="url(#clipPath2)" fill="rgb(170,170,170)" width="187" height="1" stroke="none"/>
      <rect x="1103" y="-262" clip-path="url(#clipPath2)" fill="rgb(170,170,170)" width="1" height="77" stroke="none"/>
    </g>
    <g font-size="13px" stroke-linecap="butt" transform="matrix(1,0,0,1,-545,278)" text-rendering="geometricPrecision" font-family="sans-serif" shape-rendering="geometricPrecision" font-weight="bold" stroke-miterlimit="1.45">
      <text x="984.6714" xml:space="preserve" y="-245.648" clip-path="url(#clipPath5)" stroke="none">Facade</text>
    </g>
    <g text-rendering="geometricPrecision" shape-rendering="geometricPrecision" transform="matrix(1,0,0,1,-545,278)">
      <line y2="-237" fill="none" x1="917" clip-path="url(#clipPath5)" x2="1104" y1="-237"/>
      <text stroke-linecap="butt" x="921.441" y="-221.4435" clip-path="url(#clipPath5)" font-family="sans-serif" stroke="none" stroke-miterlimit="1.45" xml:space="preserve"> </text>
      <line y2="-213" fill="none" x1="917" clip-path="url(#clipPath5)" x2="1104" y1="-213"/>
      <text stroke-linecap="butt" x="921.441" y="-197.4747" clip-path="url(#clipPath5)" font-family="sans-serif" stroke="none" stroke-miterlimit="1.45" xml:space="preserve">+ execute()</text>
      <rect x="561" y="-145" clip-path="url(#clipPath2)" fill="rgb(244,244,244)" width="186" height="31" stroke="none"/>
      <rect x="560" y="-146" clip-path="url(#clipPath2)" fill="white" width="1" height="33" stroke="none"/>
      <rect x="561" y="-146" clip-path="url(#clipPath2)" fill="white" width="186" height="1" stroke="none"/>
      <rect x="561" y="-114" clip-path="url(#clipPath2)" fill="rgb(170,170,170)" width="187" height="1" stroke="none"/>
      <rect x="747" y="-146" clip-path="url(#clipPath2)" fill="rgb(170,170,170)" width="1" height="32" stroke="none"/>
    </g>
    <g font-size="13px" stroke-linecap="butt" transform="matrix(1,0,0,1,-545,278)" text-rendering="geometricPrecision" font-family="sans-serif" shape-rendering="geometricPrecision" font-weight="bold" stroke-miterlimit="1.45">
      <text x="602.8314" xml:space="preserve" y="-129.8059" clip-path="url(#clipPath6)" stroke="none">LoadingDialog</text>
    </g>
    <g text-rendering="geometricPrecision" shape-rendering="geometricPrecision" transform="matrix(1,0,0,1,-545,278)">
      <line y2="-121" fill="none" x1="561" clip-path="url(#clipPath6)" x2="748" y1="-121"/>
      <text stroke-linecap="butt" x="565.9849" y="-105.6013" clip-path="url(#clipPath6)" font-family="sans-serif" stroke="none" stroke-miterlimit="1.45" xml:space="preserve"> </text>
      <line y2="-97" fill="none" x1="561" clip-path="url(#clipPath6)" x2="748" y1="-97"/>
      <text stroke-linecap="butt" x="565.9849" y="-81.6326" clip-path="url(#clipPath6)" font-family="sans-serif" stroke="none" stroke-miterlimit="1.45" xml:space="preserve"> </text>
      <rect x="1366" y="8" clip-path="url(#clipPath2)" fill="rgb(244,244,244)" width="186" height="26" stroke="none"/>
      <rect x="1365" y="7" clip-path="url(#clipPath2)" fill="white" width="1" height="28" stroke="none"/>
      <rect x="1366" y="7" clip-path="url(#clipPath2)" fill="white" width="186" height="1" stroke="none"/>
      <rect x="1366" y="34" clip-path="url(#clipPath2)" fill="rgb(170,170,170)" width="187" height="1" stroke="none"/>
      <rect x="1552" y="7" clip-path="url(#clipPath2)" fill="rgb(170,170,170)" width="1" height="27" stroke="none"/>
    </g>
    <g font-size="13px" stroke-linecap="butt" transform="matrix(1,0,0,1,-545,278)" text-rendering="geometricPrecision" font-family="sans-serif" shape-rendering="geometricPrecision" font-weight="bold" stroke-miterlimit="1.45">
      <text x="1397.1068" xml:space="preserve" y="24.2848" clip-path="url(#clipPath7)" stroke="none">QtDrawerFactory</text>
    </g>
    <g fill="rgb(244,244,244)" text-rendering="geometricPrecision" shape-rendering="geometricPrecision" transform="matrix(1,0,0,1,-545,278)" stroke="rgb(244,244,244)">
      <rect x="1147" width="186" height="26" y="8" clip-path="url(#clipPath2)" stroke="none"/>
      <rect x="1146" y="7" clip-path="url(#clipPath2)" fill="white" width="1" height="28" stroke="none"/>
      <rect x="1147" y="7" clip-path="url(#clipPath2)" fill="white" width="186" height="1" stroke="none"/>
      <rect x="1147" y="34" clip-path="url(#clipPath2)" fill="rgb(170,170,170)" width="187" height="1" stroke="none"/>
      <rect x="1333" y="7" clip-path="url(#clipPath2)" fill="rgb(170,170,170)" width="1" height="27" stroke="none"/>
    </g>
    <g font-size="13px" stroke-linecap="butt" transform="matrix(1,0,0,1,-545,278)" text-rendering="geometricPrecision" font-family="sans-serif" shape-rendering="geometricPrecision" font-weight="bold" stroke-miterlimit="1.45">
      <text x="1206.0868" xml:space="preserve" y="24.2848" clip-path="url(#clipPath8)" stroke="none">QtDrawer</text>
    </g>
    <g fill="rgb(244,244,244)" text-rendering="geometricPrecision" shape-rendering="geometricPrecision" transform="matrix(1,0,0,1,-545,278)" stroke="rgb(244,244,244)">
      <rect x="1366" width="186" height="76" y="-145" clip-path="url(#clipPath2)" stroke="none"/>
      <rect x="1365" y="-146" clip-path="url(#clipPath2)" fill="white" width="1" height="78" stroke="none"/>
      <rect x="1366" y="-146" clip-path="url(#clipPath2)" fill="white" width="186" height="1" stroke="none"/>
      <rect x="1366" y="-69" clip-path="url(#clipPath2)" fill="rgb(170,170,170)" width="187" height="1" stroke="none"/>
      <rect x="1552" y="-146" clip-path="url(#clipPath2)" fill="rgb(170,170,170)" width="1" height="77" stroke="none"/>
    </g>
    <g font-size="13px" stroke-linecap="butt" transform="matrix(1,0,0,1,-545,278)" text-rendering="geometricPrecision" font-family="sans-serif" shape-rendering="geometricPrecision" font-weight="bold" stroke-miterlimit="1.45">
      <text x="1401.1344" xml:space="preserve" y="-129.7782" clip-path="url(#clipPath9)" stroke="none">AbstractFactory</text>
    </g>
    <g text-rendering="geometricPrecision" shape-rendering="geometricPrecision" transform="matrix(1,0,0,1,-545,278)">
      <line y2="-121" fill="none" x1="1366" clip-path="url(#clipPath9)" x2="1553" y1="-121"/>
      <text stroke-linecap="butt" x="1370.6832" y="-105.5736" clip-path="url(#clipPath9)" font-family="sans-serif" stroke="none" stroke-miterlimit="1.45" xml:space="preserve"> </text>
      <line y2="-97" fill="none" x1="1366" clip-path="url(#clipPath9)" x2="1553" y1="-97"/>
      <text stroke-linecap="butt" x="1370.6832" y="-81.6049" clip-path="url(#clipPath9)" font-family="sans-serif" stroke="none" stroke-miterlimit="1.45" xml:space="preserve">+ create_drawer()</text>
      <rect x="970" y="193" clip-path="url(#clipPath2)" fill="rgb(244,244,244)" width="186" height="25" stroke="none"/>
      <rect x="969" y="192" clip-path="url(#clipPath2)" fill="white" width="1" height="27" stroke="none"/>
      <rect x="970" y="192" clip-path="url(#clipPath2)" fill="white" width="186" height="1" stroke="none"/>
      <rect x="970" y="218" clip-path="url(#clipPath2)" fill="rgb(170,170,170)" width="187" height="1" stroke="none"/>
      <rect x="1156" y="192" clip-path="url(#clipPath2)" fill="rgb(170,170,170)" width="1" height="26" stroke="none"/>
    </g>
    <g font-size="13px" stroke-linecap="butt" transform="matrix(1,0,0,1,-545,278)" text-rendering="geometricPrecision" font-family="sans-serif" shape-rendering="geometricPrecision" font-weight="bold" stroke-miterlimit="1.45">
      <text x="992.7706" xml:space="preserve" y="209.4794" clip-path="url(#clipPath10)" stroke="none">PyramideTriBuilder</text>
    </g>
    <g fill="rgb(244,244,244)" text-rendering="geometricPrecision" shape-rendering="geometricPrecision" transform="matrix(1,0,0,1,-545,278)" stroke="rgb(244,244,244)">
      <rect x="1156" width="186" height="76" y="94" clip-path="url(#clipPath2)" stroke="none"/>
      <rect x="1155" y="93" clip-path="url(#clipPath2)" fill="white" width="1" height="78" stroke="none"/>
      <rect x="1156" y="93" clip-path="url(#clipPath2)" fill="white" width="186" height="1" stroke="none"/>
      <rect x="1156" y="170" clip-path="url(#clipPath2)" fill="rgb(170,170,170)" width="187" height="1" stroke="none"/>
      <rect x="1342" y="93" clip-path="url(#clipPath2)" fill="rgb(170,170,170)" width="1" height="77" stroke="none"/>
    </g>
    <g font-size="13px" stroke-linecap="butt" transform="matrix(1,0,0,1,-545,278)" text-rendering="geometricPrecision" font-family="sans-serif" shape-rendering="geometricPrecision" font-weight="bold" stroke-miterlimit="1.45">
      <text x="1205.9899" xml:space="preserve" y="110.8169" clip-path="url(#clipPath2)" stroke="none">BaseBuilder</text>
    </g>
    <g text-rendering="geometricPrecision" shape-rendering="geometricPrecision" transform="matrix(1,0,0,1,-545,278)">
      <line y2="118" fill="none" x1="1156" clip-path="url(#clipPath2)" x2="1343" y1="118"/>
      <text stroke-linecap="butt" x="1160.5551" y="135.0215" clip-path="url(#clipPath2)" font-family="sans-serif" stroke="none" stroke-miterlimit="1.45" xml:space="preserve"> </text>
      <line y2="142" fill="none" x1="1156" clip-path="url(#clipPath2)" x2="1343" y1="142"/>
      <text stroke-linecap="butt" x="1160.5551" y="158.9902" clip-path="url(#clipPath2)" font-family="sans-serif" stroke="none" stroke-miterlimit="1.45" xml:space="preserve">+ build()</text>
      <rect x="923" y="-153" clip-path="url(#clipPath2)" fill="rgb(244,244,244)" width="186" height="105" stroke="none"/>
      <rect x="922" y="-154" clip-path="url(#clipPath2)" fill="white" width="1" height="107" stroke="none"/>
      <rect x="923" y="-154" clip-path="url(#clipPath2)" fill="white" width="186" height="1" stroke="none"/>
      <rect x="923" y="-48" clip-path="url(#clipPath2)" fill="rgb(170,170,170)" width="187" height="1" stroke="none"/>
      <rect x="1109" y="-154" clip-path="url(#clipPath2)" fill="rgb(170,170,170)" width="1" height="106" stroke="none"/>
    </g>
    <g font-size="13px" stroke-linecap="butt" transform="matrix(1,0,0,1,-545,278)" text-rendering="geometricPrecision" font-family="sans-serif" shape-rendering="geometricPrecision" font-weight="bold" stroke-miterlimit="1.45">
      <text x="963.2084" xml:space="preserve" y="-137.498" clip-path="url(#clipPath11)" stroke="none">SceneManager</text>
    </g>
    <g text-rendering="geometricPrecision" shape-rendering="geometricPrecision" transform="matrix(1,0,0,1,-545,278)">
      <line y2="-129" fill="none" x1="923" clip-path="url(#clipPath11)" x2="1110" y1="-129"/>
      <line y2="-119" fill="none" x1="923" clip-path="url(#clipPath11)" x2="1110" y1="-119"/>
      <text stroke-linecap="butt" x="927.9648" y="-103.2934" clip-path="url(#clipPath11)" font-family="sans-serif" stroke="none" stroke-miterlimit="1.45" xml:space="preserve">+ draw()</text>
      <text stroke-linecap="butt" x="927.9648" y="-89.3247" clip-path="url(#clipPath11)" font-family="sans-serif" stroke="none" stroke-miterlimit="1.45" xml:space="preserve">+ edit_mirror()</text>
      <text stroke-linecap="butt" x="927.9648" y="-75.3559" clip-path="url(#clipPath11)" font-family="sans-serif" stroke="none" stroke-miterlimit="1.45" xml:space="preserve">+ edit_light()</text>
      <text stroke-linecap="butt" x="927.9648" y="-61.3872" clip-path="url(#clipPath11)" font-family="sans-serif" stroke="none" stroke-miterlimit="1.45" xml:space="preserve">+ edit_object()</text>
      <rect x="1150" y="-146" clip-path="url(#clipPath2)" fill="rgb(244,244,244)" width="186" height="77" stroke="none"/>
      <rect x="1149" y="-147" clip-path="url(#clipPath2)" fill="white" width="1" height="79" stroke="none"/>
      <rect x="1150" y="-147" clip-path="url(#clipPath2)" fill="white" width="186" height="1" stroke="none"/>
      <rect x="1150" y="-69" clip-path="url(#clipPath2)" fill="rgb(170,170,170)" width="187" height="1" stroke="none"/>
      <rect x="1336" y="-147" clip-path="url(#clipPath2)" fill="rgb(170,170,170)" width="1" height="78" stroke="none"/>
    </g>
    <g font-size="13px" stroke-linecap="butt" transform="matrix(1,0,0,1,-545,278)" text-rendering="geometricPrecision" font-family="sans-serif" shape-rendering="geometricPrecision" font-weight="bold" stroke-miterlimit="1.45">
      <text x="1199.6694" xml:space="preserve" y="-130.2282" clip-path="url(#clipPath12)" stroke="none">BaseDrawer</text>
    </g>
    <g text-rendering="geometricPrecision" shape-rendering="geometricPrecision" transform="matrix(1,0,0,1,-545,278)">
      <line y2="-122" fill="none" x1="1150" clip-path="url(#clipPath12)" x2="1337" y1="-122"/>
      <text stroke-linecap="butt" x="1154.5361" y="-106.0236" clip-path="url(#clipPath12)" font-family="sans-serif" stroke="none" stroke-miterlimit="1.45" xml:space="preserve"> </text>
      <line y2="-98" fill="none" x1="1150" clip-path="url(#clipPath12)" x2="1337" y1="-98"/>
      <text stroke-linecap="butt" x="1154.5361" y="-82.0549" clip-path="url(#clipPath12)" font-family="sans-serif" stroke="none" stroke-miterlimit="1.45" xml:space="preserve">+ draw_pixel()</text>
      <rect x="970" y="226" clip-path="url(#clipPath2)" fill="rgb(244,244,244)" width="186" height="25" stroke="none"/>
      <rect x="969" y="225" clip-path="url(#clipPath2)" fill="white" width="1" height="27" stroke="none"/>
      <rect x="970" y="225" clip-path="url(#clipPath2)" fill="white" width="186" height="1" stroke="none"/>
      <rect x="970" y="251" clip-path="url(#clipPath2)" fill="rgb(170,170,170)" width="187" height="1" stroke="none"/>
      <rect x="1156" y="225" clip-path="url(#clipPath2)" fill="rgb(170,170,170)" width="1" height="26" stroke="none"/>
    </g>
    <g font-size="13px" stroke-linecap="butt" transform="matrix(1,0,0,1,-545,278)" text-rendering="geometricPrecision" font-family="sans-serif" shape-rendering="geometricPrecision" font-weight="bold" stroke-miterlimit="1.45">
      <text x="983.0967" xml:space="preserve" y="242.9794" clip-path="url(#clipPath13)" stroke="none">PyramideTetraBuilder</text>
    </g>
    <g fill="rgb(244,244,244)" text-rendering="geometricPrecision" shape-rendering="geometricPrecision" transform="matrix(1,0,0,1,-545,278)" stroke="rgb(244,244,244)">
      <rect x="970" width="186" height="25" y="260" clip-path="url(#clipPath2)" stroke="none"/>
      <rect x="969" y="259" clip-path="url(#clipPath2)" fill="white" width="1" height="27" stroke="none"/>
      <rect x="970" y="259" clip-path="url(#clipPath2)" fill="white" width="186" height="1" stroke="none"/>
      <rect x="970" y="285" clip-path="url(#clipPath2)" fill="rgb(170,170,170)" width="187" height="1" stroke="none"/>
      <rect x="1156" y="259" clip-path="url(#clipPath2)" fill="rgb(170,170,170)" width="1" height="26" stroke="none"/>
    </g>
    <g font-size="13px" stroke-linecap="butt" transform="matrix(1,0,0,1,-545,278)" text-rendering="geometricPrecision" font-family="sans-serif" shape-rendering="geometricPrecision" font-weight="bold" stroke-miterlimit="1.45">
      <text x="981.3448" xml:space="preserve" y="276.4794" clip-path="url(#clipPath14)" stroke="none">PyramidePentaBuilder</text>
    </g>
    <g fill="rgb(244,244,244)" text-rendering="geometricPrecision" shape-rendering="geometricPrecision" transform="matrix(1,0,0,1,-545,278)" stroke="rgb(244,244,244)">
      <rect x="970" width="186" height="25" y="293" clip-path="url(#clipPath2)" stroke="none"/>
      <rect x="969" y="292" clip-path="url(#clipPath2)" fill="white" width="1" height="27" stroke="none"/>
      <rect x="970" y="292" clip-path="url(#clipPath2)" fill="white" width="186" height="1" stroke="none"/>
      <rect x="970" y="318" clip-path="url(#clipPath2)" fill="rgb(170,170,170)" width="187" height="1" stroke="none"/>
      <rect x="1156" y="292" clip-path="url(#clipPath2)" fill="rgb(170,170,170)" width="1" height="26" stroke="none"/>
    </g>
    <g font-size="13px" stroke-linecap="butt" transform="matrix(1,0,0,1,-545,278)" text-rendering="geometricPrecision" font-family="sans-serif" shape-rendering="geometricPrecision" font-weight="bold" stroke-miterlimit="1.45">
      <text x="1004.5772" xml:space="preserve" y="309.9794" clip-path="url(#clipPath15)" stroke="none">PrysmTriBuilder</text>
    </g>
    <g fill="rgb(244,244,244)" text-rendering="geometricPrecision" shape-rendering="geometricPrecision" transform="matrix(1,0,0,1,-545,278)" stroke="rgb(244,244,244)">
      <rect x="970" width="186" height="25" y="327" clip-path="url(#clipPath2)" stroke="none"/>
      <rect x="969" y="326" clip-path="url(#clipPath2)" fill="white" width="1" height="27" stroke="none"/>
      <rect x="970" y="326" clip-path="url(#clipPath2)" fill="white" width="186" height="1" stroke="none"/>
      <rect x="970" y="352" clip-path="url(#clipPath2)" fill="rgb(170,170,170)" width="187" height="1" stroke="none"/>
      <rect x="1156" y="326" clip-path="url(#clipPath2)" fill="rgb(170,170,170)" width="1" height="26" stroke="none"/>
    </g>
    <g font-size="13px" stroke-linecap="butt" transform="matrix(1,0,0,1,-545,278)" text-rendering="geometricPrecision" font-family="sans-serif" shape-rendering="geometricPrecision" font-weight="bold" stroke-miterlimit="1.45">
      <text x="994.9034" xml:space="preserve" y="343.4794" clip-path="url(#clipPath16)" stroke="none">PrysmTetraBuilder</text>
    </g>
    <g fill="rgb(244,244,244)" text-rendering="geometricPrecision" shape-rendering="geometricPrecision" transform="matrix(1,0,0,1,-545,278)" stroke="rgb(244,244,244)">
      <rect x="970" width="186" height="25" y="360" clip-path="url(#clipPath2)" stroke="none"/>
      <rect x="969" y="359" clip-path="url(#clipPath2)" fill="white" width="1" height="27" stroke="none"/>
      <rect x="970" y="359" clip-path="url(#clipPath2)" fill="white" width="186" height="1" stroke="none"/>
      <rect x="970" y="385" clip-path="url(#clipPath2)" fill="rgb(170,170,170)" width="187" height="1" stroke="none"/>
      <rect x="1156" y="359" clip-path="url(#clipPath2)" fill="rgb(170,170,170)" width="1" height="26" stroke="none"/>
    </g>
    <g font-size="13px" stroke-linecap="butt" transform="matrix(1,0,0,1,-545,278)" text-rendering="geometricPrecision" font-family="sans-serif" shape-rendering="geometricPrecision" font-weight="bold" stroke-miterlimit="1.45">
      <text x="993.1514" xml:space="preserve" y="376.9794" clip-path="url(#clipPath17)" stroke="none">PrysmPentaBuilder</text>
    </g>
    <g fill="rgb(244,244,244)" text-rendering="geometricPrecision" shape-rendering="geometricPrecision" transform="matrix(1,0,0,1,-545,278)" stroke="rgb(244,244,244)">
      <rect x="970" width="186" height="25" y="394" clip-path="url(#clipPath2)" stroke="none"/>
      <rect x="969" y="393" clip-path="url(#clipPath2)" fill="white" width="1" height="27" stroke="none"/>
      <rect x="970" y="393" clip-path="url(#clipPath2)" fill="white" width="186" height="1" stroke="none"/>
      <rect x="970" y="419" clip-path="url(#clipPath2)" fill="rgb(170,170,170)" width="187" height="1" stroke="none"/>
      <rect x="1156" y="393" clip-path="url(#clipPath2)" fill="rgb(170,170,170)" width="1" height="26" stroke="none"/>
    </g>
    <g font-size="13px" stroke-linecap="butt" transform="matrix(1,0,0,1,-545,278)" text-rendering="geometricPrecision" font-family="sans-serif" shape-rendering="geometricPrecision" font-weight="bold" stroke-miterlimit="1.45">
      <text x="1011.3089" xml:space="preserve" y="410.4794" clip-path="url(#clipPath18)" stroke="none">SphereBuilder</text>
    </g>
    <g fill="rgb(244,244,244)" text-rendering="geometricPrecision" shape-rendering="geometricPrecision" transform="matrix(1,0,0,1,-545,278)" stroke="rgb(244,244,244)">
      <rect x="970" width="186" height="25" y="427" clip-path="url(#clipPath2)" stroke="none"/>
      <rect x="969" y="426" clip-path="url(#clipPath2)" fill="white" width="1" height="27" stroke="none"/>
      <rect x="970" y="426" clip-path="url(#clipPath2)" fill="white" width="186" height="1" stroke="none"/>
      <rect x="970" y="452" clip-path="url(#clipPath2)" fill="rgb(170,170,170)" width="187" height="1" stroke="none"/>
      <rect x="1156" y="426" clip-path="url(#clipPath2)" fill="rgb(170,170,170)" width="1" height="26" stroke="none"/>
    </g>
    <g font-size="13px" stroke-linecap="butt" transform="matrix(1,0,0,1,-545,278)" text-rendering="geometricPrecision" font-family="sans-serif" shape-rendering="geometricPrecision" font-weight="bold" stroke-miterlimit="1.45">
      <text x="1019.0213" xml:space="preserve" y="443.9794" clip-path="url(#clipPath19)" stroke="none">ConeBuilder</text>
    </g>
    <g fill="rgb(244,244,244)" text-rendering="geometricPrecision" shape-rendering="geometricPrecision" transform="matrix(1,0,0,1,-545,278)" stroke="rgb(244,244,244)">
      <rect x="970" width="186" height="25" y="461" clip-path="url(#clipPath2)" stroke="none"/>
      <rect x="969" y="460" clip-path="url(#clipPath2)" fill="white" width="1" height="27" stroke="none"/>
      <rect x="970" y="460" clip-path="url(#clipPath2)" fill="white" width="186" height="1" stroke="none"/>
      <rect x="970" y="486" clip-path="url(#clipPath2)" fill="rgb(170,170,170)" width="187" height="1" stroke="none"/>
      <rect x="1156" y="460" clip-path="url(#clipPath2)" fill="rgb(170,170,170)" width="1" height="26" stroke="none"/>
    </g>
    <g font-size="13px" stroke-linecap="butt" transform="matrix(1,0,0,1,-545,278)" text-rendering="geometricPrecision" font-family="sans-serif" shape-rendering="geometricPrecision" font-weight="bold" stroke-miterlimit="1.45">
      <text x="1006.9354" xml:space="preserve" y="477.4794" clip-path="url(#clipPath20)" stroke="none">CylinderBuilder</text>
    </g>
    <g fill="rgb(244,244,244)" text-rendering="geometricPrecision" shape-rendering="geometricPrecision" transform="matrix(1,0,0,1,-545,278)" stroke="rgb(244,244,244)">
      <rect x="1366" width="186" height="129" y="94" clip-path="url(#clipPath2)" stroke="none"/>
      <rect x="1365" y="93" clip-path="url(#clipPath2)" fill="white" width="1" height="131" stroke="none"/>
      <rect x="1366" y="93" clip-path="url(#clipPath2)" fill="white" width="186" height="1" stroke="none"/>
      <rect x="1366" y="223" clip-path="url(#clipPath2)" fill="rgb(170,170,170)" width="187" height="1" stroke="none"/>
      <rect x="1552" y="93" clip-path="url(#clipPath2)" fill="rgb(170,170,170)" width="1" height="130" stroke="none"/>
    </g>
    <g font-size="13px" stroke-linecap="butt" transform="matrix(1,0,0,1,-545,278)" text-rendering="geometricPrecision" font-family="sans-serif" shape-rendering="geometricPrecision" font-weight="bold" stroke-miterlimit="1.45">
      <text x="1429.6227" xml:space="preserve" y="110.8169" clip-path="url(#clipPath21)" stroke="none">Material</text>
    </g>
    <g text-rendering="geometricPrecision" shape-rendering="geometricPrecision" transform="matrix(1,0,0,1,-545,278)">
      <line y2="118" fill="none" x1="1366" clip-path="url(#clipPath21)" x2="1553" y1="118"/>
      <text stroke-linecap="butt" x="1370.6832" y="135.0215" clip-path="url(#clipPath21)" font-family="sans-serif" stroke="none" stroke-miterlimit="1.45" xml:space="preserve"> </text>
      <line y2="142" fill="none" x1="1366" clip-path="url(#clipPath21)" x2="1553" y1="142"/>
      <text stroke-linecap="butt" x="1370.6832" y="158.9902" clip-path="url(#clipPath21)" font-family="sans-serif" stroke="none" stroke-miterlimit="1.45" xml:space="preserve">+ get_reflected_ray()</text>
      <text stroke-linecap="butt" x="1370.6832" y="172.959" clip-path="url(#clipPath21)" font-family="sans-serif" stroke="none" stroke-miterlimit="1.45" xml:space="preserve">+ get_ambient()</text>
      <text stroke-linecap="butt" x="1370.6832" y="186.9277" clip-path="url(#clipPath21)" font-family="sans-serif" stroke="none" stroke-miterlimit="1.45" xml:space="preserve">+ get_diffuse()</text>
      <text stroke-linecap="butt" x="1370.6832" y="200.8965" clip-path="url(#clipPath21)" font-family="sans-serif" stroke="none" stroke-miterlimit="1.45" xml:space="preserve">+ get_reflective()</text>
      <text stroke-linecap="butt" x="1370.6832" y="214.8652" clip-path="url(#clipPath21)" font-family="sans-serif" stroke="none" stroke-miterlimit="1.45" xml:space="preserve">+ get_polish()</text>
      <rect x="561" y="-28" clip-path="url(#clipPath2)" fill="rgb(244,244,244)" width="186" height="105" stroke="none"/>
      <rect x="560" y="-29" clip-path="url(#clipPath2)" fill="white" width="1" height="107" stroke="none"/>
      <rect x="561" y="-29" clip-path="url(#clipPath2)" fill="white" width="186" height="1" stroke="none"/>
      <rect x="561" y="77" clip-path="url(#clipPath2)" fill="rgb(170,170,170)" width="187" height="1" stroke="none"/>
      <rect x="747" y="-29" clip-path="url(#clipPath2)" fill="rgb(170,170,170)" width="1" height="106" stroke="none"/>
    </g>
    <g font-size="13px" stroke-linecap="butt" transform="matrix(1,0,0,1,-545,278)" text-rendering="geometricPrecision" font-family="sans-serif" shape-rendering="geometricPrecision" font-weight="bold" stroke-miterlimit="1.45">
      <text x="641.7139" xml:space="preserve" y="-12.1523" clip-path="url(#clipPath22)" stroke="none">Ray</text>
    </g>
    <g text-rendering="geometricPrecision" shape-rendering="geometricPrecision" transform="matrix(1,0,0,1,-545,278)">
      <line y2="-4" fill="none" x1="561" clip-path="url(#clipPath22)" x2="748" y1="-4"/>
      <line y2="5" fill="none" x1="561" clip-path="url(#clipPath22)" x2="748" y1="5"/>
      <text stroke-linecap="butt" x="565.9849" y="22.0523" clip-path="url(#clipPath22)" font-family="sans-serif" stroke="none" stroke-miterlimit="1.45" xml:space="preserve">+ get_origin()</text>
      <text stroke-linecap="butt" x="565.9849" y="36.021" clip-path="url(#clipPath22)" font-family="sans-serif" stroke="none" stroke-miterlimit="1.45" xml:space="preserve">+ get_direction()</text>
      <text stroke-linecap="butt" x="565.9849" y="49.9898" clip-path="url(#clipPath22)" font-family="sans-serif" stroke="none" stroke-miterlimit="1.45" xml:space="preserve">+ get_point_by_t()</text>
      <path fill="none" stroke-miterlimit="1.45" d="M893.4755 -223.6399 L916.4335 -223.6399" clip-path="url(#clipPath2)" stroke-linecap="butt"/>
      <path stroke-miterlimit="1.45" d="M886.4755 -223.6399 L893.4755 -228.6399 L900.4755 -223.6399 L893.4755 -218.6399 Z" clip-path="url(#clipPath2)" stroke-linecap="butt" stroke="none"/>
      <path fill="none" stroke-miterlimit="1.45" d="M690.7025 -223.6399 L676.9943 -223.6399 L676.9943 -146.8428" clip-path="url(#clipPath2)" stroke-linecap="butt"/>
    </g>
    <g stroke-linecap="butt" transform="matrix(1,0,0,1,-545,278)" fill="white" text-rendering="geometricPrecision" shape-rendering="geometricPrecision" stroke="white" stroke-miterlimit="1.45">
      <path d="M697.7025 -223.6399 L690.7025 -218.6399 L683.7025 -223.6399 L690.7025 -228.6399 Z" stroke="none" clip-path="url(#clipPath2)"/>
      <path fill="none" d="M697.7025 -223.6399 L690.7025 -218.6399 L683.7025 -223.6399 L690.7025 -228.6399 Z" clip-path="url(#clipPath2)" stroke="black"/>
      <path fill="none" d="M1112.1755 15.3888 L1146.9774 15.3888" clip-path="url(#clipPath2)" stroke="black"/>
      <path fill="black" d="M1105.1755 15.3888 L1112.1755 10.3888 L1119.1755 15.3888 L1112.1755 20.3888 Z" clip-path="url(#clipPath2)" stroke="none"/>
      <path fill="none" stroke-dasharray="6,2" d="M1365.6611 21.2179 L1340.7004 21.2179" clip-path="url(#clipPath2)" stroke="black"/>
      <path fill="black" stroke-dasharray="6,2" d="M1336.7004 21.2179 L1348.7004 27.2179 L1336.7004 21.2179 L1348.7004 15.2179 Z" clip-path="url(#clipPath2)" stroke="none"/>
    </g>
    <g text-rendering="geometricPrecision" shape-rendering="geometricPrecision" transform="matrix(1,0,0,1,-545,278)">
      <path fill="none" d="M1336.7004 21.2179 L1348.7004 27.2179 L1336.7004 21.2179 L1348.7004 15.2179 Z" clip-path="url(#clipPath2)"/>
      <path fill="none" stroke-miterlimit="1.45" stroke-dasharray="6,2" d="M1460.0406 7.2043 L1460.0406 -53.6687" clip-path="url(#clipPath2)" stroke-linecap="butt"/>
    </g>
    <g stroke-linecap="butt" transform="matrix(1,0,0,1,-545,278)" fill="white" text-rendering="geometricPrecision" shape-rendering="geometricPrecision" stroke-dasharray="6,2" stroke="white" stroke-miterlimit="1.45">
      <path d="M1460.0406 -68.6687 L1454.0406 -52.6687 L1466.0406 -52.6687 Z" stroke="none" clip-path="url(#clipPath2)"/>
      <path fill="none" stroke-dasharray="none" d="M1460.0406 -68.6687 L1454.0406 -52.6687 L1466.0406 -52.6687 Z" clip-path="url(#clipPath2)" stroke="black"/>
      <path fill="none" stroke-dasharray="none" d="M909.4693 87.5402 L882.9876 87.5402 L882.9876 205.9125 L969.2801 205.9125" clip-path="url(#clipPath2)" stroke="black"/>
      <path fill="black" stroke-dasharray="none" d="M916.4693 87.5402 L909.4693 92.5402 L902.4693 87.5402 L909.4693 82.5402 Z" clip-path="url(#clipPath2)" stroke="none"/>
      <path fill="none" d="M1157.9833 205.9125 L1249.9125 205.9125 L1249.9125 186.8688" clip-path="url(#clipPath2)" stroke="black"/>
      <path d="M1249.9125 171.8688 L1243.9125 187.8688 L1255.9125 187.8688 Z" clip-path="url(#clipPath2)" stroke="none"/>
      <path fill="none" stroke-dasharray="none" d="M1249.9125 171.8688 L1243.9125 187.8688 L1255.9125 187.8688 Z" clip-path="url(#clipPath2)" stroke="black"/>
      <path fill="none" stroke-dasharray="none" d="M1009.3408 -177.5371 L1008.614 -154.548" clip-path="url(#clipPath2)" stroke="black"/>
      <path fill="black" stroke-dasharray="none" d="M1009.562 -184.5336 L1014.3383 -177.3791 L1009.1196 -170.5406 L1004.3433 -177.6951 Z" clip-path="url(#clipPath2)" stroke="none"/>
      <path fill="none" stroke-dasharray="none" d="M1009.2298 -40.0059 L1010.3173 1.9126" clip-path="url(#clipPath2)" stroke="black"/>
      <path fill="black" stroke-dasharray="none" d="M1009.0483 -47.0035 L1014.2281 -40.1355 L1009.4113 -33.0082 L1004.2315 -39.8762 Z" clip-path="url(#clipPath2)" stroke="none"/>
      <path fill="none" d="M1241.0908 7.2043 L1240.0779 -53.2217" clip-path="url(#clipPath2)" stroke="black"/>
      <path d="M1239.8265 -68.2196 L1234.0955 -52.1213 L1246.0938 -52.3224 Z" clip-path="url(#clipPath2)" stroke="none"/>
      <path fill="none" stroke-dasharray="none" d="M1239.8265 -68.2196 L1234.0955 -52.1213 L1246.0938 -52.3224 Z" clip-path="url(#clipPath2)" stroke="black"/>
      <path fill="none" stroke-dasharray="none" d="M909.4693 87.5402 L882.9876 87.5402 L882.9876 239.4125 L969.2801 239.4125" clip-path="url(#clipPath2)" stroke="black"/>
      <path fill="black" stroke-dasharray="none" d="M916.4693 87.5402 L909.4693 92.5402 L902.4693 87.5402 L909.4693 82.5402 Z" clip-path="url(#clipPath2)" stroke="none"/>
      <path fill="none" d="M1157.9833 239.4125 L1249.9125 239.4125 L1249.9125 186.8961" clip-path="url(#clipPath2)" stroke="black"/>
      <path d="M1249.9125 171.8961 L1243.9125 187.8961 L1255.9125 187.8961 Z" clip-path="url(#clipPath2)" stroke="none"/>
      <path fill="none" stroke-dasharray="none" d="M1249.9125 171.8961 L1243.9125 187.8961 L1255.9125 187.8961 Z" clip-path="url(#clipPath2)" stroke="black"/>
      <path fill="none" stroke-dasharray="none" d="M909.4693 87.5402 L882.9876 87.5402 L882.9876 272.9125 L969.2801 272.9125" clip-path="url(#clipPath2)" stroke="black"/>
      <path fill="black" stroke-dasharray="none" d="M916.4693 87.5402 L909.4693 92.5402 L902.4693 87.5402 L909.4693 82.5402 Z" clip-path="url(#clipPath2)" stroke="none"/>
      <path fill="none" d="M1157.9833 272.9125 L1249.9125 272.9125 L1249.9125 186.8672" clip-path="url(#clipPath2)" stroke="black"/>
      <path d="M1249.9125 171.8672 L1243.9125 187.8672 L1255.9125 187.8672 Z" clip-path="url(#clipPath2)" stroke="none"/>
      <path fill="none" stroke-dasharray="none" d="M1249.9125 171.8672 L1243.9125 187.8672 L1255.9125 187.8672 Z" clip-path="url(#clipPath2)" stroke="black"/>
      <path fill="none" stroke-dasharray="none" d="M909.4078 87.5402 L882.9876 87.5402 L882.9876 306.4125 L969.2801 306.4125" clip-path="url(#clipPath2)" stroke="black"/>
      <path fill="black" stroke-dasharray="none" d="M916.4078 87.5402 L909.4078 92.5402 L902.4078 87.5402 L909.4078 82.5402 Z" clip-path="url(#clipPath2)" stroke="none"/>
      <path fill="none" d="M1157.9833 306.4125 L1249.9125 306.4125 L1249.9125 186.8761" clip-path="url(#clipPath2)" stroke="black"/>
      <path d="M1249.9125 171.8761 L1243.9125 187.8761 L1255.9125 187.8761 Z" clip-path="url(#clipPath2)" stroke="none"/>
      <path fill="none" stroke-dasharray="none" d="M1249.9125 171.8761 L1243.9125 187.8761 L1255.9125 187.8761 Z" clip-path="url(#clipPath2)" stroke="black"/>
      <path fill="none" stroke-dasharray="none" d="M909.4693 87.5402 L882.9876 87.5402 L882.9876 339.9125 L969.2801 339.9125" clip-path="url(#clipPath2)" stroke="black"/>
      <path fill="black" stroke-dasharray="none" d="M916.4693 87.5402 L909.4693 92.5402 L902.4693 87.5402 L909.4693 82.5402 Z" clip-path="url(#clipPath2)" stroke="none"/>
      <path fill="none" d="M1157.9833 339.9125 L1249.9125 339.9125 L1249.9125 186.9132" clip-path="url(#clipPath2)" stroke="black"/>
      <path d="M1249.9125 171.9132 L1243.9125 187.9132 L1255.9125 187.9132 Z" clip-path="url(#clipPath2)" stroke="none"/>
      <path fill="none" stroke-dasharray="none" d="M1249.9125 171.9132 L1243.9125 187.9132 L1255.9125 187.9132 Z" clip-path="url(#clipPath2)" stroke="black"/>
      <path fill="none" stroke-dasharray="none" d="M909.4693 87.5402 L882.9876 87.5402 L882.9876 373.4125 L969.2801 373.4125" clip-path="url(#clipPath2)" stroke="black"/>
      <path fill="black" stroke-dasharray="none" d="M916.4693 87.5402 L909.4693 92.5402 L902.4693 87.5402 L909.4693 82.5402 Z" clip-path="url(#clipPath2)" stroke="none"/>
      <path fill="none" d="M1157.9833 373.4125 L1249.9125 373.4125 L1249.9125 186.9114" clip-path="url(#clipPath2)" stroke="black"/>
      <path d="M1249.9125 171.9114 L1243.9125 187.9114 L1255.9125 187.9114 Z" clip-path="url(#clipPath2)" stroke="none"/>
      <path fill="none" stroke-dasharray="none" d="M1249.9125 171.9114 L1243.9125 187.9114 L1255.9125 187.9114 Z" clip-path="url(#clipPath2)" stroke="black"/>
      <path fill="none" stroke-dasharray="none" d="M909.4693 87.5402 L882.9876 87.5402 L882.9876 406.9125 L969.2801 406.9125" clip-path="url(#clipPath2)" stroke="black"/>
      <path fill="black" stroke-dasharray="none" d="M916.4693 87.5402 L909.4693 92.5402 L902.4693 87.5402 L909.4693 82.5402 Z" clip-path="url(#clipPath2)" stroke="none"/>
      <path fill="none" d="M1157.9833 406.9125 L1249.9125 406.9125 L1249.9125 186.8901" clip-path="url(#clipPath2)" stroke="black"/>
      <path d="M1249.9125 171.8901 L1243.9125 187.8901 L1255.9125 187.8901 Z" clip-path="url(#clipPath2)" stroke="none"/>
      <path fill="none" stroke-dasharray="none" d="M1249.9125 171.8901 L1243.9125 187.8901 L1255.9125 187.8901 Z" clip-path="url(#clipPath2)" stroke="black"/>
      <path fill="none" stroke-dasharray="none" d="M909.4693 87.5402 L882.9876 87.5402 L882.9876 440.4125 L969.2801 440.4125" clip-path="url(#clipPath2)" stroke="black"/>
      <path fill="black" stroke-dasharray="none" d="M916.4693 87.5402 L909.4693 92.5402 L902.4693 87.5402 L909.4693 82.5402 Z" clip-path="url(#clipPath2)" stroke="none"/>
      <path fill="none" d="M1157.9833 440.4125 L1249.9125 440.4125 L1249.9125 186.8935" clip-path="url(#clipPath2)" stroke="black"/>
      <path d="M1249.9125 171.8935 L1243.9125 187.8935 L1255.9125 187.8935 Z" clip-path="url(#clipPath2)" stroke="none"/>
      <path fill="none" stroke-dasharray="none" d="M1249.9125 171.8935 L1243.9125 187.8935 L1255.9125 187.8935 Z" clip-path="url(#clipPath2)" stroke="black"/>
      <path fill="none" stroke-dasharray="none" d="M909.4693 87.5402 L882.9876 87.5402 L882.9876 473.9125 L969.2801 473.9125" clip-path="url(#clipPath2)" stroke="black"/>
      <path fill="black" stroke-dasharray="none" d="M916.4693 87.5402 L909.4693 92.5402 L902.4693 87.5402 L909.4693 82.5402 Z" clip-path="url(#clipPath2)" stroke="none"/>
      <path fill="none" d="M1157.9833 473.9125 L1249.9125 473.9125 L1249.9125 186.9021" clip-path="url(#clipPath2)" stroke="black"/>
      <path d="M1249.9125 171.9021 L1243.9125 187.9021 L1255.9125 187.9021 Z" clip-path="url(#clipPath2)" stroke="none"/>
      <path fill="none" stroke-dasharray="none" d="M1249.9125 171.9021 L1243.9125 187.9021 L1255.9125 187.9021 Z" clip-path="url(#clipPath2)" stroke="black"/>
      <path fill="none" stroke-dasharray="none" d="M1358.7074 159.65 L1344.2488 159.65" clip-path="url(#clipPath2)" stroke="black"/>
      <path fill="black" stroke-dasharray="none" d="M1365.7074 159.65 L1358.7074 164.65 L1351.7074 159.65 L1358.7074 154.65 Z" clip-path="url(#clipPath2)" stroke="none"/>
    </g>
  </g>
</svg>
