<?xml version="1.0" encoding="UTF-8"?><svg xmlns="http://www.w3.org/2000/svg" xmlns:xlink="http://www.w3.org/1999/xlink" fill-opacity="1" color-rendering="auto" color-interpolation="auto" text-rendering="auto" stroke="black" stroke-linecap="square" width="1035" stroke-miterlimit="10" shape-rendering="auto" stroke-opacity="1" fill="black" stroke-dasharray="none" font-weight="normal" stroke-width="1" height="1477" font-family="'Dialog'" font-style="normal" stroke-linejoin="miter" font-size="12px" stroke-dashoffset="0" image-rendering="auto">
  <!--Generated by ySVG 2.6-->
  <defs id="genericDefs"/>
  <g>
    <defs id="defs1">
      <clipPath clipPathUnits="userSpaceOnUse" id="clipPath1">
        <path d="M0 0 L1035 0 L1035 1477 L0 1477 L0 0 Z"/>
      </clipPath>
      <clipPath clipPathUnits="userSpaceOnUse" id="clipPath2">
        <path d="M418 110 L1453 110 L1453 1587 L418 1587 L418 110 Z"/>
      </clipPath>
    </defs>
    <g fill="white" text-rendering="geometricPrecision" shape-rendering="geometricPrecision" transform="translate(-418,-110)" stroke="white">
      <rect x="418" width="1035" height="1477" y="110" clip-path="url(#clipPath2)" stroke="none"/>
    </g>
    <g text-rendering="geometricPrecision" stroke-miterlimit="1.45" shape-rendering="geometricPrecision" transform="matrix(1,0,0,1,-418,-110)" stroke-linecap="butt">
      <rect x="523.8" y="156.55" clip-path="url(#clipPath2)" fill="none" width="244.2" rx="40.7" ry="40.7" height="81.4"/>
      <text x="613.4357" font-size="17px" y="203.1353" clip-path="url(#clipPath2)" font-family="sans-serif" stroke="none" xml:space="preserve">Начало</text>
    </g>
    <g text-rendering="geometricPrecision" stroke-miterlimit="1.45" shape-rendering="geometricPrecision" transform="matrix(1,0,0,1,-418,-110)" stroke-linecap="butt">
      <path fill="none" d="M869.625 126.6672 L815 126.6672 L815 267.8328 L869.625 267.8328" clip-path="url(#clipPath2)"/>
      <text x="824.0132" font-size="17px" y="143.7681" clip-path="url(#clipPath2)" font-family="sans-serif" stroke="none" xml:space="preserve">(hit_tri) Входные данные:</text>
      <text x="824.0132" font-size="17px" y="163.5571" clip-path="url(#clipPath2)" font-family="sans-serif" stroke="none" xml:space="preserve">O - начало луча,</text>
      <text x="824.0132" font-size="17px" y="183.3462" clip-path="url(#clipPath2)" font-family="sans-serif" stroke="none" xml:space="preserve">D - направление луча,</text>
      <text x="824.0132" font-size="17px" y="203.1353" clip-path="url(#clipPath2)" font-family="sans-serif" stroke="none" xml:space="preserve">V0, V1, V2 - вершины треугольной грани,</text>
      <text x="824.0132" font-size="17px" y="222.9243" clip-path="url(#clipPath2)" font-family="sans-serif" stroke="none" xml:space="preserve">tmin, tmax - мин., макс. возможные значения t</text>
      <text x="824.0132" font-size="17px" y="242.7134" clip-path="url(#clipPath2)" font-family="sans-serif" stroke="none" xml:space="preserve">Выходные данные: </text>
      <text x="824.0132" font-size="17px" y="262.5024" clip-path="url(#clipPath2)" font-family="sans-serif" stroke="none" xml:space="preserve">hitinfo - информация о пересечении</text>
    </g>
    <g text-rendering="geometricPrecision" stroke-miterlimit="1.45" shape-rendering="geometricPrecision" transform="matrix(1,0,0,1,-418,-110)" stroke-linecap="butt">
      <rect x="524.7683" y="1490.3771" clip-path="url(#clipPath2)" fill="none" width="244.2" rx="40.7" ry="40.7" height="81.4"/>
      <text x="619.0607" font-size="17px" y="1536.9623" clip-path="url(#clipPath2)" font-family="sans-serif" stroke="none" xml:space="preserve">Конец</text>
    </g>
    <g text-rendering="geometricPrecision" stroke-miterlimit="1.45" shape-rendering="geometricPrecision" transform="matrix(1,0,0,1,-418,-110)" stroke-linecap="butt">
      <path fill="none" d="M523.8 259.9397 L768 259.9397 L768 341.3397 L523.8 341.3397 Z" clip-path="url(#clipPath2)"/>
      <text x="588.9774" font-size="17px" y="286.7358" clip-path="url(#clipPath2)" font-family="sans-serif" stroke="none" xml:space="preserve">E1 = V1 - V0,</text>
      <text x="588.9774" font-size="17px" y="306.5249" clip-path="url(#clipPath2)" font-family="sans-serif" stroke="none" xml:space="preserve">E2 = V2 - V0,</text>
      <text x="581.0253" font-size="17px" y="326.314" clip-path="url(#clipPath2)" font-family="sans-serif" stroke="none" xml:space="preserve">hitinfo.t = -100</text>
    </g>
    <g text-rendering="geometricPrecision" stroke-miterlimit="1.45" shape-rendering="geometricPrecision" transform="matrix(1,0,0,1,-418,-110)" stroke-linecap="butt">
      <path fill="none" d="M849.625 358.3293 L815 358.3293 L815 439.7293 L849.625 439.7293" clip-path="url(#clipPath2)"/>
      <text x="839.2148" font-size="17px" y="404.9146" clip-path="url(#clipPath2)" font-family="sans-serif" stroke="none" xml:space="preserve">Векторное произведение</text>
    </g>
    <g text-rendering="geometricPrecision" stroke-miterlimit="1.45" shape-rendering="geometricPrecision" transform="matrix(1,0,0,1,-418,-110)" stroke-linecap="butt">
      <rect fill="none" x="524.7683" width="244.2" height="81.4" y="358.3293" clip-path="url(#clipPath2)"/>
      <path fill="none" d="M534.7684 358.3293 L534.7684 439.7293 M758.9683 358.3293 L758.9683 439.7293 M534.7684 358.3293 Z" clip-path="url(#clipPath2)"/>
      <text x="577.6315" font-size="17px" y="404.9146" clip-path="url(#clipPath2)" font-family="sans-serif" stroke="none" xml:space="preserve">P = cross(D, E2)</text>
    </g>
    <g text-rendering="geometricPrecision" stroke-miterlimit="1.45" shape-rendering="geometricPrecision" transform="matrix(1,0,0,1,-418,-110)" stroke-linecap="butt">
      <path fill="none" d="M849.625 455.8957 L815 455.8957 L815 537.2957 L849.625 537.2957" clip-path="url(#clipPath2)"/>
      <text x="838.7375" font-size="17px" y="502.481" clip-path="url(#clipPath2)" font-family="sans-serif" stroke="none" xml:space="preserve">Скалярное произведение</text>
    </g>
    <g text-rendering="geometricPrecision" stroke-miterlimit="1.45" shape-rendering="geometricPrecision" transform="matrix(1,0,0,1,-418,-110)" stroke-linecap="butt">
      <rect fill="none" x="524.7683" width="244.2" height="81.4" y="455.8957" clip-path="url(#clipPath2)"/>
      <path fill="none" d="M534.7684 455.8957 L534.7684 537.2957 M758.9683 455.8957 L758.9683 537.2957 M534.7684 455.8957 Z" clip-path="url(#clipPath2)"/>
      <text x="578.5156" font-size="17px" y="502.481" clip-path="url(#clipPath2)" font-family="sans-serif" stroke="none" xml:space="preserve">det = dot(P, E2)</text>
    </g>
    <g text-rendering="geometricPrecision" stroke-miterlimit="1.45" shape-rendering="geometricPrecision" transform="matrix(1,0,0,1,-418,-110)" stroke-linecap="butt">
      <path fill="none" d="M646.8683 567.2957 L768.9683 607.9957 L646.8683 648.6957 L524.7684 607.9957 Z" clip-path="url(#clipPath2)"/>
      <text x="603.3432" font-size="17px" y="613.8809" clip-path="url(#clipPath2)" font-family="sans-serif" stroke="none" xml:space="preserve">det &lt;&gt; 0?</text>
    </g>
    <g text-rendering="geometricPrecision" stroke-miterlimit="1.45" shape-rendering="geometricPrecision" transform="matrix(1,0,0,1,-418,-110)" stroke-linecap="butt">
      <path fill="none" d="M792.05 950.6102 L914.15 991.3102 L792.05 1032.0101 L669.95 991.3102 Z" clip-path="url(#clipPath2)"/>
      <text x="724.3696" font-size="17px" y="987.3009" clip-path="url(#clipPath2)" font-family="sans-serif" stroke="none" xml:space="preserve">u &gt; 0 and v &gt; 0</text>
      <text x="732.4794" font-size="17px" y="1007.09" clip-path="url(#clipPath2)" font-family="sans-serif" stroke="none" xml:space="preserve">and u + v &lt; 1</text>
    </g>
    <g text-rendering="geometricPrecision" stroke-miterlimit="1.45" shape-rendering="geometricPrecision" transform="matrix(1,0,0,1,-418,-110)" stroke-linecap="butt">
      <rect fill="none" x="831.4" width="244.2" height="81.4" y="1034.5577" clip-path="url(#clipPath2)"/>
      <path fill="none" d="M841.4 1034.5577 L841.4 1115.9578 M1065.6 1034.5577 L1065.6 1115.9578 M841.4 1034.5577 Z" clip-path="url(#clipPath2)"/>
      <text x="849.0679" font-size="17px" y="1081.1429" clip-path="url(#clipPath2)" font-family="sans-serif" stroke="none" xml:space="preserve">t = DOT(Q, E2) * inv_det</text>
    </g>
    <g text-rendering="geometricPrecision" stroke-miterlimit="1.45" shape-rendering="geometricPrecision" transform="matrix(1,0,0,1,-418,-110)" stroke-linecap="butt">
      <path fill="none" d="M953.5 1140.7773 L1075.6 1181.4774 L953.5 1222.1774 L831.4 1181.4774 Z" clip-path="url(#clipPath2)"/>
      <text x="905.9656" font-size="17px" y="1167.5736" clip-path="url(#clipPath2)" font-family="sans-serif" stroke="none" xml:space="preserve">t &lt;= tmax </text>
      <text x="934.8066" font-size="17px" y="1187.3627" clip-path="url(#clipPath2)" font-family="sans-serif" stroke="none" xml:space="preserve">and </text>
      <text x="906.6462" font-size="17px" y="1207.1517" clip-path="url(#clipPath2)" font-family="sans-serif" stroke="none" xml:space="preserve">t &gt;= tmin?</text>
    </g>
    <g text-rendering="geometricPrecision" stroke-miterlimit="1.45" shape-rendering="geometricPrecision" transform="matrix(1,0,0,1,-418,-110)" stroke-linecap="butt">
      <path fill="none" d="M975.15 1234.0446 L1219.35 1234.0446 L1219.35 1315.4446 L975.15 1315.4446 Z" clip-path="url(#clipPath2)"/>
      <text x="1048.3335" font-size="17px" y="1280.6299" clip-path="url(#clipPath2)" font-family="sans-serif" stroke="none" xml:space="preserve">hitinfo.t = t</text>
    </g>
    <g text-rendering="geometricPrecision" stroke-miterlimit="1.45" shape-rendering="geometricPrecision" transform="matrix(1,0,0,1,-418,-110)" stroke-linecap="butt">
      <path fill="none" d="M1193.1 725.3586 L1437.3 725.3586 L1437.3 806.7585 L1193.1 806.7585 Z" clip-path="url(#clipPath2)"/>
      <text x="1271.0979" font-size="17px" y="771.9438" clip-path="url(#clipPath2)" font-family="sans-serif" stroke="none" xml:space="preserve">T = O - V0</text>
    </g>
    <g text-rendering="geometricPrecision" stroke-miterlimit="1.45" shape-rendering="geometricPrecision" transform="matrix(1,0,0,1,-418,-110)" stroke-linecap="butt">
      <rect fill="none" x="1193.1" width="244.2" height="81.4" y="826.6258" clip-path="url(#clipPath2)"/>
      <path fill="none" d="M1203.1 826.6258 L1203.1 908.0258 M1427.3 826.6258 L1427.3 908.0258 M1203.1 826.6258 Z" clip-path="url(#clipPath2)"/>
      <text x="1238.6543" font-size="17px" y="873.211" clip-path="url(#clipPath2)" font-family="sans-serif" stroke="none" xml:space="preserve">Q = CROSS(T, E1)</text>
    </g>
    <g text-rendering="geometricPrecision" stroke-miterlimit="1.45" shape-rendering="geometricPrecision" transform="matrix(1,0,0,1,-418,-110)" stroke-linecap="butt">
      <path fill="none" d="M1193.1 927.893 L1437.3 927.893 L1437.3 1009.293 L1193.1 1009.293 Z" clip-path="url(#clipPath2)"/>
      <text x="1244.054" font-size="17px" y="974.4782" clip-path="url(#clipPath2)" font-family="sans-serif" stroke="none" xml:space="preserve">inv_det = 1 / det</text>
    </g>
    <g text-rendering="geometricPrecision" stroke-miterlimit="1.45" shape-rendering="geometricPrecision" transform="matrix(1,0,0,1,-418,-110)" stroke-linecap="butt">
      <circle fill="none" r="20" clip-path="url(#clipPath2)" cx="792.05" cy="654.6957"/>
      <text x="786.2353" font-size="17px" y="660.5809" clip-path="url(#clipPath2)" font-family="sans-serif" stroke="none" xml:space="preserve">A</text>
    </g>
    <g text-rendering="geometricPrecision" stroke-miterlimit="1.45" shape-rendering="geometricPrecision" transform="matrix(1,0,0,1,-418,-110)" stroke-linecap="butt">
      <circle fill="none" r="20" clip-path="url(#clipPath2)" cx="792.05" cy="706.8351"/>
      <text x="786.2187" font-size="17px" y="712.7203" clip-path="url(#clipPath2)" font-family="sans-serif" stroke="none" xml:space="preserve">Б</text>
    </g>
    <g text-rendering="geometricPrecision" stroke-miterlimit="1.45" shape-rendering="geometricPrecision" transform="matrix(1,0,0,1,-418,-110)" stroke-linecap="butt">
      <circle fill="none" r="20" clip-path="url(#clipPath2)" cx="1315.2" cy="659.0948"/>
      <text x="1309.3853" font-size="17px" y="664.98" clip-path="url(#clipPath2)" font-family="sans-serif" stroke="none" xml:space="preserve">A</text>
    </g>
    <g text-rendering="geometricPrecision" stroke-miterlimit="1.45" shape-rendering="geometricPrecision" transform="matrix(1,0,0,1,-418,-110)" stroke-linecap="butt">
      <circle fill="none" r="20" clip-path="url(#clipPath2)" cx="1315.2" cy="1085.2102"/>
      <text x="1309.3687" font-size="17px" y="1091.0955" clip-path="url(#clipPath2)" font-family="sans-serif" stroke="none" xml:space="preserve">Б</text>
    </g>
    <g text-rendering="geometricPrecision" stroke-miterlimit="1.45" shape-rendering="geometricPrecision" transform="matrix(1,0,0,1,-418,-110)" stroke-linecap="butt">
      <rect fill="none" x="669.95" width="244.2" height="81.4" y="745.2267" clip-path="url(#clipPath2)"/>
      <path fill="none" d="M679.95 745.2267 L679.95 826.6267 M904.15 745.2267 L904.15 826.6267 M679.95 745.2267 Z" clip-path="url(#clipPath2)"/>
      <text x="692.7145" font-size="17px" y="791.812" clip-path="url(#clipPath2)" font-family="sans-serif" stroke="none" xml:space="preserve">u = DOT(P, T) * inv_det</text>
    </g>
    <g text-rendering="geometricPrecision" stroke-miterlimit="1.45" shape-rendering="geometricPrecision" transform="matrix(1,0,0,1,-418,-110)" stroke-linecap="butt">
      <rect fill="none" x="669.95" width="244.2" height="81.4" y="846.4939" clip-path="url(#clipPath2)"/>
      <path fill="none" d="M679.95 846.4939 L679.95 927.8939 M904.15 846.4939 L904.15 927.8939 M679.95 846.4939 Z" clip-path="url(#clipPath2)"/>
      <text x="690.1537" font-size="17px" y="893.0792" clip-path="url(#clipPath2)" font-family="sans-serif" stroke="none" xml:space="preserve">v = DOT(Q, D) * inv_det</text>
    </g>
    <g text-rendering="geometricPrecision" stroke-miterlimit="1.45" shape-rendering="geometricPrecision" transform="matrix(1,0,0,1,-418,-110)" stroke-linecap="butt">
      <path fill="none" d="M521.5253 1378.9771 L792.9683 1378.9771 L772.2114 1460.3771 L500.7683 1460.3771 Z" clip-path="url(#clipPath2)"/>
      <text x="580.1384" font-size="17px" y="1425.5623" clip-path="url(#clipPath2)" font-family="sans-serif" stroke="none" xml:space="preserve">Вернуть hitinfo</text>
    </g>
    <g stroke-linecap="butt" transform="matrix(1,0,0,1,-418,-110)" text-rendering="geometricPrecision" shape-rendering="geometricPrecision" stroke-dasharray="12,4" stroke-width="2" stroke-miterlimit="1.45">
      <path fill="none" d="M767.994 197.25 L814.9764 197.25" clip-path="url(#clipPath2)"/>
    </g>
    <g text-rendering="geometricPrecision" stroke-miterlimit="1.45" shape-rendering="geometricPrecision" transform="matrix(1,0,0,1,-418,-110)" stroke-linecap="butt">
      <path fill="none" d="M645.9 237.9647 L645.9 251.9683" clip-path="url(#clipPath2)"/>
      <path d="M645.9 259.9683 L650.9 247.9683 L645.9 250.9683 L640.9 247.9683 Z" clip-path="url(#clipPath2)" stroke="none"/>
      <path fill="none" d="M645.9 341.3506 L645.9 350.3082" clip-path="url(#clipPath2)"/>
      <path d="M645.9 358.3082 L650.9 346.3082 L645.9 349.3082 L640.9 346.3082 Z" clip-path="url(#clipPath2)" stroke="none"/>
      <path fill="none" stroke-dasharray="12,4" d="M769.0045 399.0293 L814.9932 399.0293" stroke-width="2" clip-path="url(#clipPath2)"/>
      <path fill="none" d="M646.8683 439.7614 L646.8683 447.8848" clip-path="url(#clipPath2)"/>
      <path d="M646.8683 455.8848 L651.8683 443.8848 L646.8683 446.8848 L641.8683 443.8848 Z" clip-path="url(#clipPath2)" stroke="none"/>
      <path fill="none" stroke-dasharray="12,4" d="M769.0045 496.5957 L814.9932 496.5957" stroke-width="2" clip-path="url(#clipPath2)"/>
      <path fill="none" d="M646.8683 537.31 L646.8683 559.3031" clip-path="url(#clipPath2)"/>
      <path d="M646.8683 567.3031 L651.8683 555.3031 L646.8683 558.3031 L641.8683 555.3031 Z" clip-path="url(#clipPath2)" stroke="none"/>
      <path fill="none" d="M914.1229 991.3102 L953.5 991.3102 L953.5 1026.5547" clip-path="url(#clipPath2)"/>
      <path d="M953.5 1034.5547 L958.5 1022.5547 L953.5 1025.5547 L948.5 1022.5547 Z" clip-path="url(#clipPath2)" stroke="none"/>
      <text x="931.4003" font-size="17px" y="980.958" clip-path="url(#clipPath2)" font-family="sans-serif" stroke="none" xml:space="preserve">Да</text>
      <path fill="none" d="M953.5 1115.9459 L953.5 1132.8082" clip-path="url(#clipPath2)"/>
      <path d="M953.5 1140.8082 L958.5 1128.8082 L953.5 1131.8082 L948.5 1128.8082 Z" clip-path="url(#clipPath2)" stroke="none"/>
      <path fill="none" d="M1075.5962 1181.4774 L1097.25 1181.4774 L1097.25 1226.0768" clip-path="url(#clipPath2)"/>
      <path d="M1097.25 1234.0768 L1102.25 1222.0768 L1097.25 1225.0768 L1092.25 1222.0768 Z" clip-path="url(#clipPath2)" stroke="none"/>
      <text x="1084.9264" font-size="17px" y="1172.2893" clip-path="url(#clipPath2)" font-family="sans-serif" stroke="none" xml:space="preserve">Да</text>
      <path fill="none" d="M1315.2 806.7697 L1315.2 818.6357" clip-path="url(#clipPath2)"/>
      <path d="M1315.2 826.6357 L1320.2 814.6357 L1315.2 817.6357 L1310.2 814.6357 Z" clip-path="url(#clipPath2)" stroke="none"/>
      <path fill="none" d="M1315.2 908.0206 L1315.2 919.8663" clip-path="url(#clipPath2)"/>
      <path d="M1315.2 927.8663 L1320.2 915.8663 L1315.2 918.8663 L1310.2 915.8663 Z" clip-path="url(#clipPath2)" stroke="none"/>
      <path fill="none" d="M768.9755 607.9957 L792.05 607.9957 L792.05 626.6749" clip-path="url(#clipPath2)"/>
      <path d="M792.05 634.6749 L797.05 622.6749 L792.05 625.6749 L787.05 622.6749 Z" clip-path="url(#clipPath2)" stroke="none"/>
      <text x="772.6854" font-size="17px" y="602.0698" clip-path="url(#clipPath2)" font-family="sans-serif" stroke="none" xml:space="preserve">Да</text>
      <path fill="none" d="M1315.2 679.0721 L1315.2 717.3262" clip-path="url(#clipPath2)"/>
      <path d="M1315.2 725.3262 L1320.2 713.3262 L1315.2 716.3262 L1310.2 713.3262 Z" clip-path="url(#clipPath2)" stroke="none"/>
      <path fill="none" d="M1315.2 1009.278 L1315.2 1057.2261" clip-path="url(#clipPath2)"/>
      <path d="M1315.2 1065.2261 L1320.2 1053.2261 L1315.2 1056.2261 L1310.2 1053.2261 Z" clip-path="url(#clipPath2)" stroke="none"/>
      <path fill="none" d="M792.05 726.8011 L792.05 737.249" clip-path="url(#clipPath2)"/>
      <path d="M792.05 745.249 L797.05 733.249 L792.05 736.249 L787.05 733.249 Z" clip-path="url(#clipPath2)" stroke="none"/>
      <path fill="none" d="M792.05 826.6215 L792.05 838.4672" clip-path="url(#clipPath2)"/>
      <path d="M792.05 846.4672 L797.05 834.4672 L792.05 837.4672 L787.05 834.4672 Z" clip-path="url(#clipPath2)" stroke="none"/>
      <path fill="none" d="M792.05 927.8967 L792.05 942.5786" clip-path="url(#clipPath2)"/>
      <path d="M792.05 950.5786 L797.05 938.5786 L792.05 941.5786 L787.05 938.5786 Z" clip-path="url(#clipPath2)" stroke="none"/>
      <path fill="none" d="M831.4277 1181.4774 L759.3221 1181.4774 L759.3221 1343.6625 L953.5 1343.6625 L953.5 1358.9771 L646.8683 1358.9771 L646.8683 1370.9832" clip-path="url(#clipPath2)"/>
      <path d="M646.8683 1378.9832 L651.8683 1366.9832 L646.8683 1369.9832 L641.8683 1366.9832 Z" clip-path="url(#clipPath2)" stroke="none"/>
      <path fill="none" d="M1097.25 1315.4291 L1097.25 1343.6625 L953.5 1343.6625 L953.5 1358.9771 L646.8683 1358.9771 L646.8683 1370.9554" clip-path="url(#clipPath2)"/>
      <path d="M646.8683 1378.9554 L651.8683 1366.9554 L646.8683 1369.9554 L641.8683 1366.9554 Z" clip-path="url(#clipPath2)" stroke="none"/>
      <path fill="none" d="M669.9653 991.3102 L568.7596 991.3102 L568.7596 1358.9771 L646.8683 1358.9771 L646.8683 1370.9836" clip-path="url(#clipPath2)"/>
      <path d="M646.8683 1378.9836 L651.8683 1366.9836 L646.8683 1369.9836 L641.8683 1366.9836 Z" clip-path="url(#clipPath2)" stroke="none"/>
      <path fill="none" d="M524.7511 607.9957 L433.8847 607.9957 L433.8847 1359.1412 L646.8683 1359.1412 L646.8683 1370.9877" clip-path="url(#clipPath2)"/>
      <path d="M646.8683 1378.9877 L651.8683 1366.9877 L646.8683 1369.9877 L641.8683 1366.9877 Z" clip-path="url(#clipPath2)" stroke="none"/>
      <path fill="none" d="M646.8683 1460.3914 L646.8683 1482.3844" clip-path="url(#clipPath2)"/>
      <path d="M646.8683 1490.3844 L651.8683 1478.3844 L646.8683 1481.3844 L641.8683 1478.3844 Z" clip-path="url(#clipPath2)" stroke="none"/>
    </g>
  </g>
</svg>
