<?xml version="1.0" encoding="UTF-8"?><svg xmlns="http://www.w3.org/2000/svg" xmlns:xlink="http://www.w3.org/1999/xlink" fill-opacity="1" color-rendering="auto" color-interpolation="auto" text-rendering="auto" stroke="black" stroke-linecap="square" width="2414" stroke-miterlimit="10" shape-rendering="auto" stroke-opacity="1" fill="black" stroke-dasharray="none" font-weight="normal" stroke-width="1" height="826" font-family="'Dialog'" font-style="normal" stroke-linejoin="miter" font-size="12px" stroke-dashoffset="0" image-rendering="auto">
  <!--Generated by ySVG 2.6-->
  <defs id="genericDefs"/>
  <g>
    <defs id="defs1">
      <clipPath clipPathUnits="userSpaceOnUse" id="clipPath1">
        <path d="M0 0 L2414 0 L2414 826 L0 826 L0 0 Z"/>
      </clipPath>
      <clipPath clipPathUnits="userSpaceOnUse" id="clipPath2">
        <path d="M5 -15 L2419 -15 L2419 811 L5 811 L5 -15 Z"/>
      </clipPath>
    </defs>
    <g fill="white" text-rendering="geometricPrecision" shape-rendering="geometricPrecision" transform="translate(-5,15)" stroke="white">
      <rect x="5" width="2414" height="826" y="-15" clip-path="url(#clipPath2)" stroke="none"/>
    </g>
    <g fill="rgb(255,204,0)" text-rendering="geometricPrecision" shape-rendering="geometricPrecision" transform="matrix(1,0,0,1,-5,15)" stroke="rgb(255,204,0)">
      <rect x="924.1345" width="149.4746" height="30" y="0" clip-path="url(#clipPath2)" stroke="none"/>
    </g>
    <g text-rendering="geometricPrecision" stroke-miterlimit="1.45" shape-rendering="geometricPrecision" transform="matrix(1,0,0,1,-5,15)" stroke-linecap="butt">
      <rect fill="none" x="924.1345" width="149.4746" height="30" y="0" clip-path="url(#clipPath2)"/>
      <text x="931.1345" xml:space="preserve" y="19.1543" clip-path="url(#clipPath2)" font-family="sans-serif" stroke="none">Аналитическая часть</text>
    </g>
    <g fill="rgb(255,204,0)" text-rendering="geometricPrecision" shape-rendering="geometricPrecision" transform="matrix(1,0,0,1,-5,15)" stroke="rgb(255,204,0)">
      <rect x="1437.0971" width="199.4844" height="30" y="99.9997" clip-path="url(#clipPath2)" stroke="none"/>
    </g>
    <g text-rendering="geometricPrecision" stroke-miterlimit="1.45" shape-rendering="geometricPrecision" transform="matrix(1,0,0,1,-5,15)" stroke-linecap="butt">
      <rect fill="none" x="1437.0971" width="199.4844" height="30" y="99.9997" clip-path="url(#clipPath2)"/>
      <text x="1444.097" xml:space="preserve" y="119.154" clip-path="url(#clipPath2)" font-family="sans-serif" stroke="none">Обратная трассировка лучей</text>
    </g>
    <g fill="rgb(255,204,0)" text-rendering="geometricPrecision" shape-rendering="geometricPrecision" transform="matrix(1,0,0,1,-5,15)" stroke="rgb(255,204,0)">
      <rect x="1739.5576" width="100.7539" height="30" y="272.9997" clip-path="url(#clipPath2)" stroke="none"/>
    </g>
    <g text-rendering="geometricPrecision" stroke-miterlimit="1.45" shape-rendering="geometricPrecision" transform="matrix(1,0,0,1,-5,15)" stroke-linecap="butt">
      <rect fill="none" x="1739.5576" width="100.7539" height="30" y="272.9997" clip-path="url(#clipPath2)"/>
      <text x="1746.5576" xml:space="preserve" y="292.154" clip-path="url(#clipPath2)" font-family="sans-serif" stroke="none">Задание луча</text>
    </g>
    <g fill="rgb(255,204,0)" text-rendering="geometricPrecision" shape-rendering="geometricPrecision" transform="matrix(1,0,0,1,-5,15)" stroke="rgb(255,204,0)">
      <rect x="1240.563" width="245.8613" height="30" y="272.9997" clip-path="url(#clipPath2)" stroke="none"/>
    </g>
    <g text-rendering="geometricPrecision" stroke-miterlimit="1.45" shape-rendering="geometricPrecision" transform="matrix(1,0,0,1,-5,15)" stroke-linecap="butt">
      <rect fill="none" x="1240.563" width="245.8613" height="30" y="272.9997" clip-path="url(#clipPath2)"/>
      <text x="1247.563" xml:space="preserve" y="292.154" clip-path="url(#clipPath2)" font-family="sans-serif" stroke="none">поиск Пересечения луча с объектом</text>
    </g>
    <g fill="rgb(255,204,0)" text-rendering="geometricPrecision" shape-rendering="geometricPrecision" transform="matrix(1,0,0,1,-5,15)" stroke="rgb(255,204,0)">
      <rect x="981.0554" width="35.6328" height="30" y="99.9997" clip-path="url(#clipPath2)" stroke="none"/>
    </g>
    <g text-rendering="geometricPrecision" stroke-miterlimit="1.45" shape-rendering="geometricPrecision" transform="matrix(1,0,0,1,-5,15)" stroke-linecap="butt">
      <rect fill="none" x="981.0554" width="35.6328" height="30" y="99.9997" clip-path="url(#clipPath2)"/>
      <text x="988.0554" xml:space="preserve" y="119.154" clip-path="url(#clipPath2)" font-family="sans-serif" stroke="none">STL</text>
    </g>
    <g fill="rgb(255,204,0)" text-rendering="geometricPrecision" shape-rendering="geometricPrecision" transform="matrix(1,0,0,1,-5,15)" stroke="rgb(255,204,0)">
      <rect x="930.2429" width="137.2578" height="30" y="149.9997" clip-path="url(#clipPath2)" stroke="none"/>
    </g>
    <g text-rendering="geometricPrecision" stroke-miterlimit="1.45" shape-rendering="geometricPrecision" transform="matrix(1,0,0,1,-5,15)" stroke-linecap="butt">
      <rect fill="none" x="930.2429" width="137.2578" height="30" y="149.9997" clip-path="url(#clipPath2)"/>
      <text x="937.2429" xml:space="preserve" y="169.154" clip-path="url(#clipPath2)" font-family="sans-serif" stroke="none">Треугольные грани</text>
    </g>
    <g fill="rgb(255,204,0)" text-rendering="geometricPrecision" shape-rendering="geometricPrecision" transform="matrix(1,0,0,1,-5,15)" stroke="rgb(255,204,0)">
      <rect x="1165.9855" width="517.9473" height="30" y="333.9997" clip-path="url(#clipPath2)" stroke="none"/>
    </g>
    <g text-rendering="geometricPrecision" stroke-miterlimit="1.45" shape-rendering="geometricPrecision" transform="matrix(1,0,0,1,-5,15)" stroke-linecap="butt">
      <rect fill="none" x="1165.9855" width="517.9473" height="30" y="333.9997" clip-path="url(#clipPath2)"/>
      <text x="1172.9855" xml:space="preserve" y="353.154" clip-path="url(#clipPath2)" font-family="sans-serif" stroke="none">пересечение с объектом затратно, нужны ограничивающие параллелепипеды</text>
    </g>
    <g fill="rgb(255,204,0)" text-rendering="geometricPrecision" shape-rendering="geometricPrecision" transform="matrix(1,0,0,1,-5,15)" stroke="rgb(255,204,0)">
      <rect x="1610.301" width="326.252" height="30" y="394.9997" clip-path="url(#clipPath2)" stroke="none"/>
    </g>
    <g text-rendering="geometricPrecision" stroke-miterlimit="1.45" shape-rendering="geometricPrecision" transform="matrix(1,0,0,1,-5,15)" stroke-linecap="butt">
      <rect fill="none" x="1610.301" width="326.252" height="30" y="394.9997" clip-path="url(#clipPath2)"/>
      <text x="1617.301" xml:space="preserve" y="414.154" clip-path="url(#clipPath2)" font-family="sans-serif" stroke="none">построение ограничивающего параллелепипеда</text>
    </g>
    <g fill="rgb(255,204,0)" text-rendering="geometricPrecision" shape-rendering="geometricPrecision" transform="matrix(1,0,0,1,-5,15)" stroke="rgb(255,204,0)">
      <rect x="1269.6173" width="310.6836" height="30" y="394.9997" clip-path="url(#clipPath2)" stroke="none"/>
    </g>
    <g text-rendering="geometricPrecision" stroke-miterlimit="1.45" shape-rendering="geometricPrecision" transform="matrix(1,0,0,1,-5,15)" stroke-linecap="butt">
      <rect fill="none" x="1269.6173" width="310.6836" height="30" y="394.9997" clip-path="url(#clipPath2)"/>
      <text x="1276.6173" xml:space="preserve" y="414.154" clip-path="url(#clipPath2)" font-family="sans-serif" stroke="none">организация ограничивающих тел - kd-дерево</text>
    </g>
    <g fill="rgb(255,204,0)" text-rendering="geometricPrecision" shape-rendering="geometricPrecision" transform="matrix(1,0,0,1,-5,15)" stroke="rgb(255,204,0)">
      <rect x="1659.6283" width="155.9609" height="30" y="455.9997" clip-path="url(#clipPath2)" stroke="none"/>
    </g>
    <g text-rendering="geometricPrecision" stroke-miterlimit="1.45" shape-rendering="geometricPrecision" transform="matrix(1,0,0,1,-5,15)" stroke-linecap="butt">
      <rect fill="none" x="1659.6283" width="155.9609" height="30" y="455.9997" clip-path="url(#clipPath2)"/>
      <text x="1666.6283" xml:space="preserve" y="475.154" clip-path="url(#clipPath2)" font-family="sans-serif" stroke="none">построение kd-дерева</text>
    </g>
    <g fill="rgb(255,204,0)" text-rendering="geometricPrecision" shape-rendering="geometricPrecision" transform="matrix(1,0,0,1,-5,15)" stroke="rgb(255,204,0)">
      <rect x="1475.0248" width="123.6289" height="30" y="0" clip-path="url(#clipPath2)" stroke="none"/>
    </g>
    <g text-rendering="geometricPrecision" stroke-miterlimit="1.45" shape-rendering="geometricPrecision" transform="matrix(1,0,0,1,-5,15)" stroke-linecap="butt">
      <rect fill="none" x="1475.0248" width="123.6289" height="30" y="0" clip-path="url(#clipPath2)"/>
      <text x="1482.0248" xml:space="preserve" y="19.1543" clip-path="url(#clipPath2)" font-family="sans-serif" stroke="none">Конструкторская</text>
    </g>
    <g fill="rgb(255,204,0)" text-rendering="geometricPrecision" shape-rendering="geometricPrecision" transform="matrix(1,0,0,1,-5,15)" stroke="rgb(255,204,0)">
      <rect x="729.8878" width="1075.9355" height="30" y="49.9998" clip-path="url(#clipPath2)" stroke="none"/>
    </g>
    <g text-rendering="geometricPrecision" stroke-miterlimit="1.45" shape-rendering="geometricPrecision" transform="matrix(1,0,0,1,-5,15)" stroke-linecap="butt">
      <rect fill="none" x="729.8878" width="1075.9355" height="30" y="49.9998" clip-path="url(#clipPath2)"/>
      <text x="736.8878" xml:space="preserve" y="69.1541" clip-path="url(#clipPath2)" font-family="sans-serif" stroke="none">В данном разделе описывается формат хранения данных, функциональная декомпозиция, алгоритм обратной трассировки лучей и другие применяемые алгоритмы</text>
    </g>
    <g fill="rgb(255,204,0)" text-rendering="geometricPrecision" shape-rendering="geometricPrecision" transform="matrix(1,0,0,1,-5,15)" stroke="rgb(255,204,0)">
      <rect x="1190.1479" width="693.3828" height="30" y="149.9997" clip-path="url(#clipPath2)" stroke="none"/>
    </g>
    <g text-rendering="geometricPrecision" stroke-miterlimit="1.45" shape-rendering="geometricPrecision" transform="matrix(1,0,0,1,-5,15)" stroke-linecap="butt">
      <rect fill="none" x="1190.1479" width="693.3828" height="30" y="149.9997" clip-path="url(#clipPath2)"/>
      <text x="1197.1478" xml:space="preserve" y="169.154" clip-path="url(#clipPath2)" font-family="sans-serif" stroke="none">выпускание множества лучей из камеры через каждый пиксель экрана и поиск пересечения с объектами</text>
    </g>
    <g fill="rgb(255,204,0)" text-rendering="geometricPrecision" shape-rendering="geometricPrecision" transform="matrix(1,0,0,1,-5,15)" stroke="rgb(255,204,0)">
      <rect x="1750.4072" width="345.3594" height="30" y="333.9997" clip-path="url(#clipPath2)" stroke="none"/>
    </g>
    <g text-rendering="geometricPrecision" stroke-miterlimit="1.45" shape-rendering="geometricPrecision" transform="matrix(1,0,0,1,-5,15)" stroke-linecap="butt">
      <rect fill="none" x="1750.4072" width="345.3594" height="30" y="333.9997" clip-path="url(#clipPath2)"/>
      <text x="1757.4072" xml:space="preserve" y="353.154" clip-path="url(#clipPath2)" font-family="sans-serif" stroke="none">[вычисление луча из камеры через пиксель экрана]</text>
    </g>
    <g fill="rgb(255,204,0)" text-rendering="geometricPrecision" shape-rendering="geometricPrecision" transform="matrix(1,0,0,1,-5,15)" stroke="rgb(255,204,0)">
      <rect x="1881.3818" width="83.4102" height="30" y="210.9997" clip-path="url(#clipPath2)" stroke="none"/>
    </g>
    <g text-rendering="geometricPrecision" stroke-miterlimit="1.45" shape-rendering="geometricPrecision" transform="matrix(1,0,0,1,-5,15)" stroke-linecap="butt">
      <rect fill="none" x="1881.3818" width="83.4102" height="30" y="210.9997" clip-path="url(#clipPath2)"/>
      <text x="1888.3818" xml:space="preserve" y="230.154" clip-path="url(#clipPath2)" font-family="sans-serif" stroke="none">камера - ...</text>
    </g>
    <g fill="aqua" text-rendering="geometricPrecision" shape-rendering="geometricPrecision" transform="matrix(1,0,0,1,-5,15)" stroke="aqua">
      <ellipse rx="30.4082" ry="15" clip-path="url(#clipPath2)" cx="1943.9393" cy="164.9997" stroke="none"/>
    </g>
    <g text-rendering="geometricPrecision" stroke-miterlimit="1.45" shape-rendering="geometricPrecision" transform="matrix(1,0,0,1,-5,15)" stroke-linecap="butt">
      <ellipse rx="30.4082" fill="none" ry="15" clip-path="url(#clipPath2)" cx="1943.9393" cy="164.9997"/>
      <text x="1920.5311" xml:space="preserve" y="169.154" clip-path="url(#clipPath2)" font-family="sans-serif" stroke="none">модель</text>
    </g>
    <g fill="rgb(255,204,0)" text-rendering="geometricPrecision" shape-rendering="geometricPrecision" transform="matrix(1,0,0,1,-5,15)" stroke="rgb(255,204,0)">
      <rect x="343.0338" width="1205.1055" height="30" y="455.9997" clip-path="url(#clipPath2)" stroke="none"/>
    </g>
    <g text-rendering="geometricPrecision" stroke-miterlimit="1.45" shape-rendering="geometricPrecision" transform="matrix(1,0,0,1,-5,15)" stroke-linecap="butt">
      <rect fill="none" x="343.0338" width="1205.1055" height="30" y="455.9997" clip-path="url(#clipPath2)"/>
      <text x="351.0338" xml:space="preserve" y="475.154" clip-path="url(#clipPath2)" font-family="sans-serif" stroke="none">для поиска пересечения с объектом нужно искать пересечение в первую очередь с kD-деревом, затем с ограничивающим параллелепипедом и, наконец, с треугольной гранью объекта</text>
    </g>
    <g fill="rgb(255,204,0)" text-rendering="geometricPrecision" shape-rendering="geometricPrecision" transform="matrix(1,0,0,1,-5,15)" stroke="rgb(255,204,0)">
      <rect x="961.0866" width="87.7871" height="30" y="532.9997" clip-path="url(#clipPath2)" stroke="none"/>
    </g>
    <g text-rendering="geometricPrecision" stroke-miterlimit="1.45" shape-rendering="geometricPrecision" transform="matrix(1,0,0,1,-5,15)" stroke-linecap="butt">
      <rect fill="none" x="961.0866" width="87.7871" height="30" y="532.9997" clip-path="url(#clipPath2)"/>
      <text x="968.0866" xml:space="preserve" y="552.154" clip-path="url(#clipPath2)" font-family="sans-serif" stroke="none">АЛгоритм 1</text>
    </g>
    <g fill="rgb(255,204,0)" text-rendering="geometricPrecision" shape-rendering="geometricPrecision" transform="matrix(1,0,0,1,-5,15)" stroke="rgb(255,204,0)">
      <rect x="788.5006" width="282.1719" height="30" y="333.9997" clip-path="url(#clipPath2)" stroke="none"/>
    </g>
    <g text-rendering="geometricPrecision" stroke-miterlimit="1.45" shape-rendering="geometricPrecision" transform="matrix(1,0,0,1,-5,15)" stroke-linecap="butt">
      <rect fill="none" x="788.5006" width="282.1719" height="30" y="333.9997" clip-path="url(#clipPath2)"/>
      <text x="795.5005" xml:space="preserve" y="353.154" clip-path="url(#clipPath2)" font-family="sans-serif" stroke="none">Поиск пересечения с треугольной гранью</text>
    </g>
    <g fill="rgb(255,204,0)" text-rendering="geometricPrecision" shape-rendering="geometricPrecision" transform="matrix(1,0,0,1,-5,15)" stroke="rgb(255,204,0)">
      <rect x="961.0866" width="87.7871" height="30" y="593.9997" clip-path="url(#clipPath2)" stroke="none"/>
    </g>
    <g text-rendering="geometricPrecision" stroke-miterlimit="1.45" shape-rendering="geometricPrecision" transform="matrix(1,0,0,1,-5,15)" stroke-linecap="butt">
      <rect fill="none" x="961.0866" width="87.7871" height="30" y="593.9997" clip-path="url(#clipPath2)"/>
      <text x="968.0866" xml:space="preserve" y="613.154" clip-path="url(#clipPath2)" font-family="sans-serif" stroke="none">АЛгоритм 2</text>
    </g>
    <g fill="rgb(255,204,0)" text-rendering="geometricPrecision" shape-rendering="geometricPrecision" transform="matrix(1,0,0,1,-5,15)" stroke="rgb(255,204,0)">
      <rect x="541.2354" width="87.7871" height="30" y="654.9997" clip-path="url(#clipPath2)" stroke="none"/>
    </g>
    <g text-rendering="geometricPrecision" stroke-miterlimit="1.45" shape-rendering="geometricPrecision" transform="matrix(1,0,0,1,-5,15)" stroke-linecap="butt">
      <rect fill="none" x="541.2354" width="87.7871" height="30" y="654.9997" clip-path="url(#clipPath2)"/>
      <text x="548.2354" xml:space="preserve" y="674.154" clip-path="url(#clipPath2)" font-family="sans-serif" stroke="none">АЛгоритм 3</text>
    </g>
    <g fill="aqua" text-rendering="geometricPrecision" shape-rendering="geometricPrecision" transform="matrix(1,0,0,1,-5,15)" stroke="aqua">
      <ellipse rx="25.7441" ry="15" clip-path="url(#clipPath2)" cx="1603.8837" cy="470.9997" stroke="none"/>
    </g>
    <g text-rendering="geometricPrecision" stroke-miterlimit="1.45" shape-rendering="geometricPrecision" transform="matrix(1,0,0,1,-5,15)" stroke-linecap="butt">
      <ellipse rx="25.7441" fill="none" ry="15" clip-path="url(#clipPath2)" cx="1603.8837" cy="470.9997"/>
      <text x="1585.1396" xml:space="preserve" y="475.154" clip-path="url(#clipPath2)" font-family="sans-serif" stroke="none">схема</text>
    </g>
    <g fill="aqua" text-rendering="geometricPrecision" shape-rendering="geometricPrecision" transform="matrix(1,0,0,1,-5,15)" stroke="aqua">
      <ellipse rx="25.7441" ry="15" clip-path="url(#clipPath2)" cx="1104.6179" cy="547.9997" stroke="none"/>
    </g>
    <g text-rendering="geometricPrecision" stroke-miterlimit="1.45" shape-rendering="geometricPrecision" transform="matrix(1,0,0,1,-5,15)" stroke-linecap="butt">
      <ellipse rx="25.7441" fill="none" ry="15" clip-path="url(#clipPath2)" cx="1104.6179" cy="547.9997"/>
      <text x="1085.8737" xml:space="preserve" y="552.154" clip-path="url(#clipPath2)" font-family="sans-serif" stroke="none">схема</text>
    </g>
    <g fill="aqua" text-rendering="geometricPrecision" shape-rendering="geometricPrecision" transform="matrix(1,0,0,1,-5,15)" stroke="aqua">
      <ellipse rx="25.7441" ry="15" clip-path="url(#clipPath2)" cx="585.129" cy="608.9997" stroke="none"/>
    </g>
    <g text-rendering="geometricPrecision" stroke-miterlimit="1.45" shape-rendering="geometricPrecision" transform="matrix(1,0,0,1,-5,15)" stroke-linecap="butt">
      <ellipse rx="25.7441" fill="none" ry="15" clip-path="url(#clipPath2)" cx="585.129" cy="608.9997"/>
      <text x="566.3848" xml:space="preserve" y="613.154" clip-path="url(#clipPath2)" font-family="sans-serif" stroke="none">схема</text>
    </g>
    <g fill="rgb(255,204,0)" text-rendering="geometricPrecision" shape-rendering="geometricPrecision" transform="matrix(1,0,0,1,-5,15)" stroke="rgb(255,204,0)">
      <rect x="1927.0779" width="87.7871" height="30" y="455.9997" clip-path="url(#clipPath2)" stroke="none"/>
    </g>
    <g text-rendering="geometricPrecision" stroke-miterlimit="1.45" shape-rendering="geometricPrecision" transform="matrix(1,0,0,1,-5,15)" stroke-linecap="butt">
      <rect fill="none" x="1927.0779" width="87.7871" height="30" y="455.9997" clip-path="url(#clipPath2)"/>
      <text x="1934.0779" xml:space="preserve" y="475.154" clip-path="url(#clipPath2)" font-family="sans-serif" stroke="none">АЛгоритм 5</text>
    </g>
    <g fill="rgb(255,204,0)" text-rendering="geometricPrecision" shape-rendering="geometricPrecision" transform="matrix(1,0,0,1,-5,15)" stroke="rgb(255,204,0)">
      <rect x="1827.4402" width="87.7871" height="30" y="532.9997" clip-path="url(#clipPath2)" stroke="none"/>
    </g>
    <g text-rendering="geometricPrecision" stroke-miterlimit="1.45" shape-rendering="geometricPrecision" transform="matrix(1,0,0,1,-5,15)" stroke-linecap="butt">
      <rect fill="none" x="1827.4402" width="87.7871" height="30" y="532.9997" clip-path="url(#clipPath2)"/>
      <text x="1834.4402" xml:space="preserve" y="552.154" clip-path="url(#clipPath2)" font-family="sans-serif" stroke="none">АЛгоритм 4</text>
    </g>
    <g fill="aqua" text-rendering="geometricPrecision" shape-rendering="geometricPrecision" transform="matrix(1,0,0,1,-5,15)" stroke="aqua">
      <ellipse rx="25.7441" ry="15" clip-path="url(#clipPath2)" cx="1992.2972" cy="409.9997" stroke="none"/>
    </g>
    <g text-rendering="geometricPrecision" stroke-miterlimit="1.45" shape-rendering="geometricPrecision" transform="matrix(1,0,0,1,-5,15)" stroke-linecap="butt">
      <ellipse rx="25.7441" fill="none" ry="15" clip-path="url(#clipPath2)" cx="1992.2972" cy="409.9997"/>
      <text x="1973.5531" xml:space="preserve" y="414.154" clip-path="url(#clipPath2)" font-family="sans-serif" stroke="none">схема</text>
    </g>
    <g fill="aqua" text-rendering="geometricPrecision" shape-rendering="geometricPrecision" transform="matrix(1,0,0,1,-5,15)" stroke="aqua">
      <ellipse rx="25.7441" ry="15" clip-path="url(#clipPath2)" cx="1871.3337" cy="470.9997" stroke="none"/>
    </g>
    <g text-rendering="geometricPrecision" stroke-miterlimit="1.45" shape-rendering="geometricPrecision" transform="matrix(1,0,0,1,-5,15)" stroke-linecap="butt">
      <ellipse rx="25.7441" fill="none" ry="15" clip-path="url(#clipPath2)" cx="1871.3337" cy="470.9997"/>
      <text x="1852.5896" xml:space="preserve" y="475.154" clip-path="url(#clipPath2)" font-family="sans-serif" stroke="none">схема</text>
    </g>
    <g fill="rgb(255,204,0)" text-rendering="geometricPrecision" shape-rendering="geometricPrecision" transform="matrix(1,0,0,1,-5,15)" stroke="rgb(255,204,0)">
      <rect x="20.0002" width="678.1543" height="30" y="704.9995" clip-path="url(#clipPath2)" stroke="none"/>
    </g>
    <g text-rendering="geometricPrecision" stroke-miterlimit="1.45" shape-rendering="geometricPrecision" transform="matrix(1,0,0,1,-5,15)" stroke-linecap="butt">
      <rect fill="none" x="20.0002" width="678.1543" height="30" y="704.9995" clip-path="url(#clipPath2)"/>
      <text x="26.0002" xml:space="preserve" y="726.1694" clip-path="url(#clipPath2)" font-family="sans-serif" stroke="none">алгоритм обработки одного луча построен с использованием алгоритма пересеения луча с кд-деревом</text>
    </g>
    <g fill="rgb(255,204,0)" text-rendering="geometricPrecision" shape-rendering="geometricPrecision" transform="matrix(1,0,0,1,-5,15)" stroke="rgb(255,204,0)">
      <rect x="1282.812" width="161.3633" height="30" y="210.9997" clip-path="url(#clipPath2)" stroke="none"/>
    </g>
    <g text-rendering="geometricPrecision" stroke-miterlimit="1.45" shape-rendering="geometricPrecision" transform="matrix(1,0,0,1,-5,15)" stroke-linecap="butt">
      <rect fill="none" x="1282.812" width="161.3633" height="30" y="210.9997" clip-path="url(#clipPath2)"/>
      <text x="1289.812" xml:space="preserve" y="230.154" clip-path="url(#clipPath2)" font-family="sans-serif" stroke="none">обработка одного луча</text>
    </g>
    <g fill="aqua" text-rendering="geometricPrecision" shape-rendering="geometricPrecision" transform="matrix(1,0,0,1,-5,15)" stroke="aqua">
      <ellipse rx="25.7441" ry="15" clip-path="url(#clipPath2)" cx="133.0258" cy="669.9997" stroke="none"/>
    </g>
    <g text-rendering="geometricPrecision" stroke-miterlimit="1.45" shape-rendering="geometricPrecision" transform="matrix(1,0,0,1,-5,15)" stroke-linecap="butt">
      <ellipse rx="25.7441" fill="none" ry="15" clip-path="url(#clipPath2)" cx="133.0258" cy="669.9997"/>
      <text x="114.2817" xml:space="preserve" y="674.154" clip-path="url(#clipPath2)" font-family="sans-serif" stroke="none">схема</text>
    </g>
    <g fill="rgb(255,204,0)" text-rendering="geometricPrecision" shape-rendering="geometricPrecision" transform="matrix(1,0,0,1,-5,15)" stroke="rgb(255,204,0)">
      <rect x="1417.603" width="985.502" height="30" y="765.9995" clip-path="url(#clipPath2)" stroke="none"/>
    </g>
    <g text-rendering="geometricPrecision" stroke-miterlimit="1.45" shape-rendering="geometricPrecision" transform="matrix(1,0,0,1,-5,15)" stroke-linecap="butt">
      <rect fill="none" x="1417.603" width="985.502" height="30" y="765.9995" clip-path="url(#clipPath2)"/>
      <text x="1424.603" xml:space="preserve" y="785.1538" clip-path="url(#clipPath2)" font-family="sans-serif" stroke="none">на основе алгоритмов обработки одного луча и построения кд-дерева и формуле вычисления луча ... составлен алгоритм обратной трассировки лучей</text>
    </g>
    <g fill="aqua" text-rendering="geometricPrecision" shape-rendering="geometricPrecision" transform="matrix(1,0,0,1,-5,15)" stroke="aqua">
      <ellipse rx="25.7441" ry="15" clip-path="url(#clipPath2)" cx="2279.9171" cy="719.9995" stroke="none"/>
    </g>
    <g text-rendering="geometricPrecision" stroke-miterlimit="1.45" shape-rendering="geometricPrecision" transform="matrix(1,0,0,1,-5,15)" stroke-linecap="butt">
      <ellipse rx="25.7441" fill="none" ry="15" clip-path="url(#clipPath2)" cx="2279.9171" cy="719.9995"/>
      <text x="2261.1729" xml:space="preserve" y="724.1538" clip-path="url(#clipPath2)" font-family="sans-serif" stroke="none">схема</text>
    </g>
    <g fill="rgb(153,204,0)" text-rendering="geometricPrecision" shape-rendering="geometricPrecision" transform="matrix(1,0,0,1,-5,15)" stroke="rgb(153,204,0)">
      <ellipse rx="36.2588" ry="15" clip-path="url(#clipPath2)" cx="1815.123" cy="225.9997" stroke="none"/>
    </g>
    <g text-rendering="geometricPrecision" stroke-miterlimit="1.45" shape-rendering="geometricPrecision" transform="matrix(1,0,0,1,-5,15)" stroke-linecap="butt">
      <ellipse rx="36.2588" fill="none" ry="15" clip-path="url(#clipPath2)" cx="1815.123" cy="225.9997"/>
      <text x="1785.8643" xml:space="preserve" y="230.154" clip-path="url(#clipPath2)" font-family="sans-serif" stroke="none">формулы</text>
    </g>
    <g fill="rgb(153,204,0)" text-rendering="geometricPrecision" shape-rendering="geometricPrecision" transform="matrix(1,0,0,1,-5,15)" stroke="rgb(153,204,0)">
      <ellipse rx="36.2588" ry="15" clip-path="url(#clipPath2)" cx="2038.2067" cy="287.9997" stroke="none"/>
    </g>
    <g text-rendering="geometricPrecision" stroke-miterlimit="1.45" shape-rendering="geometricPrecision" transform="matrix(1,0,0,1,-5,15)" stroke-linecap="butt">
      <ellipse rx="36.2588" fill="none" ry="15" clip-path="url(#clipPath2)" cx="2038.2067" cy="287.9997"/>
      <text x="2008.948" xml:space="preserve" y="292.154" clip-path="url(#clipPath2)" font-family="sans-serif" stroke="none">формулы</text>
      <path fill="none" d="M998.8718 129.9997 L998.8718 141.9606" clip-path="url(#clipPath2)"/>
      <path d="M998.8718 149.9606 L1003.8718 137.9606 L998.8718 140.9606 L993.8718 137.9606 Z" clip-path="url(#clipPath2)" stroke="none"/>
      <path fill="none" d="M1424.959 302.9997 L1424.9591 325.9694" clip-path="url(#clipPath2)"/>
      <path d="M1424.9591 333.9694 L1429.9591 321.9694 L1424.9591 324.9694 L1419.9591 321.9694 Z" clip-path="url(#clipPath2)" stroke="none"/>
      <path fill="none" d="M1597.6083 363.9997 L1597.6083 379.4997 L1773.427 379.4997 L1773.427 386.9694" clip-path="url(#clipPath2)"/>
      <path d="M1773.427 394.9694 L1778.427 382.9694 L1773.427 385.9694 L1768.427 382.9694 Z" clip-path="url(#clipPath2)" stroke="none"/>
      <path fill="none" d="M1424.9591 363.9997 L1424.9591 386.9694" clip-path="url(#clipPath2)"/>
      <path d="M1424.9591 394.9694 L1429.9591 382.9694 L1424.9591 385.9694 L1419.9591 382.9694 Z" clip-path="url(#clipPath2)" stroke="none"/>
      <path fill="none" d="M1502.63 424.9997 L1502.63 440.4997 L1737.6088 440.4997 L1737.6088 447.9694" clip-path="url(#clipPath2)"/>
      <path d="M1737.6088 455.9694 L1742.6088 443.9694 L1737.6088 446.9694 L1732.6088 443.9694 Z" clip-path="url(#clipPath2)" stroke="none"/>
      <path fill="none" d="M1536.8392 30 L1536.8394 41.9608" clip-path="url(#clipPath2)"/>
      <path d="M1536.8395 49.9608 L1541.8392 37.9607 L1536.8394 40.9608 L1531.8394 37.9609 Z" clip-path="url(#clipPath2)" stroke="none"/>
      <path fill="none" d="M998.8718 30 L998.8717 41.9608" clip-path="url(#clipPath2)"/>
      <path d="M998.8716 49.9608 L1003.8717 37.9608 L998.8717 40.9608 L993.8718 37.9607 Z" clip-path="url(#clipPath2)" stroke="none"/>
      <path fill="none" d="M998.8716 79.9998 L998.8718 91.9606" clip-path="url(#clipPath2)"/>
      <path d="M998.8718 99.9606 L1003.8717 87.9606 L998.8718 90.9606 L993.8718 87.9607 Z" clip-path="url(#clipPath2)" stroke="none"/>
      <path fill="none" d="M1536.8395 79.9998 L1536.8394 91.9606" clip-path="url(#clipPath2)"/>
      <path d="M1536.8392 99.9606 L1541.8394 87.9607 L1536.8394 90.9606 L1531.8395 87.9605 Z" clip-path="url(#clipPath2)" stroke="none"/>
      <path fill="none" d="M1536.8392 129.9997 L1536.8392 141.9606" clip-path="url(#clipPath2)"/>
      <path d="M1536.8392 149.9606 L1541.8392 137.9606 L1536.8392 140.9606 L1531.8392 137.9606 Z" clip-path="url(#clipPath2)" stroke="none"/>
      <path fill="none" d="M1789.9346 302.9997 L1789.9346 318.4997 L1807.9672 318.4997 L1807.9672 325.9694" clip-path="url(#clipPath2)"/>
      <path d="M1807.9672 333.9694 L1812.9672 321.9694 L1807.9672 324.9694 L1802.9672 321.9694 Z" clip-path="url(#clipPath2)" stroke="none"/>
      <path fill="none" d="M1710.1849 179.9997 L1710.1849 195.4997 L1902.2344 195.4997 L1902.2344 202.9694" clip-path="url(#clipPath2)"/>
      <path d="M1902.2344 210.9694 L1907.2344 198.9694 L1902.2344 201.9694 L1897.2344 198.9694 Z" clip-path="url(#clipPath2)" stroke="none"/>
      <path fill="none" d="M1923.0869 240.9997 L1923.0869 325.9543" clip-path="url(#clipPath2)"/>
      <path d="M1923.0869 333.9543 L1928.0869 321.9543 L1923.0869 324.9543 L1918.0869 321.9543 Z" clip-path="url(#clipPath2)" stroke="none"/>
      <path fill="none" d="M1943.9393 179.9997 L1943.9395 202.9694" clip-path="url(#clipPath2)"/>
      <path d="M1943.9395 210.9694 L1948.9395 198.9694 L1943.9395 201.9694 L1938.9395 198.9694 Z" clip-path="url(#clipPath2)" stroke="none"/>
      <path fill="none" d="M1252.3101 363.9997 L1252.3101 379.4997 L945.5865 379.4997 L945.5865 447.9623" clip-path="url(#clipPath2)"/>
      <path d="M945.5865 455.9623 L950.5865 443.9623 L945.5865 446.9623 L940.5865 443.9623 Z" clip-path="url(#clipPath2)" stroke="none"/>
      <path fill="none" d="M1347.2882 424.9997 L1347.2883 447.9694" clip-path="url(#clipPath2)"/>
      <path d="M1347.2883 455.9694 L1352.2883 443.9694 L1347.2883 446.9694 L1342.2883 443.9694 Z" clip-path="url(#clipPath2)" stroke="none"/>
      <path fill="none" d="M1347.2883 485.9997 L1347.2883 501.4997 L983.0334 501.4997 L983.0334 524.9689" clip-path="url(#clipPath2)"/>
      <path d="M983.0334 532.9689 L988.0334 520.9689 L983.0334 523.9689 L978.0334 520.9689 Z" clip-path="url(#clipPath2)" stroke="none"/>
      <path fill="none" d="M1302.0283 302.9997 L1302.0283 318.4997 L1000.1295 318.4997 L1000.1295 325.9694" clip-path="url(#clipPath2)"/>
      <path d="M1000.1295 333.9694 L1005.1295 321.9694 L1000.1295 324.9694 L995.1295 321.9694 Z" clip-path="url(#clipPath2)" stroke="none"/>
      <path fill="none" d="M998.8718 179.9997 L998.8718 272.4997 L859.0436 272.4997 L859.0436 325.9697" clip-path="url(#clipPath2)"/>
      <path d="M859.0435 333.9697 L864.0436 321.9697 L859.0436 324.9697 L854.0436 321.9696 Z" clip-path="url(#clipPath2)" stroke="none"/>
      <path fill="none" d="M929.5865 363.9997 L929.5865 425.4997 L543.8847 425.4997 L543.8847 447.9699" clip-path="url(#clipPath2)"/>
      <path d="M543.8847 455.9699 L548.8847 443.9699 L543.8847 446.9699 L538.8847 443.9699 Z" clip-path="url(#clipPath2)" stroke="none"/>
      <path fill="none" d="M945.5865 485.9997 L945.5865 578.4997 L975.7178 578.4997 L975.7178 585.9694" clip-path="url(#clipPath2)"/>
      <path d="M975.7178 593.9694 L980.7178 581.9694 L975.7178 584.9694 L970.7178 581.9694 Z" clip-path="url(#clipPath2)" stroke="none"/>
      <path fill="none" d="M1004.9802 562.9997 L1004.9802 585.9694" clip-path="url(#clipPath2)"/>
      <path d="M1004.9802 593.9694 L1009.9802 581.9694 L1004.9802 584.9694 L999.9802 581.9694 Z" clip-path="url(#clipPath2)" stroke="none"/>
      <path fill="none" d="M543.8847 485.9997 L543.8845 639.4997 L555.8666 639.4997 L555.8666 646.9694" clip-path="url(#clipPath2)"/>
      <path d="M555.8666 654.9694 L560.8666 642.9694 L555.8666 645.9694 L550.8666 642.9694 Z" clip-path="url(#clipPath2)" stroke="none"/>
      <path fill="none" d="M1004.9802 623.9997 L1004.9802 639.4997 L614.3914 639.4997 L614.3914 646.9694" clip-path="url(#clipPath2)"/>
      <path d="M614.3914 654.9694 L619.3914 642.9694 L614.3914 645.9694 L609.3914 642.9694 Z" clip-path="url(#clipPath2)" stroke="none"/>
      <path fill="none" d="M1603.8838 485.9997 L1603.8838 517.4997 L1026.9269 517.4997 L1026.9269 524.9694" clip-path="url(#clipPath2)"/>
      <path d="M1026.9269 532.9694 L1031.9269 520.9694 L1026.9269 523.9694 L1021.9269 520.9694 Z" clip-path="url(#clipPath2)" stroke="none"/>
      <path fill="none" d="M1104.6178 562.9997 L1104.6178 578.4997 L1034.2426 578.4997 L1034.2426 585.9694" clip-path="url(#clipPath2)"/>
      <path d="M1034.2426 593.9694 L1039.2426 581.9694 L1034.2426 584.9694 L1029.2426 581.9694 Z" clip-path="url(#clipPath2)" stroke="none"/>
      <path fill="none" d="M585.129 623.9997 L585.129 646.9694" clip-path="url(#clipPath2)"/>
      <path d="M585.129 654.9694 L590.129 642.9694 L585.129 645.9694 L580.129 642.9694 Z" clip-path="url(#clipPath2)" stroke="none"/>
      <path fill="none" d="M1773.427 424.9997 L1773.427 440.4997 L1949.0247 440.4997 L1949.0247 447.9694" clip-path="url(#clipPath2)"/>
      <path d="M1949.0247 455.9694 L1954.0247 443.9694 L1949.0247 446.9694 L1944.0247 443.9694 Z" clip-path="url(#clipPath2)" stroke="none"/>
      <path fill="none" d="M1737.6088 485.9997 L1737.6088 501.4997 L1842.0714 501.4997 L1842.0714 524.9689" clip-path="url(#clipPath2)"/>
      <path d="M1842.0714 532.9689 L1847.0714 520.9689 L1842.0714 523.9689 L1837.0714 520.9689 Z" clip-path="url(#clipPath2)" stroke="none"/>
      <path fill="none" d="M1970.9714 485.9997 L1970.9714 501.4997 L1900.5961 501.4997 L1900.5961 524.9689" clip-path="url(#clipPath2)"/>
      <path d="M1900.5961 532.9689 L1905.5961 520.9689 L1900.5961 523.9689 L1895.5961 520.9689 Z" clip-path="url(#clipPath2)" stroke="none"/>
      <path fill="none" d="M1992.2972 424.9997 L1992.2972 440.4997 L1992.9182 440.4997 L1992.9182 447.9694" clip-path="url(#clipPath2)"/>
      <path d="M1992.9182 455.9694 L1997.9182 443.9694 L1992.9182 446.9694 L1987.9182 443.9694 Z" clip-path="url(#clipPath2)" stroke="none"/>
      <path fill="none" d="M1871.3337 485.9997 L1871.3337 524.9538" clip-path="url(#clipPath2)"/>
      <path d="M1871.3337 532.9538 L1876.3337 520.9538 L1871.3337 523.9538 L1866.3337 520.9538 Z" clip-path="url(#clipPath2)" stroke="none"/>
      <path fill="none" d="M585.129 684.9997 L585.1288 696.9604" clip-path="url(#clipPath2)"/>
      <path d="M585.1288 704.9604 L590.1288 692.9605 L585.1288 695.9604 L580.1289 692.9604 Z" clip-path="url(#clipPath2)" stroke="none"/>
      <path fill="none" d="M1363.4935 179.9997 L1363.4937 202.9694" clip-path="url(#clipPath2)"/>
      <path d="M1363.4937 210.9694 L1368.4937 198.9694 L1363.4937 201.9694 L1358.4937 198.9694 Z" clip-path="url(#clipPath2)" stroke="none"/>
      <path fill="none" d="M1417.2814 240.9997 L1417.2814 256.4997 L1764.7461 256.4997 L1764.7461 264.9675" clip-path="url(#clipPath2)"/>
      <path d="M1764.7461 272.9675 L1769.7461 260.9675 L1764.7461 263.9675 L1759.7461 260.9675 Z" clip-path="url(#clipPath2)" stroke="none"/>
      <path fill="none" d="M1363.4937 240.9997 L1363.4937 264.9684" clip-path="url(#clipPath2)"/>
      <path d="M1363.4937 272.9684 L1368.4937 260.9684 L1363.4937 263.9684 L1358.4937 260.9684 Z" clip-path="url(#clipPath2)" stroke="none"/>
      <path fill="none" d="M1309.7059 240.9997 L1309.7059 256.4997 L327.5337 256.4997 L327.5337 685.4997 L359.0774 685.4997 L359.0774 696.9614" clip-path="url(#clipPath2)"/>
      <path d="M359.0774 704.9614 L364.0774 692.9614 L359.0774 695.9614 L354.0774 692.9614 Z" clip-path="url(#clipPath2)" stroke="none"/>
      <path fill="none" d="M133.0258 684.9997 L133.0259 696.9604" clip-path="url(#clipPath2)"/>
      <path d="M133.026 704.9604 L138.0258 692.9604 L133.0259 695.9604 L128.0258 692.9605 Z" clip-path="url(#clipPath2)" stroke="none"/>
      <path fill="none" d="M359.0774 734.9995 L359.0774 750.4995 L1540.7908 750.4995 L1540.7908 757.9692" clip-path="url(#clipPath2)"/>
      <path d="M1540.7908 765.9692 L1545.7908 753.9692 L1540.7908 756.9692 L1535.7908 753.9692 Z" clip-path="url(#clipPath2)" stroke="none"/>
      <path fill="none" d="M1871.3337 562.9997 L1871.3337 735.4995 L1787.1663 735.4995 L1787.1663 757.9697" clip-path="url(#clipPath2)"/>
      <path d="M1787.1663 765.9697 L1792.1663 753.9697 L1787.1663 756.9697 L1782.1663 753.9697 Z" clip-path="url(#clipPath2)" stroke="none"/>
      <path fill="none" d="M1923.0869 363.9997 L1923.0869 379.4997 L2033.5416 379.4997 L2033.5417 757.9523" clip-path="url(#clipPath2)"/>
      <path d="M2033.5417 765.9523 L2038.5417 753.9523 L2033.5417 756.9523 L2028.5417 753.9523 Z" clip-path="url(#clipPath2)" stroke="none"/>
      <path fill="none" d="M2279.917 734.9995 L2279.9172 757.9692" clip-path="url(#clipPath2)"/>
      <path d="M2279.9172 765.9692 L2284.9172 753.9692 L2279.9172 756.9692 L2274.9172 753.9692 Z" clip-path="url(#clipPath2)" stroke="none"/>
      <path fill="none" d="M1815.123 240.9997 L1815.123 264.9684" clip-path="url(#clipPath2)"/>
      <path d="M1815.123 272.9684 L1820.123 260.9684 L1815.123 263.9684 L1810.123 260.9684 Z" clip-path="url(#clipPath2)" stroke="none"/>
      <path fill="none" d="M2038.2068 302.9997 L2038.2067 325.9694" clip-path="url(#clipPath2)"/>
      <path d="M2038.2067 333.9694 L2043.2067 321.9694 L2038.2067 324.9694 L2033.2067 321.9694 Z" clip-path="url(#clipPath2)" stroke="none"/>
    </g>
  </g>
</svg>
